<svg width="60" height="40" viewBox="0 0 60 40" fill="none" xmlns="http://www.w3.org/2000/svg">
<rect width="60" height="40" rx="5" fill="url(#paint0_linear_259_1103)"/>
<path d="M5.89844 25.1816C6.04844 25.5943 6.19843 26.0009 6.39643 26.4045C6.57643 26.802 6.77743 27.1906 6.99643 27.5761V27.5972C7.15543 27.8743 7.32342 28.1423 7.49742 28.4043C7.56342 28.5037 7.63542 28.6001 7.70442 28.7055C7.81242 28.8591 7.91742 29.0067 8.02842 29.1603C8.13942 29.3139 8.22642 29.4103 8.32842 29.5338C8.43041 29.6573 8.50541 29.7597 8.59841 29.8681C8.69141 29.9765 8.84141 30.1392 8.96441 30.2717L9.03941 30.35L9.19841 30.5217C9.33941 30.6663 9.49841 30.8229 9.6274 30.9494L9.7534 31.0699L9.8194 31.1301C9.9814 31.2807 10.1464 31.4313 10.3144 31.5668L10.4374 31.6692L10.4644 31.6903C10.6474 31.8409 10.8334 31.9915 11.0254 32.13C11.0323 32.1314 11.0395 32.1314 11.0464 32.13L11.1214 32.1842C11.3284 32.3379 11.5384 32.4854 11.7544 32.627L11.8084 32.6601C11.9794 32.7716 12.1504 32.883 12.3244 32.9854C12.6244 33.1571 12.9034 33.3167 13.2034 33.4673C13.2634 33.5004 13.3294 33.5245 13.3924 33.5577C13.6294 33.6721 13.8694 33.7866 14.1124 33.892L14.2294 33.9372H14.2684C14.5264 34.0456 14.7874 34.148 15.0514 34.2383L15.0994 34.2564H15.1564C15.4384 34.3528 15.7233 34.4432 16.0083 34.5215H16.0293H16.0983C16.3983 34.6058 16.7223 34.6811 17.0373 34.7443C17.4303 34.8257 17.8263 34.8859 18.2373 34.9341L18.4083 34.9552H18.4443H18.5313H18.7023C18.9483 34.9763 19.1973 34.9913 19.4433 35.0004H19.5573C19.6413 35.0004 19.7253 35.0004 19.8123 35.0004C19.8993 35.0004 19.9743 35.0004 20.0553 35.0004H20.1093C20.3703 35.0004 20.6313 35.0004 20.8893 34.9763L21.1713 34.9552C21.3723 34.9552 21.5763 34.919 21.7713 34.8979L22.0443 34.8648C22.2993 34.8287 22.5543 34.7895 22.8063 34.7413H22.8813H22.9353C23.2353 34.6841 23.5353 34.6148 23.8353 34.5365L23.9673 34.4974C24.2343 34.4251 24.5013 34.3468 24.7623 34.2594C24.8763 34.2233 24.9873 34.1781 25.0983 34.1359C25.2963 34.0667 25.4943 33.9944 25.6983 33.9161C25.9023 33.8378 26.0973 33.7384 26.2983 33.648C26.4063 33.5998 26.5143 33.5547 26.6193 33.5035C26.9192 33.3529 27.2192 33.2023 27.5192 33.0185L27.6722 32.9252C28.0352 32.7083 28.3802 32.4764 28.7162 32.2355H28.7402L28.8302 32.1722C29.1302 31.9433 29.4302 31.7054 29.7302 31.4554L29.8652 31.3409C30.1552 31.0859 30.4342 30.8209 30.7022 30.5458L30.7982 30.5127C31.0742 30.2115 31.3382 29.9284 31.5872 29.6091L31.6322 29.5549C32.6904 28.2447 33.5238 26.7667 34.0982 25.1816H5.89844Z" fill="#E10E00"/>
<path d="M34.0997 25.1438C34.6788 23.535 34.9831 21.8396 34.9997 20.1291C35.0103 18.3708 34.7128 16.6245 34.1207 14.9697H5.89999C5.30574 16.6203 5.00123 18.3619 5 20.117V20.117C5.00669 21.8215 5.30294 23.5123 5.87599 25.1167L34.0997 25.1438Z" fill="url(#paint1_linear_259_1103)"/>
<path fill-rule="evenodd" clip-rule="evenodd" d="M34.1192 14.9723C33.8191 14.1259 33.4435 13.3084 32.9972 12.5297C32.8382 12.2526 32.6702 11.9845 32.4932 11.7225C32.4272 11.6201 32.3582 11.5237 32.2892 11.4213C32.1782 11.2647 32.0702 11.1201 31.9562 10.9575C31.8422 10.7948 31.7672 10.7165 31.6562 10.5961C31.5452 10.4756 31.4702 10.3642 31.3742 10.2527C31.2782 10.1413 31.1282 9.97261 31.0022 9.83707L30.7772 9.59612C30.6302 9.44553 30.4772 9.29493 30.3332 9.1594L30.1442 8.97869C29.9782 8.82809 29.8102 8.68051 29.6402 8.53594L29.5022 8.42149C29.3132 8.26788 29.1212 8.1203 28.9262 7.97272L28.8212 7.89742C28.6472 7.77093 28.4732 7.64744 28.2962 7.52696C28.1192 7.40649 27.8792 7.24084 27.6572 7.10831C27.5822 7.06313 27.5012 7.02398 27.4262 6.9788C27.2402 6.8764 27.0542 6.76797 26.8652 6.67761L26.6763 6.58425L26.3913 6.45172C26.2593 6.38847 26.1303 6.32523 25.9953 6.268H25.9743L25.8273 6.20174L25.6983 6.1415C25.4493 6.0391 25.1943 5.93971 24.9393 5.84031L24.8763 5.81923C24.6003 5.72586 24.3243 5.63852 24.0423 5.56021L23.9433 5.53611C23.3539 5.37577 22.7559 5.24906 22.1523 5.15662C21.5053 5.06221 20.853 5.0099 20.1993 5C20.1423 5 20.0853 5 20.0313 5H19.9983C19.6983 5 19.4253 5 19.1403 5.0241L18.9213 5.03915C18.6873 5.05321 18.4533 5.07429 18.2193 5.1024L18.0213 5.1265C17.7663 5.15963 17.5143 5.19878 17.2623 5.24697L17.1393 5.26505H17.1213L16.9053 5.31324C16.7313 5.34938 16.5603 5.38853 16.3893 5.4307C16.3263 5.44576 16.2603 5.45781 16.1973 5.47588L16.0923 5.506H16.0683C15.8163 5.57527 15.5644 5.64755 15.3154 5.72887C15.2959 5.73668 15.2758 5.74273 15.2554 5.74695H15.2344L15.1864 5.76502L15.0394 5.81923C14.8084 5.90055 14.5774 5.98488 14.3464 6.07825H14.3104L13.9294 6.24692C13.7644 6.32221 13.5994 6.38847 13.4374 6.4698C13.1374 6.62039 12.8374 6.77098 12.5374 6.95471L12.3874 7.04808L12.3574 7.06615C12.1024 7.21975 11.8594 7.38842 11.6134 7.55708C11.3674 7.72575 11.1154 7.90947 10.8754 8.09621C10.6984 8.23174 10.5214 8.36728 10.3504 8.51185L10.1584 8.67449C9.8824 8.91845 9.6184 9.17145 9.36341 9.43047L9.21041 9.58709C8.94641 9.86719 8.69141 10.1533 8.45141 10.4515L8.39142 10.5238C7.31671 11.855 6.47384 13.359 5.89844 14.9723H34.1192Z" fill="white"/>
<path d="M40 18L45 23L50 18" stroke="#ED1847" stroke-width="2"/>
<defs>
<linearGradient id="paint0_linear_259_1103" x1="2.28571" y1="2.47619" x2="36.3376" y2="52.087" gradientUnits="userSpaceOnUse">
<stop stop-color="#EEF0F5"/>
<stop offset="1" stop-color="#E6E9EF"/>
</linearGradient>
<linearGradient id="paint1_linear_259_1103" x1="-1.98394" y1="15.3643" x2="42.3948" y2="24.7621" gradientUnits="userSpaceOnUse">
<stop stop-color="#0B4EAB"/>
<stop offset="1" stop-color="#0B4EAB"/>
</linearGradient>
</defs>
</svg>
