<svg width="1897" height="104" viewBox="0 0 1897 104" fill="none" xmlns="http://www.w3.org/2000/svg">
<path d="M286.83 59.77C286.252 59.7715 285.674 59.8082 285.1 59.88C283.56 39.13 273.04 23.07 260.28 23.07C254.28 23.07 248.78 26.62 244.47 32.55C242.47 14.39 235.28 1 226.77 1C218.49 1 211.49 13.68 209.24 31.06C206.69 27.87 203.76 26.13 200.69 26.13C191.59 26.13 184.06 41.42 182.69 61.44C180.518 60.3471 178.121 59.7754 175.69 59.77C161.87 59.77 150.69 78.59 150.69 101.82C150.69 101.95 150.69 102.07 150.69 102.19H311.85V101.87C311.85 78.59 300.69 59.77 286.83 59.77Z" fill="#212833" fill-opacity="0.1" stroke="#F4F6F8" stroke-opacity="0.2" stroke-miterlimit="10"/>
<path d="M176.09 102.19C176.09 102.11 176.09 102.02 176.09 101.93C176.09 86.0201 163.93 73.1301 148.91 73.1301C148.28 73.1301 147.65 73.1301 147.03 73.2101C145.36 59.0001 133.93 48.0001 120.03 48.0001C113.705 48.0062 107.599 50.313 102.85 54.4901C100.69 42.0601 92.9 32.8701 83.69 32.8701C74.69 32.8701 67.09 41.5501 64.69 53.4601C62.0529 51.3075 58.7639 50.1124 55.36 50.0701C45.47 50.0701 37.28 60.5401 35.76 74.2601C33.3059 73.4961 30.7503 73.1083 28.18 73.1101C13.18 73.1101 1 86.0001 1 101.91C1 102 1 102.09 1 102.17L176.09 102.19Z" fill="#212833" fill-opacity="0.1" stroke="#F4F6F8" stroke-opacity="0.2" stroke-miterlimit="10"/>
<path d="M37.3399 62.8696C34.5899 50.3296 32.8499 39.5996 27.3399 39.5996C21.8299 39.5996 20.7799 50.5496 17.3099 62.8696C14.1399 74.1896 20.1299 83.7296 25.3899 85.7296V102.15H29.2699V85.8696C34.4799 84.2396 40.2799 76.3296 37.3399 62.8696Z" fill="#212833" fill-opacity="0.1" stroke="#F4F6F8" stroke-opacity="0.2" stroke-miterlimit="10"/>
<path d="M341.35 74.0097C341.016 74.0132 340.682 74.0366 340.35 74.0797C339.45 60.2997 333.35 49.6397 325.86 49.6397C322.36 49.6397 319.14 51.9897 316.63 55.9197C315.44 43.9197 311.26 34.9697 306.29 34.9697C301.32 34.9697 297.38 43.3997 296.06 54.9697C294.57 52.8797 292.86 51.6897 291.06 51.6897C285.74 51.6897 281.34 61.8497 280.52 75.1497C279.28 74.4387 277.879 74.0566 276.45 74.0397C268.39 74.0397 261.85 86.5497 261.85 101.97V102.22H355.97V101.97C355.95 86.5197 349.42 74.0097 341.35 74.0097Z" fill="#212833" fill-opacity="0.1" stroke="#F4F6F8" stroke-opacity="0.2" stroke-miterlimit="10"/>
<path d="M569.87 71.1296C569.512 71.1364 569.155 71.1631 568.8 71.2096C567.8 56.0196 561.31 44.2596 553.39 44.2596C549.66 44.2596 546.24 46.8596 543.57 51.1996C542.3 37.9196 537.86 28.0996 532.57 28.0996C527.28 28.0996 523.09 37.3896 521.69 50.0996C520.1 47.7896 518.28 46.4796 516.36 46.4796C510.71 46.4796 506.02 57.6796 505.15 72.3296C503.84 71.5473 502.346 71.1263 500.82 71.1096C492.24 71.1096 485.28 84.8896 485.28 101.9C485.28 101.99 485.28 102.08 485.28 102.17H585.41V101.9C585.41 84.8696 578.46 71.1296 569.87 71.1296Z" fill="#212833" fill-opacity="0.1" stroke="#F4F6F8" stroke-opacity="0.2" stroke-miterlimit="10"/>
<path d="M653.31 76.9903C652.9 76.9903 652.49 76.9903 652.09 77.0603C651.01 64.7303 643.61 55.1903 634.64 55.1903C630.41 55.1903 626.55 57.3003 623.52 60.8203C622.09 50.0403 617.06 42.0703 611.07 42.0703C605.25 42.0703 600.32 49.6103 598.75 59.9403C598.002 59.069 597.084 58.3591 596.052 57.8537C595.021 57.3483 593.897 57.0579 592.75 57.0003C586.35 57.0003 581.04 66.0903 580.06 78.0003C578.506 77.3434 576.837 77.0035 575.15 77.0003C565.43 77.0003 557.56 88.1803 557.56 102V102.22H670.9V102C670.9 88.1703 663.03 76.9903 653.31 76.9903Z" fill="#212833" fill-opacity="0.1" stroke="#F4F6F8" stroke-opacity="0.2" stroke-miterlimit="10"/>
<path d="M483.91 83.2295C483.36 83.2295 482.81 83.2295 482.26 83.2295C480.79 74.0095 470.75 66.8695 458.57 66.8695C453.24 66.8144 448.005 68.2819 443.48 71.0995C441.55 62.9995 412.01 62.6695 409.87 70.4395C407.377 68.9974 404.55 68.2353 401.67 68.2295C392.99 68.2295 385.79 75.0595 384.45 84.0095C382.265 83.5116 380.031 83.26 377.79 83.2595C364.61 83.2595 353.92 91.6695 353.92 102.05C353.92 102.11 353.92 102.16 353.92 102.22H507.79V102.05C507.79 91.6395 497.1 83.2295 483.91 83.2295Z" fill="#212833" fill-opacity="0.1" stroke="#F4F6F8" stroke-opacity="0.2" stroke-miterlimit="10"/>
<path d="M358.2 11.7002H364.69L353.94 5.7002L343.18 11.7002H349.65C349.099 12.1442 348.652 12.704 348.34 13.3399C348.029 13.9758 347.862 14.6724 347.85 15.3802C347.85 17.9502 350.04 20.0602 352.91 20.4802V102.19H354.96V20.4802C357.83 20.0602 360.02 17.9502 360.02 15.3802C360.006 14.6708 359.835 13.9732 359.52 13.3372C359.206 12.7012 358.755 12.1422 358.2 11.7002Z" fill="#212833" fill-opacity="0.1" stroke="#F4F6F8" stroke-opacity="0.2" stroke-width="0.75" stroke-miterlimit="10"/>
<path d="M252.27 94.0502L248.57 88.3002H239.88V84.1502H243.94V75.2402H195.99V84.1502H199.99V88.3002H191.31L187.69 94.0502H189.93V102.19H191.51V94.0502H196.65V101.69H198.24V94.0502H241.69V101.69H243.27V94.0502H248.42V102.19H250V94.0502H252.27ZM201.63 84.1502H238.3V88.3002H201.63V84.1502Z" fill="#212833" fill-opacity="0.1" stroke="#F4F6F8" stroke-opacity="0.2" stroke-width="0.75" stroke-miterlimit="10"/>
<path d="M566.77 94.0502L563.06 88.3002H554.38V84.1502H558.38V75.2402H510.38V84.1502H514.44V88.3002H505.75L502.05 94.0502H504.28V102.19H505.86V94.0502H511.01V101.69H512.69V94.0502H556.22V101.69H557.81V94.0502H562.95V102.19H564.53V94.0502H566.77ZM516.12 84.1502H552.79V88.3002H516.12V84.1502Z" fill="#212833" fill-opacity="0.1" stroke="#F4F6F8" stroke-opacity="0.2" stroke-width="0.75" stroke-miterlimit="10"/>
<path d="M787.69 72.0796C787.185 72.0797 786.681 72.1098 786.18 72.1697C784.83 57.4397 775.69 46.0396 764.6 46.0396C759.38 46.0396 754.6 48.5597 750.85 52.7696C749.1 39.8896 742.85 30.3896 735.48 30.3896C728.27 30.3896 722.2 39.3896 720.24 51.7196C719.296 50.6638 718.149 49.8088 716.867 49.2058C715.585 48.6027 714.195 48.264 712.78 48.2096C704.87 48.2096 698.32 59.0696 697.1 73.2696C695.175 72.489 693.118 72.085 691.04 72.0796C679.04 72.0796 669.31 85.4396 669.31 101.92V102.19H809.4C809.4 102.1 809.4 102.01 809.4 101.92C809.41 85.4396 799.69 72.0796 787.69 72.0796Z" fill="#212833" fill-opacity="0.1" stroke="#F4F6F8" stroke-opacity="0.2" stroke-miterlimit="10"/>
<path d="M1094.89 72.0796C1093.03 72.0873 1091.2 72.4931 1089.51 73.2696C1088.42 59.0696 1082.61 48.2096 1075.59 48.2096C1073.2 48.2096 1070.94 49.4796 1068.96 51.7196C1067.23 39.3796 1061.83 30.3896 1055.44 30.3896C1048.87 30.3896 1043.34 39.8896 1041.79 52.7696C1038.46 48.5597 1034.21 46.0396 1029.58 46.0396C1019.74 46.0396 1011.58 57.4397 1010.44 72.1697C1010 72.1095 1009.55 72.0794 1009.1 72.0796C998.43 72.0796 989.79 85.4396 989.79 101.92C989.79 102.01 989.79 102.1 989.79 102.19H1114.19V101.92C1114.19 85.4396 1105.55 72.0796 1094.89 72.0796Z" fill="#212833" fill-opacity="0.1" stroke="#F4F6F8" stroke-opacity="0.2" stroke-miterlimit="10"/>
<path d="M912.62 73.3C912.189 73.3018 911.758 73.3285 911.33 73.38C910.19 59.24 902.33 48.31 892.85 48.31C888.38 48.31 884.27 50.73 881.07 54.76C879.56 42.41 874.23 33.29 867.88 33.29C861.71 33.29 856.51 41.91 854.83 53.75C852.93 51.61 850.75 50.39 848.44 50.39C841.65 50.39 836.04 60.81 834.99 74.39C833.359 73.6523 831.59 73.2673 829.8 73.26C819.5 73.26 811.17 86.08 811.17 101.89V102.15H931.25C931.25 102.06 931.25 101.98 931.25 101.89C931.26 86.12 922.92 73.3 912.62 73.3Z" fill="#212833" fill-opacity="0.1" stroke="#F4F6F8" stroke-opacity="0.2" stroke-miterlimit="10"/>
<path d="M982.61 67.1403C979.94 67.1403 977.46 69.1403 975.39 72.6003C973.69 56.4303 969.6 45.0303 964.83 45.0303C961.22 45.0303 958 51.5403 955.91 61.6903C953.82 58.1503 951.3 56.0903 948.59 56.0903C942.87 56.0903 938.01 65.3103 936.19 78.1903C934.45 76.0303 932.48 74.8103 930.41 74.8103C923.93 74.8103 918.55 86.6303 917.41 102.19H995.72C995.72 101.57 995.72 100.97 995.72 100.35C995.77 82.0103 989.88 67.1403 982.61 67.1403Z" fill="#212833" fill-opacity="0.1" stroke="#F4F6F8" stroke-opacity="0.2" stroke-miterlimit="10"/>
<path d="M995.87 102.19H998.91V85.7998H997.43H995.87V102.19Z" fill="#212833" fill-opacity="0.1" stroke="#F4F6F8" stroke-opacity="0.2" stroke-miterlimit="10"/>
<path d="M1007.81 61.6998C1004.95 48.6998 1003.17 37.5898 997.44 37.5898C991.71 37.5898 990.69 48.8698 987.06 61.6998C983.36 74.9098 991.7 85.7998 997.44 85.7998C1003.18 85.7998 1011.25 77.3598 1007.81 61.6998Z" fill="#212833" fill-opacity="0.1" stroke="#F4F6F8" stroke-opacity="0.2" stroke-miterlimit="10"/>
<path d="M972.05 11.7002H978.52L967.76 5.7002L957 11.7002H963.47C962.919 12.1442 962.472 12.704 962.161 13.3399C961.849 13.9758 961.682 14.6724 961.67 15.3802C961.67 17.9502 963.86 20.0602 966.73 20.4802V102.19H968.79V20.4802C971.66 20.0602 973.85 17.9502 973.85 15.3802C973.838 14.6724 973.671 13.9758 973.359 13.3399C973.048 12.704 972.601 12.1442 972.05 11.7002Z" fill="#212833" fill-opacity="0.1" stroke="#F4F6F8" stroke-opacity="0.2" stroke-width="0.75" stroke-miterlimit="10"/>
<path d="M1086.77 94.0502L1083.07 88.3002H1074.38V84.1502H1078.44V75.2402H1030.44V84.1502H1034.44V88.3002H1025.76L1022.05 94.0502H1024.29V102.19H1025.87V94.0502H1031.01V101.69H1032.69V94.0502H1076.23V101.69H1077.81V94.0502H1082.95V102.19H1084.54V94.0502H1086.77ZM1036.13 84.1502H1072.8V88.3002H1036.13V84.1502Z" fill="#212833" fill-opacity="0.1" stroke="#F4F6F8" stroke-opacity="0.2" stroke-width="0.75" stroke-miterlimit="10"/>
<path d="M161.83 40.03C162.126 38.7546 162.274 37.4492 162.27 36.14C162.27 28.65 157.46 22.58 151.52 22.58C149.315 22.5948 147.187 23.3962 145.52 24.84C145.52 24.57 145.52 24.31 145.52 24.03C145.52 16.54 140.7 10.46 134.76 10.46C128.82 10.46 124 16.54 124 24.03C124 24.31 124 24.57 124 24.84C122.332 23.3977 120.205 22.5965 118 22.58C112.06 22.58 107.24 28.65 107.24 36.14C107.24 37.4496 107.391 38.755 107.69 40.03C104.41 42.34 102.19 46.78 102.19 51.86C102.19 59.35 107 65.43 112.95 65.43C113.335 65.4285 113.719 65.4018 114.1 65.35C115.87 69.78 119.5 72.83 123.71 72.83C125.291 72.8018 126.842 72.3926 128.231 71.637C129.621 70.8815 130.807 69.8019 131.69 68.49V102.19H137.93V68.5C138.8 69.8033 139.97 70.8798 141.34 71.6399C142.711 72.4 144.243 72.8218 145.81 72.87C150.02 72.87 153.64 69.87 155.41 65.39C155.794 65.4418 156.182 65.4685 156.57 65.47C162.51 65.47 167.33 59.39 167.33 51.9C167.33 46.78 165.11 42.34 161.83 40.03Z" fill="#212833" fill-opacity="0.1" stroke="#F4F6F8" stroke-opacity="0.2" stroke-miterlimit="10"/>
<path d="M724.74 48.0403C724.996 46.9319 725.123 45.7978 725.12 44.6603C725.12 38.1303 720.93 32.8403 715.76 32.8403C713.848 32.87 712.008 33.5789 710.57 34.8403C710.57 34.6103 710.57 34.3803 710.57 34.1403C710.57 27.6203 706.37 22.3203 701.2 22.3203C696.03 22.3203 691.83 27.6203 691.83 34.1403C691.83 34.3803 691.83 34.6103 691.83 34.8403C690.404 33.5963 688.582 32.8983 686.69 32.8703C681.51 32.8703 677.31 38.1603 677.31 44.6903C677.31 45.8282 677.441 46.9623 677.7 48.0703C676.15 49.2932 674.908 50.8635 674.076 52.6544C673.244 54.4453 672.845 56.4067 672.91 58.3803C672.91 64.9003 677.1 70.2003 682.29 70.2003C682.624 70.1977 682.958 70.1743 683.29 70.1303C684.84 73.9903 688 76.6503 691.67 76.6503C693.028 76.6076 694.357 76.2426 695.546 75.5854C696.735 74.9281 697.751 73.9975 698.51 72.8703V102.23H703.94V72.8703C704.698 73.9987 705.713 74.9301 706.903 75.5875C708.092 76.2449 709.422 76.6092 710.78 76.6503C714.45 76.6503 717.61 73.9903 719.15 70.1303C719.482 70.1735 719.816 70.1969 720.15 70.2003C725.32 70.2003 729.52 64.9003 729.52 58.3803C729.591 56.4025 729.196 54.4357 728.365 52.6393C727.535 50.8429 726.293 49.2673 724.74 48.0403Z" fill="#212833" fill-opacity="0.1" stroke="#F4F6F8" stroke-opacity="0.2" stroke-miterlimit="10"/>
<path d="M663.21 34.65C663.538 33.2674 663.703 31.851 663.7 30.43C663.7 22.29 658.47 15.69 652.01 15.69C649.629 15.7137 647.335 16.586 645.54 18.15C645.54 17.87 645.54 17.57 645.54 17.27C645.54 9.14004 640.31 2.54004 633.86 2.54004C627.41 2.54004 622.16 9.14004 622.16 17.27C622.16 17.57 622.16 17.87 622.16 18.15C620.365 16.586 618.071 15.7137 615.69 15.69C609.24 15.69 604 22.29 604 30.43C604.002 31.8508 604.167 33.2666 604.49 34.65C600.93 37.17 598.49 41.99 598.49 47.51C598.49 55.65 603.72 62.26 610.19 62.26C610.605 62.2553 611.019 62.2253 611.43 62.17C613.36 66.99 617.3 70.3 621.87 70.3C623.566 70.2459 625.224 69.7897 626.709 68.9691C628.193 68.1485 629.462 66.9869 630.41 65.58V102.19H637.19V65.59C638.138 66.9956 639.407 68.1557 640.892 68.9746C642.377 69.7935 644.035 70.2478 645.73 70.3C650.3 70.3 654.24 66.99 656.17 62.17C656.584 62.2252 657.002 62.2553 657.42 62.26C663.88 62.26 669.11 55.65 669.11 47.51C669.19 41.99 666.78 37.17 663.21 34.65Z" fill="#212833" fill-opacity="0.1" stroke="#F4F6F8" stroke-opacity="0.2" stroke-miterlimit="10"/>
<path d="M923.09 59.2102H923.14L846.84 17.7002L770.54 59.2102H792.54V102.16H796.71V59.2102H818.43V99.8902H822.61V59.2102H871.06V99.8902H875.25V59.2102H875.96L875.98 59.2402H896.97V102.16H901.15V59.2402H923.14L923.09 59.2102Z" fill="#212833" fill-opacity="0.1" stroke="#F4F6F8" stroke-opacity="0.2" stroke-miterlimit="10"/>
<path d="M1400.1 59.77C1399.52 59.7711 1398.94 59.8079 1398.36 59.88C1396.83 39.13 1386.36 23.07 1373.55 23.07C1367.55 23.07 1362.05 26.62 1357.73 32.55C1355.73 14.39 1348.55 1 1340.04 1C1331.75 1 1324.76 13.68 1322.51 31.06C1319.95 27.91 1317.02 26.13 1313.92 26.13C1304.82 26.13 1297.28 41.42 1295.92 61.44C1293.75 60.3471 1291.35 59.7754 1288.92 59.77C1275.11 59.77 1263.92 78.59 1263.92 101.82V102.19H1425.14C1425.14 102.07 1425.14 101.95 1425.14 101.82C1425.12 78.59 1413.92 59.77 1400.1 59.77Z" fill="#212833" fill-opacity="0.1" stroke="#F4F6F8" stroke-opacity="0.2" stroke-miterlimit="10"/>
<path d="M1513.57 59.77C1513.07 59.7718 1512.57 59.8086 1512.08 59.88C1510.77 39.13 1501.69 23.07 1490.69 23.07C1485.51 23.07 1480.69 26.62 1477.03 32.55C1475.28 14.39 1469.1 1 1461.75 1C1454.59 1 1448.56 13.68 1446.62 31.06C1444.41 27.91 1441.88 26.13 1439.2 26.13C1431.34 26.13 1424.83 41.42 1423.61 61.43C1421.79 60.3615 1419.72 59.7892 1417.61 59.77C1405.67 59.77 1396.01 78.59 1396.01 101.82V102.19H1535.21V101.87C1535.17 78.59 1525.51 59.77 1513.57 59.77Z" fill="#212833" fill-opacity="0.1" stroke="#F4F6F8" stroke-opacity="0.2" stroke-miterlimit="10"/>
<path d="M1575.69 52.7996C1571.52 52.7996 1567.69 55.6196 1564.39 60.4796C1561.73 37.7196 1555.39 21.6396 1547.87 21.6396C1542.22 21.6396 1537.19 30.8096 1533.93 45.1196C1530.65 40.1196 1526.71 37.2196 1522.48 37.2196C1513.48 37.2196 1505.9 50.2196 1503.07 68.3696C1500.34 65.3696 1497.27 63.6096 1494.02 63.6096C1483.89 63.6096 1475.48 80.2697 1473.77 102.19H1596.29C1596.29 101.33 1596.29 100.48 1596.29 99.5997C1596.3 73.7497 1587.08 52.7996 1575.69 52.7996Z" fill="#212833" fill-opacity="0.1" stroke="#F4F6F8" stroke-opacity="0.2" stroke-miterlimit="10"/>
<path d="M1303.77 73.1297C1303.48 73.1365 1303.19 73.1632 1302.91 73.2096C1302.15 58.9996 1296.91 47.9996 1290.55 47.9996C1287.55 47.9996 1284.82 50.4197 1282.68 54.4897C1281.68 42.0597 1278.1 32.8896 1273.87 32.8896C1269.64 32.8896 1266.26 41.5696 1265.14 53.4796C1263.87 51.3096 1262.42 50.0896 1260.87 50.0896C1256.33 50.0896 1252.58 60.5597 1251.87 74.2696C1250.85 73.5493 1249.64 73.152 1248.4 73.1297C1241.52 73.1297 1235.94 86.0196 1235.94 101.93V102.19H1316.21V101.93C1316.22 86.0196 1310.69 73.1297 1303.77 73.1297Z" fill="#212833" fill-opacity="0.1" stroke="#F4F6F8" stroke-opacity="0.2" stroke-miterlimit="10"/>
<path d="M1697.69 71.1296C1697.26 71.1296 1696.84 71.1296 1696.42 71.2096C1695.31 56.0196 1687.65 44.2596 1678.36 44.2596C1674 44.2596 1669.99 46.8596 1666.86 51.1996C1665.37 37.9196 1660.17 28.0996 1653.96 28.0996C1647.96 28.0996 1642.85 37.3896 1641.23 50.0996C1639.37 47.7896 1637.23 46.4796 1634.98 46.4796C1628.35 46.4796 1622.87 57.6796 1621.85 72.3296C1620.27 71.5369 1618.53 71.1194 1616.77 71.1096C1606.77 71.1096 1598.57 84.8896 1598.57 101.9V102.17H1715.88V101.9C1715.86 84.8696 1707.69 71.1296 1697.69 71.1296Z" fill="#212833" fill-opacity="0.1" stroke="#F4F6F8" stroke-opacity="0.2" stroke-miterlimit="10"/>
<path d="M1766.58 76.9903C1766.17 76.9903 1765.76 76.9903 1765.36 77.0603C1764.28 64.7303 1756.88 55.1903 1747.9 55.1903C1743.68 55.1903 1739.82 57.3003 1736.79 60.8203C1735.36 50.0403 1730.33 42.0703 1724.33 42.0703C1718.51 42.0703 1713.59 49.6103 1712.02 59.9403C1711.27 59.0699 1710.35 58.3606 1709.32 57.8553C1708.29 57.3499 1707.17 57.0591 1706.02 57.0003C1699.63 57.0003 1694.31 66.0903 1693.33 78.0003C1691.78 77.3442 1690.11 77.0042 1688.43 77.0003C1678.71 77.0003 1670.83 88.1803 1670.83 102C1670.83 102.08 1670.83 102.14 1670.83 102.22H1784.2C1784.2 102.14 1784.2 102.08 1784.2 102C1784.17 88.1703 1776.29 76.9903 1766.58 76.9903Z" fill="#212833" fill-opacity="0.1" stroke="#F4F6F8" stroke-opacity="0.2" stroke-miterlimit="10"/>
<path d="M1876.91 47.2896C1871.7 47.2896 1866.91 49.8097 1863.16 54.0196C1861.4 41.1396 1855.16 31.6396 1847.79 31.6396C1840.59 31.6396 1834.51 40.6396 1832.56 52.9696C1831.61 51.9152 1830.46 51.0614 1829.18 50.4585C1827.9 49.8557 1826.51 49.516 1825.09 49.4596C1817.19 49.4596 1810.63 60.3196 1809.41 74.5196C1807.49 73.7381 1805.43 73.3341 1803.35 73.3296C1791.35 73.3296 1781.62 86.6896 1781.62 103.17V103.44H1895.74V62.2696C1891.98 53.3297 1884.97 47.2896 1876.91 47.2896Z" fill="#212833" fill-opacity="0.1" stroke="#F4F6F8" stroke-opacity="0.2" stroke-miterlimit="10"/>
<path d="M1838 48.0403C1838.26 46.9332 1838.39 45.7985 1838.39 44.6603C1838.39 38.1303 1834.2 32.8403 1829.02 32.8403C1827.11 32.8718 1825.27 33.5805 1823.83 34.8403C1823.83 34.6103 1823.83 34.3803 1823.83 34.1403C1823.83 27.6203 1819.63 22.3203 1814.46 22.3203C1809.29 22.3203 1805.08 27.6203 1805.08 34.1403C1805.08 34.3803 1805.08 34.6103 1805.08 34.8403C1803.64 33.5819 1801.81 32.8733 1799.9 32.8403C1794.72 32.8403 1790.52 38.1303 1790.52 44.6603C1790.52 45.7982 1790.65 46.9323 1790.91 48.0403C1789.36 49.2611 1788.11 50.8307 1787.28 52.6219C1786.44 54.4131 1786.04 56.3756 1786.11 58.3503C1786.11 64.8703 1790.31 70.1703 1795.49 70.1703C1795.82 70.1676 1796.16 70.1442 1796.49 70.1003C1798.03 73.9603 1801.2 76.6203 1804.86 76.6203C1806.22 76.5784 1807.55 76.2138 1808.74 75.5565C1809.93 74.8993 1810.95 73.9683 1811.71 72.8403V102.19H1817.14V72.8703C1817.9 73.9983 1818.92 74.9293 1820.11 75.5865C1821.3 76.2438 1822.63 76.6084 1823.99 76.6503C1827.65 76.6503 1830.81 73.9903 1832.36 70.1303C1832.69 70.1735 1833.03 70.1969 1833.36 70.2003C1838.54 70.2003 1842.74 64.9003 1842.74 58.3803C1842.82 56.4056 1842.43 54.4404 1841.61 52.644C1840.78 50.8475 1839.55 49.2704 1838 48.0403Z" fill="#212833" fill-opacity="0.1" stroke="#F4F6F8" stroke-opacity="0.2" stroke-miterlimit="10"/>
<path d="M1776.47 34.65C1776.8 33.2678 1776.97 31.8514 1776.97 30.43C1776.97 22.29 1771.74 15.69 1765.27 15.69C1762.89 15.7189 1760.6 16.5905 1758.8 18.15C1758.8 17.87 1758.8 17.57 1758.8 17.27C1758.8 9.14004 1753.58 2.54004 1747.12 2.54004C1740.66 2.54004 1735.43 9.14004 1735.43 17.27C1735.43 17.57 1735.43 17.87 1735.43 18.15C1733.63 16.586 1731.34 15.7137 1728.96 15.69C1722.51 15.69 1717.27 22.29 1717.27 30.43C1717.27 31.8501 1717.44 33.2653 1717.75 34.65C1714.19 37.17 1711.75 41.99 1711.75 47.51C1711.75 55.65 1716.98 62.26 1723.44 62.26C1723.86 62.2557 1724.28 62.2256 1724.69 62.17C1726.61 66.99 1730.56 70.3 1735.13 70.3C1736.82 70.247 1738.48 69.7924 1739.97 68.9735C1741.45 68.1547 1742.72 66.9951 1743.67 65.59V102.19H1750.45V65.6C1751.4 67.0019 1752.67 68.1587 1754.15 68.9757C1755.63 69.7927 1757.29 70.2466 1758.98 70.3C1763.56 70.3 1767.5 66.99 1769.43 62.17C1769.84 62.226 1770.26 62.256 1770.68 62.26C1777.13 62.26 1782.37 55.65 1782.37 47.51C1782.46 41.99 1780.04 37.17 1776.47 34.65Z" fill="#212833" fill-opacity="0.1" stroke="#F4F6F8" stroke-opacity="0.2" stroke-miterlimit="10"/>
<path d="M1667.85 11.7002H1674.32L1663.56 5.7002L1652.8 11.7002H1659.27C1658.72 12.1447 1658.27 12.7048 1657.96 13.3408C1657.66 13.9768 1657.49 14.673 1657.48 15.3802C1657.48 17.9502 1659.66 20.0602 1662.54 20.4802V102.19H1664.59V20.4802C1667.46 20.0602 1669.65 17.9502 1669.65 15.3802C1669.64 14.6724 1669.47 13.9758 1669.16 13.3399C1668.85 12.704 1668.4 12.1442 1667.85 11.7002Z" fill="#212833" fill-opacity="0.1" stroke="#F4F6F8" stroke-opacity="0.2" stroke-width="0.75" stroke-miterlimit="10"/>
<path d="M1565.7 97.1602H1283.47V99.1502H1565.7V97.1602Z" fill="#212833" fill-opacity="0.1" stroke="#F4F6F8" stroke-opacity="0.2" stroke-width="0.75" stroke-miterlimit="10"/>
<path d="M1565.27 70.6396H1283.47V72.6197H1565.27V70.6396Z" fill="#212833" fill-opacity="0.1" stroke="#F4F6F8" stroke-opacity="0.2" stroke-width="0.75" stroke-miterlimit="10"/>
<path d="M1302.58 70.6396H1301.59V72.6197H1302.58V70.6396Z" fill="#212833" fill-opacity="0.1" stroke="#F4F6F8" stroke-opacity="0.2" stroke-width="0.75" stroke-miterlimit="10"/>
<path d="M1302.58 97.1602H1301.59V99.1502H1302.58V97.1602Z" fill="#212833" fill-opacity="0.1" stroke="#F4F6F8" stroke-opacity="0.2" stroke-width="0.75" stroke-miterlimit="10"/>
<path d="M1313.23 70.6396H1312.24V72.6197H1313.23V70.6396Z" fill="#212833" fill-opacity="0.1" stroke="#F4F6F8" stroke-opacity="0.2" stroke-width="0.75" stroke-miterlimit="10"/>
<path d="M1313.23 97.1602H1312.24V99.1502H1313.23V97.1602Z" fill="#212833" fill-opacity="0.1" stroke="#F4F6F8" stroke-opacity="0.2" stroke-width="0.75" stroke-miterlimit="10"/>
<path d="M1291.92 70.6396H1290.93V72.6197H1291.92V70.6396Z" fill="#212833" fill-opacity="0.1" stroke="#F4F6F8" stroke-opacity="0.2" stroke-width="0.75" stroke-miterlimit="10"/>
<path d="M1291.92 97.1602H1290.93V99.1502H1291.92V97.1602Z" fill="#212833" fill-opacity="0.1" stroke="#F4F6F8" stroke-opacity="0.2" stroke-width="0.75" stroke-miterlimit="10"/>
<path d="M1290.94 68.2299C1290.84 67.4832 1290.49 66.7929 1289.94 66.2742C1289.4 65.7555 1288.69 65.4398 1287.94 65.3799H1285.86C1285.11 65.4469 1284.41 65.765 1283.86 66.2823C1283.32 66.7997 1282.97 67.4861 1282.86 68.2299V102.23H1290.93L1290.94 68.2299Z" fill="#212833" fill-opacity="0.1" stroke="#F4F6F8" stroke-opacity="0.2" stroke-width="0.75" stroke-miterlimit="10"/>
<path d="M1285.59 71.3701C1285.36 71.3701 1285.17 71.4901 1285.17 71.6401C1285.17 71.7901 1285.36 71.9001 1285.59 71.9001C1285.82 71.9001 1286.02 71.7801 1286.02 71.6401C1286.02 71.5001 1285.83 71.3701 1285.59 71.3701Z" fill="#212833" fill-opacity="0.1" stroke="#F4F6F8" stroke-opacity="0.2" stroke-width="0.75" stroke-miterlimit="10"/>
<path d="M1288.21 71.3701C1287.98 71.3701 1287.79 71.4901 1287.79 71.6401C1287.79 71.7901 1287.98 71.9001 1288.21 71.9001C1288.44 71.9001 1288.64 71.7801 1288.64 71.6401C1288.64 71.5001 1288.45 71.3701 1288.21 71.3701Z" fill="#212833" fill-opacity="0.1" stroke="#F4F6F8" stroke-opacity="0.2" stroke-width="0.75" stroke-miterlimit="10"/>
<path d="M1285.59 97.8701C1285.36 97.8701 1285.17 97.9901 1285.17 98.1401C1285.17 98.2901 1285.36 98.4001 1285.59 98.4001C1285.82 98.4001 1286.02 98.2801 1286.02 98.1401C1286.02 98.0001 1285.83 97.8701 1285.59 97.8701Z" fill="#212833" fill-opacity="0.1" stroke="#F4F6F8" stroke-opacity="0.2" stroke-width="0.75" stroke-miterlimit="10"/>
<path d="M1288.21 97.8701C1287.98 97.8701 1287.79 97.9901 1287.79 98.1401C1287.79 98.2901 1287.98 98.4001 1288.21 98.4001C1288.44 98.4001 1288.64 98.2801 1288.64 98.1401C1288.64 98.0001 1288.45 97.8701 1288.21 97.8701Z" fill="#212833" fill-opacity="0.1" stroke="#F4F6F8" stroke-opacity="0.2" stroke-width="0.75" stroke-miterlimit="10"/>
<path d="M1298.62 65.3799H1296.53C1295.78 65.4452 1295.08 65.7626 1294.53 66.2803C1293.99 66.7981 1293.63 67.4854 1293.53 68.2299V102.23H1301.59V68.2299C1301.49 67.4872 1301.15 66.7995 1300.61 66.281C1300.07 65.7625 1299.37 65.4446 1298.62 65.3799Z" fill="#212833" fill-opacity="0.1" stroke="#F4F6F8" stroke-opacity="0.2" stroke-width="0.75" stroke-miterlimit="10"/>
<path d="M1296.25 71.3701C1296.01 71.3701 1295.82 71.4901 1295.82 71.6401C1295.82 71.7901 1296.01 71.9001 1296.25 71.9001C1296.49 71.9001 1296.67 71.7801 1296.67 71.6401C1296.67 71.5001 1296.48 71.3701 1296.25 71.3701Z" fill="#212833" fill-opacity="0.1" stroke="#F4F6F8" stroke-opacity="0.2" stroke-width="0.75" stroke-miterlimit="10"/>
<path d="M1298.87 71.3701C1298.63 71.3701 1298.44 71.4901 1298.44 71.6401C1298.44 71.7901 1298.63 71.9001 1298.87 71.9001C1299.11 71.9001 1299.29 71.7801 1299.29 71.6401C1299.29 71.5001 1299.1 71.3701 1298.87 71.3701Z" fill="#212833" fill-opacity="0.1" stroke="#F4F6F8" stroke-opacity="0.2" stroke-width="0.75" stroke-miterlimit="10"/>
<path d="M1296.25 97.8701C1296.01 97.8701 1295.82 97.9901 1295.82 98.1401C1295.82 98.2901 1296.01 98.4001 1296.25 98.4001C1296.49 98.4001 1296.67 98.2801 1296.67 98.1401C1296.67 98.0001 1296.48 97.8701 1296.25 97.8701Z" fill="#212833" fill-opacity="0.1" stroke="#F4F6F8" stroke-opacity="0.2" stroke-width="0.75" stroke-miterlimit="10"/>
<path d="M1298.87 97.8701C1298.63 97.8701 1298.44 97.9901 1298.44 98.1401C1298.44 98.2901 1298.63 98.4001 1298.87 98.4001C1299.11 98.4001 1299.29 98.2801 1299.29 98.1401C1299.29 98.0001 1299.1 97.8701 1298.87 97.8701Z" fill="#212833" fill-opacity="0.1" stroke="#F4F6F8" stroke-opacity="0.2" stroke-width="0.75" stroke-miterlimit="10"/>
<path d="M1309.28 65.3799H1307.19C1306.44 65.4469 1305.74 65.765 1305.19 66.2823C1304.65 66.7997 1304.3 67.4861 1304.19 68.2299V102.23H1312.26V68.2299C1312.16 67.4856 1311.82 66.7967 1311.27 66.278C1310.73 65.7594 1310.03 65.4424 1309.28 65.3799Z" fill="#212833" fill-opacity="0.1" stroke="#F4F6F8" stroke-opacity="0.2" stroke-width="0.75" stroke-miterlimit="10"/>
<path d="M1306.91 71.3701C1306.67 71.3701 1306.48 71.4901 1306.48 71.6401C1306.48 71.7901 1306.67 71.9001 1306.91 71.9001C1307.15 71.9001 1307.33 71.7801 1307.33 71.6401C1307.33 71.5001 1307.14 71.3701 1306.91 71.3701Z" fill="#212833" fill-opacity="0.1" stroke="#F4F6F8" stroke-opacity="0.2" stroke-width="0.75" stroke-miterlimit="10"/>
<path d="M1309.53 71.3701C1309.29 71.3701 1309.1 71.4901 1309.1 71.6401C1309.1 71.7901 1309.29 71.9001 1309.53 71.9001C1309.77 71.9001 1309.95 71.7801 1309.95 71.6401C1309.95 71.5001 1309.76 71.3701 1309.53 71.3701Z" fill="#212833" fill-opacity="0.1" stroke="#F4F6F8" stroke-opacity="0.2" stroke-width="0.75" stroke-miterlimit="10"/>
<path d="M1306.91 97.8701C1306.67 97.8701 1306.48 97.9901 1306.48 98.1401C1306.48 98.2901 1306.67 98.4001 1306.91 98.4001C1307.15 98.4001 1307.33 98.2801 1307.33 98.1401C1307.33 98.0001 1307.14 97.8701 1306.91 97.8701Z" fill="#212833" fill-opacity="0.1" stroke="#F4F6F8" stroke-opacity="0.2" stroke-width="0.75" stroke-miterlimit="10"/>
<path d="M1309.53 97.8701C1309.29 97.8701 1309.1 97.9901 1309.1 98.1401C1309.1 98.2901 1309.29 98.4001 1309.53 98.4001C1309.77 98.4001 1309.95 98.2801 1309.95 98.1401C1309.95 98.0001 1309.76 97.8701 1309.53 97.8701Z" fill="#212833" fill-opacity="0.1" stroke="#F4F6F8" stroke-opacity="0.2" stroke-width="0.75" stroke-miterlimit="10"/>
<path d="M1319.93 65.3799H1317.85C1317.1 65.4452 1316.4 65.7626 1315.85 66.2803C1315.31 66.7981 1314.95 67.4854 1314.85 68.2299V102.23H1322.91V68.2299C1322.81 67.4856 1322.47 66.7967 1321.92 66.278C1321.38 65.7594 1320.68 65.4424 1319.93 65.3799Z" fill="#212833" fill-opacity="0.1" stroke="#F4F6F8" stroke-opacity="0.2" stroke-width="0.75" stroke-miterlimit="10"/>
<path d="M1317.56 71.3701C1317.33 71.3701 1317.14 71.4901 1317.14 71.6401C1317.14 71.7901 1317.33 71.9001 1317.56 71.9001C1317.79 71.9001 1317.99 71.7801 1317.99 71.6401C1317.99 71.5001 1317.8 71.3701 1317.56 71.3701Z" fill="#212833" fill-opacity="0.1" stroke="#F4F6F8" stroke-opacity="0.2" stroke-width="0.75" stroke-miterlimit="10"/>
<path d="M1320.18 71.3701C1319.95 71.3701 1319.76 71.4901 1319.76 71.6401C1319.76 71.7901 1319.95 71.9001 1320.18 71.9001C1320.41 71.9001 1320.6 71.7801 1320.6 71.6401C1320.6 71.5001 1320.41 71.3701 1320.18 71.3701Z" fill="#212833" fill-opacity="0.1" stroke="#F4F6F8" stroke-opacity="0.2" stroke-width="0.75" stroke-miterlimit="10"/>
<path d="M1317.56 97.8701C1317.33 97.8701 1317.14 97.9901 1317.14 98.1401C1317.14 98.2901 1317.33 98.4001 1317.56 98.4001C1317.79 98.4001 1317.99 98.2801 1317.99 98.1401C1317.99 98.0001 1317.8 97.8701 1317.56 97.8701Z" fill="#212833" fill-opacity="0.1" stroke="#F4F6F8" stroke-opacity="0.2" stroke-width="0.75" stroke-miterlimit="10"/>
<path d="M1320.18 97.8701C1319.95 97.8701 1319.76 97.9901 1319.76 98.1401C1319.76 98.2901 1319.95 98.4001 1320.18 98.4001C1320.41 98.4001 1320.6 98.2801 1320.6 98.1401C1320.6 98.0001 1320.41 97.8701 1320.18 97.8701Z" fill="#212833" fill-opacity="0.1" stroke="#F4F6F8" stroke-opacity="0.2" stroke-width="0.75" stroke-miterlimit="10"/>
<path d="M1330.59 65.3799H1328.5C1327.75 65.4469 1327.05 65.765 1326.5 66.2823C1325.96 66.7997 1325.61 67.4861 1325.5 68.2299V102.23H1333.57V68.2299C1333.47 67.4856 1333.13 66.7967 1332.58 66.278C1332.04 65.7594 1331.34 65.4424 1330.59 65.3799Z" fill="#212833" fill-opacity="0.1" stroke="#F4F6F8" stroke-opacity="0.2" stroke-width="0.75" stroke-miterlimit="10"/>
<path d="M1328.22 71.3701C1327.98 71.3701 1327.79 71.4901 1327.79 71.6401C1327.79 71.7901 1327.98 71.9001 1328.22 71.9001C1328.46 71.9001 1328.64 71.7801 1328.64 71.6401C1328.64 71.5001 1328.45 71.3701 1328.22 71.3701Z" fill="#212833" fill-opacity="0.1" stroke="#F4F6F8" stroke-opacity="0.2" stroke-width="0.75" stroke-miterlimit="10"/>
<path d="M1330.83 71.3701C1330.6 71.3701 1330.41 71.4901 1330.41 71.6401C1330.41 71.7901 1330.6 71.9001 1330.83 71.9001C1331.06 71.9001 1331.26 71.7801 1331.26 71.6401C1331.26 71.5001 1331.07 71.3701 1330.83 71.3701Z" fill="#212833" fill-opacity="0.1" stroke="#F4F6F8" stroke-opacity="0.2" stroke-width="0.75" stroke-miterlimit="10"/>
<path d="M1328.22 97.8701C1327.98 97.8701 1327.79 97.9901 1327.79 98.1401C1327.79 98.2901 1327.98 98.4001 1328.22 98.4001C1328.46 98.4001 1328.64 98.2801 1328.64 98.1401C1328.64 98.0001 1328.45 97.8701 1328.22 97.8701Z" fill="#212833" fill-opacity="0.1" stroke="#F4F6F8" stroke-opacity="0.2" stroke-width="0.75" stroke-miterlimit="10"/>
<path d="M1330.83 97.8701C1330.6 97.8701 1330.41 97.9901 1330.41 98.1401C1330.41 98.2901 1330.6 98.4001 1330.83 98.4001C1331.06 98.4001 1331.26 98.2801 1331.26 98.1401C1331.26 98.0001 1331.07 97.8701 1330.83 97.8701Z" fill="#212833" fill-opacity="0.1" stroke="#F4F6F8" stroke-opacity="0.2" stroke-width="0.75" stroke-miterlimit="10"/>
<path d="M1341.24 65.3799H1339.16C1338.41 65.4469 1337.71 65.765 1337.16 66.2823C1336.62 66.7997 1336.27 67.4861 1336.16 68.2299V102.23H1344.22V68.2299C1344.13 67.4849 1343.78 66.795 1343.24 66.276C1342.69 65.757 1341.99 65.4406 1341.24 65.3799Z" fill="#212833" fill-opacity="0.1" stroke="#F4F6F8" stroke-opacity="0.2" stroke-width="0.75" stroke-miterlimit="10"/>
<path d="M1338.87 71.3701C1338.64 71.3701 1338.45 71.4901 1338.45 71.6401C1338.45 71.7901 1338.64 71.9001 1338.87 71.9001C1339.1 71.9001 1339.3 71.7801 1339.3 71.6401C1339.3 71.5001 1339.11 71.3701 1338.87 71.3701Z" fill="#212833" fill-opacity="0.1" stroke="#F4F6F8" stroke-opacity="0.2" stroke-width="0.75" stroke-miterlimit="10"/>
<path d="M1341.49 71.3701C1341.26 71.3701 1341.07 71.4901 1341.07 71.6401C1341.07 71.7901 1341.26 71.9001 1341.49 71.9001C1341.72 71.9001 1341.91 71.7801 1341.91 71.6401C1341.91 71.5001 1341.69 71.3701 1341.49 71.3701Z" fill="#212833" fill-opacity="0.1" stroke="#F4F6F8" stroke-opacity="0.2" stroke-width="0.75" stroke-miterlimit="10"/>
<path d="M1338.87 97.8701C1338.64 97.8701 1338.45 97.9901 1338.45 98.1401C1338.45 98.2901 1338.64 98.4001 1338.87 98.4001C1339.1 98.4001 1339.3 98.2801 1339.3 98.1401C1339.3 98.0001 1339.11 97.8701 1338.87 97.8701Z" fill="#212833" fill-opacity="0.1" stroke="#F4F6F8" stroke-opacity="0.2" stroke-width="0.75" stroke-miterlimit="10"/>
<path d="M1341.49 97.8701C1341.26 97.8701 1341.07 97.9901 1341.07 98.1401C1341.07 98.2901 1341.26 98.4001 1341.49 98.4001C1341.72 98.4001 1341.91 98.2801 1341.91 98.1401C1341.91 98.0001 1341.69 97.8701 1341.49 97.8701Z" fill="#212833" fill-opacity="0.1" stroke="#F4F6F8" stroke-opacity="0.2" stroke-width="0.75" stroke-miterlimit="10"/>
<path d="M1351.9 65.3799H1349.81C1349.06 65.4469 1348.36 65.765 1347.81 66.2823C1347.27 66.7997 1346.92 67.4861 1346.81 68.2299V102.23H1354.88V68.2299C1354.78 67.4856 1354.44 66.7967 1353.89 66.278C1353.35 65.7594 1352.65 65.4424 1351.9 65.3799Z" fill="#212833" fill-opacity="0.1" stroke="#F4F6F8" stroke-opacity="0.2" stroke-width="0.75" stroke-miterlimit="10"/>
<path d="M1349.53 71.3701C1349.29 71.3701 1349.11 71.4901 1349.11 71.6401C1349.11 71.7901 1349.29 71.9001 1349.53 71.9001C1349.77 71.9001 1349.95 71.7801 1349.95 71.6401C1349.95 71.5001 1349.77 71.3701 1349.53 71.3701Z" fill="#212833" fill-opacity="0.1" stroke="#F4F6F8" stroke-opacity="0.2" stroke-width="0.75" stroke-miterlimit="10"/>
<path d="M1352.15 71.3701C1351.91 71.3701 1351.72 71.4901 1351.72 71.6401C1351.72 71.7901 1351.91 71.9001 1352.15 71.9001C1352.39 71.9001 1352.57 71.7801 1352.57 71.6401C1352.57 71.5001 1352.38 71.3701 1352.15 71.3701Z" fill="#212833" fill-opacity="0.1" stroke="#F4F6F8" stroke-opacity="0.2" stroke-width="0.75" stroke-miterlimit="10"/>
<path d="M1349.53 97.8701C1349.29 97.8701 1349.11 97.9901 1349.11 98.1401C1349.11 98.2901 1349.29 98.4001 1349.53 98.4001C1349.77 98.4001 1349.95 98.2801 1349.95 98.1401C1349.95 98.0001 1349.77 97.8701 1349.53 97.8701Z" fill="#212833" fill-opacity="0.1" stroke="#F4F6F8" stroke-opacity="0.2" stroke-width="0.75" stroke-miterlimit="10"/>
<path d="M1352.15 97.8701C1351.91 97.8701 1351.72 97.9901 1351.72 98.1401C1351.72 98.2901 1351.91 98.4001 1352.15 98.4001C1352.39 98.4001 1352.57 98.2801 1352.57 98.1401C1352.57 98.0001 1352.38 97.8701 1352.15 97.8701Z" fill="#212833" fill-opacity="0.1" stroke="#F4F6F8" stroke-opacity="0.2" stroke-width="0.75" stroke-miterlimit="10"/>
<path d="M1362.55 65.3799H1360.47C1359.72 65.4469 1359.02 65.765 1358.47 66.2823C1357.93 66.7997 1357.58 67.4861 1357.47 68.2299V102.23H1365.54V68.2299C1365.44 67.4848 1365.09 66.7957 1364.55 66.2772C1364 65.7586 1363.3 65.442 1362.55 65.3799Z" fill="#212833" fill-opacity="0.1" stroke="#F4F6F8" stroke-opacity="0.2" stroke-width="0.75" stroke-miterlimit="10"/>
<path d="M1360.19 71.3701C1359.95 71.3701 1359.76 71.4901 1359.76 71.6401C1359.76 71.7901 1359.95 71.9001 1360.19 71.9001C1360.43 71.9001 1360.61 71.7801 1360.61 71.6401C1360.61 71.5001 1360.42 71.3701 1360.19 71.3701Z" fill="#212833" fill-opacity="0.1" stroke="#F4F6F8" stroke-opacity="0.2" stroke-width="0.75" stroke-miterlimit="10"/>
<path d="M1362.8 71.3701C1362.57 71.3701 1362.38 71.4901 1362.38 71.6401C1362.38 71.7901 1362.57 71.9001 1362.8 71.9001C1363.03 71.9001 1363.23 71.7801 1363.23 71.6401C1363.23 71.5001 1363.04 71.3701 1362.8 71.3701Z" fill="#212833" fill-opacity="0.1" stroke="#F4F6F8" stroke-opacity="0.2" stroke-width="0.75" stroke-miterlimit="10"/>
<path d="M1360.19 97.8701C1359.95 97.8701 1359.76 97.9901 1359.76 98.1401C1359.76 98.2901 1359.95 98.4001 1360.19 98.4001C1360.43 98.4001 1360.61 98.2801 1360.61 98.1401C1360.61 98.0001 1360.42 97.8701 1360.19 97.8701Z" fill="#212833" fill-opacity="0.1" stroke="#F4F6F8" stroke-opacity="0.2" stroke-width="0.75" stroke-miterlimit="10"/>
<path d="M1362.8 97.8701C1362.57 97.8701 1362.38 97.9901 1362.38 98.1401C1362.38 98.2901 1362.57 98.4001 1362.8 98.4001C1363.03 98.4001 1363.23 98.2801 1363.23 98.1401C1363.23 98.0001 1363.04 97.8701 1362.8 97.8701Z" fill="#212833" fill-opacity="0.1" stroke="#F4F6F8" stroke-opacity="0.2" stroke-width="0.75" stroke-miterlimit="10"/>
<path d="M1373.21 65.3799H1371.13C1370.38 65.4452 1369.68 65.7626 1369.13 66.2803C1368.59 66.7981 1368.23 67.4854 1368.13 68.2299V102.23H1376.19V68.2299C1376.09 67.4856 1375.75 66.7967 1375.2 66.278C1374.66 65.7594 1373.96 65.4424 1373.21 65.3799Z" fill="#212833" fill-opacity="0.1" stroke="#F4F6F8" stroke-opacity="0.2" stroke-width="0.75" stroke-miterlimit="10"/>
<path d="M1370.84 71.3701C1370.61 71.3701 1370.42 71.4901 1370.42 71.6401C1370.42 71.7901 1370.61 71.9001 1370.84 71.9001C1371.07 71.9001 1371.27 71.7801 1371.27 71.6401C1371.27 71.5001 1371.08 71.3701 1370.84 71.3701Z" fill="#212833" fill-opacity="0.1" stroke="#F4F6F8" stroke-opacity="0.2" stroke-width="0.75" stroke-miterlimit="10"/>
<path d="M1373.46 71.3701C1373.23 71.3701 1373.04 71.4901 1373.04 71.6401C1373.04 71.7901 1373.23 71.9001 1373.46 71.9001C1373.69 71.9001 1373.89 71.7801 1373.89 71.6401C1373.89 71.5001 1373.69 71.3701 1373.46 71.3701Z" fill="#212833" fill-opacity="0.1" stroke="#F4F6F8" stroke-opacity="0.2" stroke-width="0.75" stroke-miterlimit="10"/>
<path d="M1370.84 97.8701C1370.61 97.8701 1370.42 97.9901 1370.42 98.1401C1370.42 98.2901 1370.61 98.4001 1370.84 98.4001C1371.07 98.4001 1371.27 98.2801 1371.27 98.1401C1371.27 98.0001 1371.08 97.8701 1370.84 97.8701Z" fill="#212833" fill-opacity="0.1" stroke="#F4F6F8" stroke-opacity="0.2" stroke-width="0.75" stroke-miterlimit="10"/>
<path d="M1373.46 97.8701C1373.23 97.8701 1373.04 97.9901 1373.04 98.1401C1373.04 98.2901 1373.23 98.4001 1373.46 98.4001C1373.69 98.4001 1373.89 98.2801 1373.89 98.1401C1373.89 98.0001 1373.69 97.8701 1373.46 97.8701Z" fill="#212833" fill-opacity="0.1" stroke="#F4F6F8" stroke-opacity="0.2" stroke-width="0.75" stroke-miterlimit="10"/>
<path d="M1383.87 65.3799H1381.78C1381.03 65.4469 1380.33 65.765 1379.78 66.2823C1379.24 66.7997 1378.89 67.4861 1378.78 68.2299V102.23H1386.85V68.2299C1386.75 67.4856 1386.41 66.7967 1385.86 66.278C1385.32 65.7594 1384.62 65.4424 1383.87 65.3799Z" fill="#212833" fill-opacity="0.1" stroke="#F4F6F8" stroke-opacity="0.2" stroke-width="0.75" stroke-miterlimit="10"/>
<path d="M1381.5 71.3701C1381.26 71.3701 1381.07 71.4901 1381.07 71.6401C1381.07 71.7901 1381.26 71.9001 1381.5 71.9001C1381.74 71.9001 1381.92 71.7801 1381.92 71.6401C1381.92 71.5001 1381.69 71.3701 1381.5 71.3701Z" fill="#212833" fill-opacity="0.1" stroke="#F4F6F8" stroke-opacity="0.2" stroke-width="0.75" stroke-miterlimit="10"/>
<path d="M1384.12 71.3701C1383.88 71.3701 1383.69 71.4901 1383.69 71.6401C1383.69 71.7901 1383.88 71.9001 1384.12 71.9001C1384.36 71.9001 1384.54 71.7801 1384.54 71.6401C1384.54 71.5001 1384.35 71.3701 1384.12 71.3701Z" fill="#212833" fill-opacity="0.1" stroke="#F4F6F8" stroke-opacity="0.2" stroke-width="0.75" stroke-miterlimit="10"/>
<path d="M1381.5 97.8701C1381.26 97.8701 1381.07 97.9901 1381.07 98.1401C1381.07 98.2901 1381.26 98.4001 1381.5 98.4001C1381.74 98.4001 1381.92 98.2801 1381.92 98.1401C1381.92 98.0001 1381.69 97.8701 1381.5 97.8701Z" fill="#212833" fill-opacity="0.1" stroke="#F4F6F8" stroke-opacity="0.2" stroke-width="0.75" stroke-miterlimit="10"/>
<path d="M1384.12 97.8701C1383.88 97.8701 1383.69 97.9901 1383.69 98.1401C1383.69 98.2901 1383.88 98.4001 1384.12 98.4001C1384.36 98.4001 1384.54 98.2801 1384.54 98.1401C1384.54 98.0001 1384.35 97.8701 1384.12 97.8701Z" fill="#212833" fill-opacity="0.1" stroke="#F4F6F8" stroke-opacity="0.2" stroke-width="0.75" stroke-miterlimit="10"/>
<path d="M1394.53 65.3799H1392.44C1391.69 65.4469 1390.99 65.765 1390.44 66.2823C1389.9 66.7997 1389.55 67.4861 1389.44 68.2299V102.23H1397.51V68.2299C1397.41 67.4863 1397.06 66.7984 1396.52 66.2801C1395.98 65.7618 1395.28 65.4442 1394.53 65.3799Z" fill="#212833" fill-opacity="0.1" stroke="#F4F6F8" stroke-opacity="0.2" stroke-width="0.75" stroke-miterlimit="10"/>
<path d="M1392.15 71.3701C1391.92 71.3701 1391.73 71.4901 1391.73 71.6401C1391.73 71.7901 1391.92 71.9001 1392.15 71.9001C1392.38 71.9001 1392.58 71.7801 1392.58 71.6401C1392.58 71.5001 1392.39 71.3701 1392.15 71.3701Z" fill="#212833" fill-opacity="0.1" stroke="#F4F6F8" stroke-opacity="0.2" stroke-width="0.75" stroke-miterlimit="10"/>
<path d="M1394.77 71.3701C1394.54 71.3701 1394.35 71.4901 1394.35 71.6401C1394.35 71.7901 1394.54 71.9001 1394.77 71.9001C1395 71.9001 1395.2 71.7801 1395.2 71.6401C1395.2 71.5001 1395.01 71.3701 1394.77 71.3701Z" fill="#212833" fill-opacity="0.1" stroke="#F4F6F8" stroke-opacity="0.2" stroke-width="0.75" stroke-miterlimit="10"/>
<path d="M1392.15 97.8701C1391.92 97.8701 1391.73 97.9901 1391.73 98.1401C1391.73 98.2901 1391.92 98.4001 1392.15 98.4001C1392.38 98.4001 1392.58 98.2801 1392.58 98.1401C1392.58 98.0001 1392.39 97.8701 1392.15 97.8701Z" fill="#212833" fill-opacity="0.1" stroke="#F4F6F8" stroke-opacity="0.2" stroke-width="0.75" stroke-miterlimit="10"/>
<path d="M1394.77 97.8701C1394.54 97.8701 1394.35 97.9901 1394.35 98.1401C1394.35 98.2901 1394.54 98.4001 1394.77 98.4001C1395 98.4001 1395.2 98.2801 1395.2 98.1401C1395.2 98.0001 1395.01 97.8701 1394.77 97.8701Z" fill="#212833" fill-opacity="0.1" stroke="#F4F6F8" stroke-opacity="0.2" stroke-width="0.75" stroke-miterlimit="10"/>
<path d="M1405.18 65.3799H1403.09C1402.34 65.4469 1401.64 65.765 1401.09 66.2823C1400.55 66.7997 1400.2 67.4861 1400.09 68.2299V102.23H1408.15V68.2299C1408.05 67.4872 1407.71 66.7995 1407.17 66.281C1406.63 65.7625 1405.93 65.4446 1405.18 65.3799Z" fill="#212833" fill-opacity="0.1" stroke="#F4F6F8" stroke-opacity="0.2" stroke-width="0.75" stroke-miterlimit="10"/>
<path d="M1402.81 71.3701C1402.58 71.3701 1402.39 71.4901 1402.39 71.6401C1402.39 71.7901 1402.58 71.9001 1402.81 71.9001C1403.04 71.9001 1403.24 71.7801 1403.24 71.6401C1403.24 71.5001 1403.05 71.3701 1402.81 71.3701Z" fill="#212833" fill-opacity="0.1" stroke="#F4F6F8" stroke-opacity="0.2" stroke-width="0.75" stroke-miterlimit="10"/>
<path d="M1405.43 71.3701C1405.19 71.3701 1405.01 71.4901 1405.01 71.6401C1405.01 71.7901 1405.19 71.9001 1405.43 71.9001C1405.67 71.9001 1405.85 71.7801 1405.85 71.6401C1405.85 71.5001 1405.69 71.3701 1405.43 71.3701Z" fill="#212833" fill-opacity="0.1" stroke="#F4F6F8" stroke-opacity="0.2" stroke-width="0.75" stroke-miterlimit="10"/>
<path d="M1402.81 97.8701C1402.58 97.8701 1402.39 97.9901 1402.39 98.1401C1402.39 98.2901 1402.58 98.4001 1402.81 98.4001C1403.04 98.4001 1403.24 98.2801 1403.24 98.1401C1403.24 98.0001 1403.05 97.8701 1402.81 97.8701Z" fill="#212833" fill-opacity="0.1" stroke="#F4F6F8" stroke-opacity="0.2" stroke-width="0.75" stroke-miterlimit="10"/>
<path d="M1405.43 97.8701C1405.19 97.8701 1405.01 97.9901 1405.01 98.1401C1405.01 98.2901 1405.19 98.4001 1405.43 98.4001C1405.67 98.4001 1405.85 98.2801 1405.85 98.1401C1405.85 98.0001 1405.69 97.8701 1405.43 97.8701Z" fill="#212833" fill-opacity="0.1" stroke="#F4F6F8" stroke-opacity="0.2" stroke-width="0.75" stroke-miterlimit="10"/>
<path d="M1415.84 65.3799H1413.75C1413 65.4469 1412.3 65.765 1411.75 66.2823C1411.21 66.7997 1410.86 67.4861 1410.75 68.2299V102.23H1418.82V68.2299C1418.72 67.4856 1418.38 66.7967 1417.83 66.278C1417.29 65.7594 1416.59 65.4424 1415.84 65.3799Z" fill="#212833" fill-opacity="0.1" stroke="#F4F6F8" stroke-opacity="0.2" stroke-width="0.75" stroke-miterlimit="10"/>
<path d="M1413.47 71.3701C1413.23 71.3701 1413.04 71.4901 1413.04 71.6401C1413.04 71.7901 1413.23 71.9001 1413.47 71.9001C1413.71 71.9001 1413.89 71.7801 1413.89 71.6401C1413.89 71.5001 1413.69 71.3701 1413.47 71.3701Z" fill="#212833" fill-opacity="0.1" stroke="#F4F6F8" stroke-opacity="0.2" stroke-width="0.75" stroke-miterlimit="10"/>
<path d="M1416.09 71.3701C1415.85 71.3701 1415.66 71.4901 1415.66 71.6401C1415.66 71.7901 1415.85 71.9001 1416.09 71.9001C1416.33 71.9001 1416.51 71.7801 1416.51 71.6401C1416.51 71.5001 1416.32 71.3701 1416.09 71.3701Z" fill="#212833" fill-opacity="0.1" stroke="#F4F6F8" stroke-opacity="0.2" stroke-width="0.75" stroke-miterlimit="10"/>
<path d="M1413.47 97.8701C1413.23 97.8701 1413.04 97.9901 1413.04 98.1401C1413.04 98.2901 1413.23 98.4001 1413.47 98.4001C1413.71 98.4001 1413.89 98.2801 1413.89 98.1401C1413.89 98.0001 1413.69 97.8701 1413.47 97.8701Z" fill="#212833" fill-opacity="0.1" stroke="#F4F6F8" stroke-opacity="0.2" stroke-width="0.75" stroke-miterlimit="10"/>
<path d="M1416.09 97.8701C1415.85 97.8701 1415.66 97.9901 1415.66 98.1401C1415.66 98.2901 1415.85 98.4001 1416.09 98.4001C1416.33 98.4001 1416.51 98.2801 1416.51 98.1401C1416.51 98.0001 1416.32 97.8701 1416.09 97.8701Z" fill="#212833" fill-opacity="0.1" stroke="#F4F6F8" stroke-opacity="0.2" stroke-width="0.75" stroke-miterlimit="10"/>
<path d="M1426.49 65.3799H1424.41C1423.66 65.4469 1422.96 65.765 1422.41 66.2823C1421.87 66.7997 1421.52 67.4861 1421.41 68.2299V102.23H1429.48V68.2299C1429.38 67.4848 1429.03 66.7957 1428.49 66.2772C1427.94 65.7586 1427.24 65.442 1426.49 65.3799Z" fill="#212833" fill-opacity="0.1" stroke="#F4F6F8" stroke-opacity="0.2" stroke-width="0.75" stroke-miterlimit="10"/>
<path d="M1424.13 71.3701C1423.89 71.3701 1423.7 71.4901 1423.7 71.6401C1423.7 71.7901 1423.89 71.9001 1424.13 71.9001C1424.37 71.9001 1424.55 71.7801 1424.55 71.6401C1424.55 71.5001 1424.36 71.3701 1424.13 71.3701Z" fill="#212833" fill-opacity="0.1" stroke="#F4F6F8" stroke-opacity="0.2" stroke-width="0.75" stroke-miterlimit="10"/>
<path d="M1426.74 71.3701C1426.51 71.3701 1426.32 71.4901 1426.32 71.6401C1426.32 71.7901 1426.51 71.9001 1426.74 71.9001C1426.97 71.9001 1427.16 71.7801 1427.16 71.6401C1427.16 71.5001 1426.98 71.3701 1426.74 71.3701Z" fill="#212833" fill-opacity="0.1" stroke="#F4F6F8" stroke-opacity="0.2" stroke-width="0.75" stroke-miterlimit="10"/>
<path d="M1424.13 97.8701C1423.89 97.8701 1423.7 97.9901 1423.7 98.1401C1423.7 98.2901 1423.89 98.4001 1424.13 98.4001C1424.37 98.4001 1424.55 98.2801 1424.55 98.1401C1424.55 98.0001 1424.36 97.8701 1424.13 97.8701Z" fill="#212833" fill-opacity="0.1" stroke="#F4F6F8" stroke-opacity="0.2" stroke-width="0.75" stroke-miterlimit="10"/>
<path d="M1426.74 97.8701C1426.51 97.8701 1426.32 97.9901 1426.32 98.1401C1426.32 98.2901 1426.51 98.4001 1426.74 98.4001C1426.97 98.4001 1427.16 98.2801 1427.16 98.1401C1427.16 98.0001 1426.98 97.8701 1426.74 97.8701Z" fill="#212833" fill-opacity="0.1" stroke="#F4F6F8" stroke-opacity="0.2" stroke-width="0.75" stroke-miterlimit="10"/>
<path d="M1437.15 65.3799H1435.07C1434.32 65.4452 1433.62 65.7626 1433.07 66.2803C1432.53 66.7981 1432.17 67.4854 1432.07 68.2299V102.23H1440.13V68.2299C1440.03 67.4856 1439.69 66.7967 1439.14 66.278C1438.6 65.7594 1437.9 65.4424 1437.15 65.3799Z" fill="#212833" fill-opacity="0.1" stroke="#F4F6F8" stroke-opacity="0.2" stroke-width="0.75" stroke-miterlimit="10"/>
<path d="M1434.78 71.3701C1434.54 71.3701 1434.35 71.4901 1434.35 71.6401C1434.35 71.7901 1434.54 71.9001 1434.78 71.9001C1435.02 71.9001 1435.2 71.7801 1435.2 71.6401C1435.2 71.5001 1435.01 71.3701 1434.78 71.3701Z" fill="#212833" fill-opacity="0.1" stroke="#F4F6F8" stroke-opacity="0.2" stroke-width="0.75" stroke-miterlimit="10"/>
<path d="M1437.4 71.3701C1437.16 71.3701 1436.97 71.4901 1436.97 71.6401C1436.97 71.7901 1437.16 71.9001 1437.4 71.9001C1437.64 71.9001 1437.82 71.7801 1437.82 71.6401C1437.82 71.5001 1437.63 71.3701 1437.4 71.3701Z" fill="#212833" fill-opacity="0.1" stroke="#F4F6F8" stroke-opacity="0.2" stroke-width="0.75" stroke-miterlimit="10"/>
<path d="M1434.78 97.8701C1434.54 97.8701 1434.35 97.9901 1434.35 98.1401C1434.35 98.2901 1434.54 98.4001 1434.78 98.4001C1435.02 98.4001 1435.2 98.2801 1435.2 98.1401C1435.2 98.0001 1435.01 97.8701 1434.78 97.8701Z" fill="#212833" fill-opacity="0.1" stroke="#F4F6F8" stroke-opacity="0.2" stroke-width="0.75" stroke-miterlimit="10"/>
<path d="M1437.4 97.8701C1437.16 97.8701 1436.97 97.9901 1436.97 98.1401C1436.97 98.2901 1437.16 98.4001 1437.4 98.4001C1437.64 98.4001 1437.82 98.2801 1437.82 98.1401C1437.82 98.0001 1437.63 97.8701 1437.4 97.8701Z" fill="#212833" fill-opacity="0.1" stroke="#F4F6F8" stroke-opacity="0.2" stroke-width="0.75" stroke-miterlimit="10"/>
<path d="M1447.8 65.3799H1445.69C1444.94 65.4469 1444.24 65.765 1443.69 66.2823C1443.15 66.7997 1442.8 67.4861 1442.69 68.2299V102.23H1450.76V68.2299C1450.66 67.4894 1450.32 66.8039 1449.78 66.286C1449.24 65.768 1448.54 65.4485 1447.8 65.3799Z" fill="#212833" fill-opacity="0.1" stroke="#F4F6F8" stroke-opacity="0.2" stroke-width="0.75" stroke-miterlimit="10"/>
<path d="M1445.44 71.3701C1445.2 71.3701 1445.01 71.4901 1445.01 71.6301C1445.01 71.7701 1445.2 71.9001 1445.44 71.9001C1445.68 71.9001 1445.86 71.7801 1445.86 71.6301C1445.86 71.4801 1445.69 71.3701 1445.44 71.3701Z" fill="#212833" fill-opacity="0.1" stroke="#F4F6F8" stroke-opacity="0.2" stroke-width="0.75" stroke-miterlimit="10"/>
<path d="M1448.05 71.3701C1447.82 71.3701 1447.63 71.4901 1447.63 71.6301C1447.63 71.7701 1447.82 71.9001 1448.05 71.9001C1448.28 71.9001 1448.48 71.7801 1448.48 71.6301C1448.48 71.4801 1448.29 71.3701 1448.05 71.3701Z" fill="#212833" fill-opacity="0.1" stroke="#F4F6F8" stroke-opacity="0.2" stroke-width="0.75" stroke-miterlimit="10"/>
<path d="M1445.44 97.8701C1445.2 97.8701 1445.01 97.9901 1445.01 98.1401C1445.01 98.2901 1445.2 98.4001 1445.44 98.4001C1445.68 98.4001 1445.86 98.2801 1445.86 98.1401C1445.86 98.0001 1445.69 97.8701 1445.44 97.8701Z" fill="#212833" fill-opacity="0.1" stroke="#F4F6F8" stroke-opacity="0.2" stroke-width="0.75" stroke-miterlimit="10"/>
<path d="M1448.05 97.8701C1447.82 97.8701 1447.63 97.9901 1447.63 98.1401C1447.63 98.2901 1447.82 98.4001 1448.05 98.4001C1448.28 98.4001 1448.48 98.2801 1448.48 98.1401C1448.48 98.0001 1448.29 97.8701 1448.05 97.8701Z" fill="#212833" fill-opacity="0.1" stroke="#F4F6F8" stroke-opacity="0.2" stroke-width="0.75" stroke-miterlimit="10"/>
<path d="M1458.46 65.3799H1456.38C1455.63 65.4452 1454.93 65.7626 1454.38 66.2803C1453.84 66.7981 1453.48 67.4854 1453.38 68.2299V102.23H1461.45V68.2299C1461.35 67.4848 1461 66.7957 1460.46 66.2772C1459.91 65.7586 1459.21 65.442 1458.46 65.3799Z" fill="#212833" fill-opacity="0.1" stroke="#F4F6F8" stroke-opacity="0.2" stroke-width="0.75" stroke-miterlimit="10"/>
<path d="M1456.09 71.3701C1455.86 71.3701 1455.67 71.4901 1455.67 71.6301C1455.67 71.7701 1455.86 71.9001 1456.09 71.9001C1456.32 71.9001 1456.52 71.7801 1456.52 71.6301C1456.52 71.4801 1456.33 71.3701 1456.09 71.3701Z" fill="#212833" fill-opacity="0.1" stroke="#F4F6F8" stroke-opacity="0.2" stroke-width="0.75" stroke-miterlimit="10"/>
<path d="M1458.69 71.3701C1458.46 71.3701 1458.27 71.4901 1458.27 71.6301C1458.27 71.7701 1458.46 71.9001 1458.69 71.9001C1458.92 71.9001 1459.12 71.7801 1459.12 71.6301C1459.12 71.4801 1458.95 71.3701 1458.69 71.3701Z" fill="#212833" fill-opacity="0.1" stroke="#F4F6F8" stroke-opacity="0.2" stroke-width="0.75" stroke-miterlimit="10"/>
<path d="M1456.09 97.8701C1455.86 97.8701 1455.67 97.9901 1455.67 98.1401C1455.67 98.2901 1455.86 98.4001 1456.09 98.4001C1456.32 98.4001 1456.52 98.2801 1456.52 98.1401C1456.52 98.0001 1456.33 97.8701 1456.09 97.8701Z" fill="#212833" fill-opacity="0.1" stroke="#F4F6F8" stroke-opacity="0.2" stroke-width="0.75" stroke-miterlimit="10"/>
<path d="M1458.69 97.8701C1458.46 97.8701 1458.27 97.9901 1458.27 98.1401C1458.27 98.2901 1458.46 98.4001 1458.69 98.4001C1458.92 98.4001 1459.12 98.2801 1459.12 98.1401C1459.12 98.0001 1458.95 97.8701 1458.69 97.8701Z" fill="#212833" fill-opacity="0.1" stroke="#F4F6F8" stroke-opacity="0.2" stroke-width="0.75" stroke-miterlimit="10"/>
<path d="M1469.12 65.3799H1467.03C1466.28 65.4469 1465.58 65.765 1465.03 66.2823C1464.49 66.7997 1464.14 67.4861 1464.03 68.2299V102.23H1472.1V68.2299C1472 67.4856 1471.66 66.7967 1471.11 66.278C1470.57 65.7594 1469.87 65.4424 1469.12 65.3799Z" fill="#212833" fill-opacity="0.1" stroke="#F4F6F8" stroke-opacity="0.2" stroke-width="0.75" stroke-miterlimit="10"/>
<path d="M1466.75 71.3701C1466.51 71.3701 1466.32 71.4901 1466.32 71.6301C1466.32 71.7701 1466.51 71.9001 1466.75 71.9001C1466.99 71.9001 1467.17 71.7801 1467.17 71.6301C1467.17 71.4801 1466.98 71.3701 1466.75 71.3701Z" fill="#212833" fill-opacity="0.1" stroke="#F4F6F8" stroke-opacity="0.2" stroke-width="0.75" stroke-miterlimit="10"/>
<path d="M1469.37 71.3701C1469.13 71.3701 1468.94 71.4901 1468.94 71.6301C1468.94 71.7701 1469.13 71.9001 1469.37 71.9001C1469.61 71.9001 1469.79 71.7801 1469.79 71.6301C1469.79 71.4801 1469.6 71.3701 1469.37 71.3701Z" fill="#212833" fill-opacity="0.1" stroke="#F4F6F8" stroke-opacity="0.2" stroke-width="0.75" stroke-miterlimit="10"/>
<path d="M1466.75 97.8701C1466.51 97.8701 1466.32 97.9901 1466.32 98.1401C1466.32 98.2901 1466.51 98.4001 1466.75 98.4001C1466.99 98.4001 1467.17 98.2801 1467.17 98.1401C1467.17 98.0001 1466.98 97.8701 1466.75 97.8701Z" fill="#212833" fill-opacity="0.1" stroke="#F4F6F8" stroke-opacity="0.2" stroke-width="0.75" stroke-miterlimit="10"/>
<path d="M1469.37 97.8701C1469.13 97.8701 1468.94 97.9901 1468.94 98.1401C1468.94 98.2901 1469.13 98.4001 1469.37 98.4001C1469.61 98.4001 1469.79 98.2801 1469.79 98.1401C1469.79 98.0001 1469.6 97.8701 1469.37 97.8701Z" fill="#212833" fill-opacity="0.1" stroke="#F4F6F8" stroke-opacity="0.2" stroke-width="0.75" stroke-miterlimit="10"/>
<path d="M1479.77 65.3799H1477.69C1476.94 65.4469 1476.24 65.765 1475.69 66.2823C1475.15 66.7997 1474.8 67.4861 1474.69 68.2299V102.23H1482.76V68.2299C1482.66 67.4848 1482.31 66.7957 1481.77 66.2772C1481.22 65.7586 1480.52 65.442 1479.77 65.3799Z" fill="#212833" fill-opacity="0.1" stroke="#F4F6F8" stroke-opacity="0.2" stroke-width="0.75" stroke-miterlimit="10"/>
<path d="M1477.41 71.3701C1477.17 71.3701 1476.98 71.4901 1476.98 71.6401C1476.98 71.7901 1477.17 71.9001 1477.41 71.9001C1477.65 71.9001 1477.83 71.7801 1477.83 71.6401C1477.83 71.5001 1477.69 71.3701 1477.41 71.3701Z" fill="#212833" fill-opacity="0.1" stroke="#F4F6F8" stroke-opacity="0.2" stroke-width="0.75" stroke-miterlimit="10"/>
<path d="M1480.02 71.3701C1479.79 71.3701 1479.6 71.4901 1479.6 71.6401C1479.6 71.7901 1479.79 71.9001 1480.02 71.9001C1480.25 71.9001 1480.45 71.7801 1480.45 71.6401C1480.45 71.5001 1480.26 71.3701 1480.02 71.3701Z" fill="#212833" fill-opacity="0.1" stroke="#F4F6F8" stroke-opacity="0.2" stroke-width="0.75" stroke-miterlimit="10"/>
<path d="M1477.41 97.8701C1477.17 97.8701 1476.98 97.9901 1476.98 98.1401C1476.98 98.2901 1477.17 98.4001 1477.41 98.4001C1477.65 98.4001 1477.83 98.2801 1477.83 98.1401C1477.83 98.0001 1477.69 97.8701 1477.41 97.8701Z" fill="#212833" fill-opacity="0.1" stroke="#F4F6F8" stroke-opacity="0.2" stroke-width="0.75" stroke-miterlimit="10"/>
<path d="M1480.02 97.8701C1479.79 97.8701 1479.6 97.9901 1479.6 98.1401C1479.6 98.2901 1479.79 98.4001 1480.02 98.4001C1480.25 98.4001 1480.45 98.2801 1480.45 98.1401C1480.45 98.0001 1480.26 97.8701 1480.02 97.8701Z" fill="#212833" fill-opacity="0.1" stroke="#F4F6F8" stroke-opacity="0.2" stroke-width="0.75" stroke-miterlimit="10"/>
<path d="M1490.43 65.3799H1488.34C1487.59 65.4452 1486.89 65.7626 1486.34 66.2803C1485.8 66.7981 1485.44 67.4854 1485.34 68.2299V102.23H1493.41V68.2299C1493.31 67.4863 1492.96 66.7984 1492.42 66.2801C1491.88 65.7618 1491.18 65.4442 1490.43 65.3799Z" fill="#212833" fill-opacity="0.1" stroke="#F4F6F8" stroke-opacity="0.2" stroke-width="0.75" stroke-miterlimit="10"/>
<path d="M1488.06 71.3701C1487.83 71.3701 1487.64 71.4901 1487.64 71.6401C1487.64 71.7901 1487.83 71.9001 1488.06 71.9001C1488.29 71.9001 1488.48 71.7801 1488.48 71.6401C1488.48 71.5001 1488.29 71.3701 1488.06 71.3701Z" fill="#212833" fill-opacity="0.1" stroke="#F4F6F8" stroke-opacity="0.2" stroke-width="0.75" stroke-miterlimit="10"/>
<path d="M1490.69 71.3701C1490.45 71.3701 1490.26 71.4901 1490.26 71.6401C1490.26 71.7901 1490.45 71.9001 1490.69 71.9001C1490.93 71.9001 1491.11 71.7801 1491.11 71.6401C1491.11 71.5001 1490.91 71.3701 1490.69 71.3701Z" fill="#212833" fill-opacity="0.1" stroke="#F4F6F8" stroke-opacity="0.2" stroke-width="0.75" stroke-miterlimit="10"/>
<path d="M1488.06 97.8701C1487.83 97.8701 1487.64 97.9901 1487.64 98.1401C1487.64 98.2901 1487.83 98.4001 1488.06 98.4001C1488.29 98.4001 1488.48 98.2801 1488.48 98.1401C1488.48 98.0001 1488.29 97.8701 1488.06 97.8701Z" fill="#212833" fill-opacity="0.1" stroke="#F4F6F8" stroke-opacity="0.2" stroke-width="0.75" stroke-miterlimit="10"/>
<path d="M1490.69 97.8701C1490.45 97.8701 1490.26 97.9901 1490.26 98.1401C1490.26 98.2901 1490.45 98.4001 1490.69 98.4001C1490.93 98.4001 1491.11 98.2801 1491.11 98.1401C1491.11 98.0001 1490.91 97.8701 1490.69 97.8701Z" fill="#212833" fill-opacity="0.1" stroke="#F4F6F8" stroke-opacity="0.2" stroke-width="0.75" stroke-miterlimit="10"/>
<path d="M1501.09 65.3799H1499C1498.25 65.4469 1497.55 65.765 1497 66.2823C1496.46 66.7997 1496.11 67.4861 1496 68.2299V102.23H1504.07V68.2299C1503.97 67.4856 1503.63 66.7967 1503.08 66.278C1502.54 65.7594 1501.84 65.4424 1501.09 65.3799Z" fill="#212833" fill-opacity="0.1" stroke="#F4F6F8" stroke-opacity="0.2" stroke-width="0.75" stroke-miterlimit="10"/>
<path d="M1498.69 71.3701C1498.45 71.3701 1498.26 71.4901 1498.26 71.6401C1498.26 71.7901 1498.45 71.9001 1498.69 71.9001C1498.93 71.9001 1499.11 71.7801 1499.11 71.6401C1499.11 71.5001 1498.95 71.3701 1498.69 71.3701Z" fill="#212833" fill-opacity="0.1" stroke="#F4F6F8" stroke-opacity="0.2" stroke-width="0.75" stroke-miterlimit="10"/>
<path d="M1501.33 71.3701C1501.1 71.3701 1500.91 71.4901 1500.91 71.6401C1500.91 71.7901 1501.1 71.9001 1501.33 71.9001C1501.56 71.9001 1501.76 71.7801 1501.76 71.6401C1501.76 71.5001 1501.57 71.3701 1501.33 71.3701Z" fill="#212833" fill-opacity="0.1" stroke="#F4F6F8" stroke-opacity="0.2" stroke-width="0.75" stroke-miterlimit="10"/>
<path d="M1498.69 97.8701C1498.45 97.8701 1498.26 97.9901 1498.26 98.1401C1498.26 98.2901 1498.45 98.4001 1498.69 98.4001C1498.93 98.4001 1499.11 98.2801 1499.11 98.1401C1499.11 98.0001 1498.95 97.8701 1498.69 97.8701Z" fill="#212833" fill-opacity="0.1" stroke="#F4F6F8" stroke-opacity="0.2" stroke-width="0.75" stroke-miterlimit="10"/>
<path d="M1501.33 97.8701C1501.1 97.8701 1500.91 97.9901 1500.91 98.1401C1500.91 98.2901 1501.1 98.4001 1501.33 98.4001C1501.56 98.4001 1501.76 98.2801 1501.76 98.1401C1501.76 98.0001 1501.57 97.8701 1501.33 97.8701Z" fill="#212833" fill-opacity="0.1" stroke="#F4F6F8" stroke-opacity="0.2" stroke-width="0.75" stroke-miterlimit="10"/>
<path d="M1511.74 65.3799H1509.69C1508.94 65.4452 1508.24 65.7626 1507.69 66.2803C1507.15 66.7981 1506.79 67.4854 1506.69 68.2299V102.23H1514.69V68.2299C1514.59 67.491 1514.25 66.8066 1513.71 66.2889C1513.18 65.7711 1512.48 65.4506 1511.74 65.3799Z" fill="#212833" fill-opacity="0.1" stroke="#F4F6F8" stroke-opacity="0.2" stroke-width="0.75" stroke-miterlimit="10"/>
<path d="M1509.37 71.3701C1509.14 71.3701 1508.95 71.4901 1508.95 71.6401C1508.95 71.7901 1509.14 71.9001 1509.37 71.9001C1509.6 71.9001 1509.8 71.7801 1509.8 71.6401C1509.8 71.5001 1509.61 71.3701 1509.37 71.3701Z" fill="#212833" fill-opacity="0.1" stroke="#F4F6F8" stroke-opacity="0.2" stroke-width="0.75" stroke-miterlimit="10"/>
<path d="M1511.99 71.3701C1511.76 71.3701 1511.57 71.4901 1511.57 71.6401C1511.57 71.7901 1511.76 71.9001 1511.99 71.9001C1512.22 71.9001 1512.41 71.7801 1512.41 71.6401C1512.41 71.5001 1512.22 71.3701 1511.99 71.3701Z" fill="#212833" fill-opacity="0.1" stroke="#F4F6F8" stroke-opacity="0.2" stroke-width="0.75" stroke-miterlimit="10"/>
<path d="M1509.37 97.8701C1509.14 97.8701 1508.95 97.9901 1508.95 98.1401C1508.95 98.2901 1509.14 98.4001 1509.37 98.4001C1509.6 98.4001 1509.8 98.2801 1509.8 98.1401C1509.8 98.0001 1509.61 97.8701 1509.37 97.8701Z" fill="#212833" fill-opacity="0.1" stroke="#F4F6F8" stroke-opacity="0.2" stroke-width="0.75" stroke-miterlimit="10"/>
<path d="M1511.99 97.8701C1511.76 97.8701 1511.57 97.9901 1511.57 98.1401C1511.57 98.2901 1511.76 98.4001 1511.99 98.4001C1512.22 98.4001 1512.41 98.2801 1512.41 98.1401C1512.41 98.0001 1512.22 97.8701 1511.99 97.8701Z" fill="#212833" fill-opacity="0.1" stroke="#F4F6F8" stroke-opacity="0.2" stroke-width="0.75" stroke-miterlimit="10"/>
<path d="M1522.4 65.3799H1520.31C1519.56 65.4452 1518.86 65.7626 1518.31 66.2803C1517.77 66.7981 1517.41 67.4854 1517.31 68.2299V102.23H1525.37V68.2299C1525.28 67.4872 1524.93 66.7995 1524.39 66.281C1523.85 65.7625 1523.15 65.4446 1522.4 65.3799Z" fill="#212833" fill-opacity="0.1" stroke="#F4F6F8" stroke-opacity="0.2" stroke-width="0.75" stroke-miterlimit="10"/>
<path d="M1520.03 71.3701C1519.79 71.3701 1519.6 71.4901 1519.6 71.6401C1519.6 71.7901 1519.79 71.9001 1520.03 71.9001C1520.27 71.9001 1520.45 71.7801 1520.45 71.6401C1520.45 71.5001 1520.26 71.3701 1520.03 71.3701Z" fill="#212833" fill-opacity="0.1" stroke="#F4F6F8" stroke-opacity="0.2" stroke-width="0.75" stroke-miterlimit="10"/>
<path d="M1522.69 71.3701C1522.45 71.3701 1522.26 71.4901 1522.26 71.6401C1522.26 71.7901 1522.45 71.9001 1522.69 71.9001C1522.93 71.9001 1523.11 71.7801 1523.11 71.6401C1523.11 71.5001 1522.88 71.3701 1522.69 71.3701Z" fill="#212833" fill-opacity="0.1" stroke="#F4F6F8" stroke-opacity="0.2" stroke-width="0.75" stroke-miterlimit="10"/>
<path d="M1520.03 97.8701C1519.79 97.8701 1519.6 97.9901 1519.6 98.1401C1519.6 98.2901 1519.79 98.4001 1520.03 98.4001C1520.27 98.4001 1520.45 98.2801 1520.45 98.1401C1520.45 98.0001 1520.26 97.8701 1520.03 97.8701Z" fill="#212833" fill-opacity="0.1" stroke="#F4F6F8" stroke-opacity="0.2" stroke-width="0.75" stroke-miterlimit="10"/>
<path d="M1522.69 97.8701C1522.45 97.8701 1522.26 97.9901 1522.26 98.1401C1522.26 98.2901 1522.45 98.4001 1522.69 98.4001C1522.93 98.4001 1523.11 98.2801 1523.11 98.1401C1523.11 98.0001 1522.88 97.8701 1522.69 97.8701Z" fill="#212833" fill-opacity="0.1" stroke="#F4F6F8" stroke-opacity="0.2" stroke-width="0.75" stroke-miterlimit="10"/>
<path d="M1533.05 65.3799H1530.96C1530.21 65.4469 1529.51 65.765 1528.96 66.2823C1528.42 66.7997 1528.07 67.4861 1527.96 68.2299V102.23H1536.03V68.2299C1535.93 67.4863 1535.58 66.7984 1535.04 66.2801C1534.5 65.7618 1533.8 65.4442 1533.05 65.3799Z" fill="#212833" fill-opacity="0.1" stroke="#F4F6F8" stroke-opacity="0.2" stroke-width="0.75" stroke-miterlimit="10"/>
<path d="M1530.69 71.3701C1530.46 71.3701 1530.27 71.4901 1530.27 71.6401C1530.27 71.7901 1530.46 71.9001 1530.69 71.9001C1530.92 71.9001 1531.12 71.7801 1531.12 71.6401C1531.12 71.5001 1530.92 71.3701 1530.69 71.3701Z" fill="#212833" fill-opacity="0.1" stroke="#F4F6F8" stroke-opacity="0.2" stroke-width="0.75" stroke-miterlimit="10"/>
<path d="M1533.3 71.3701C1533.07 71.3701 1532.88 71.4901 1532.88 71.6401C1532.88 71.7901 1533.07 71.9001 1533.3 71.9001C1533.53 71.9001 1533.72 71.7801 1533.72 71.6401C1533.72 71.5001 1533.54 71.3701 1533.3 71.3701Z" fill="#212833" fill-opacity="0.1" stroke="#F4F6F8" stroke-opacity="0.2" stroke-width="0.75" stroke-miterlimit="10"/>
<path d="M1530.69 97.8701C1530.46 97.8701 1530.27 97.9901 1530.27 98.1401C1530.27 98.2901 1530.46 98.4001 1530.69 98.4001C1530.92 98.4001 1531.12 98.2801 1531.12 98.1401C1531.12 98.0001 1530.92 97.8701 1530.69 97.8701Z" fill="#212833" fill-opacity="0.1" stroke="#F4F6F8" stroke-opacity="0.2" stroke-width="0.75" stroke-miterlimit="10"/>
<path d="M1533.3 97.8701C1533.07 97.8701 1532.88 97.9901 1532.88 98.1401C1532.88 98.2901 1533.07 98.4001 1533.3 98.4001C1533.53 98.4001 1533.72 98.2801 1533.72 98.1401C1533.72 98.0001 1533.54 97.8701 1533.3 97.8701Z" fill="#212833" fill-opacity="0.1" stroke="#F4F6F8" stroke-opacity="0.2" stroke-width="0.75" stroke-miterlimit="10"/>
<path d="M1543.69 65.3799H1541.6C1540.85 65.4452 1540.15 65.7626 1539.6 66.2803C1539.06 66.7981 1538.7 67.4854 1538.6 68.2299V102.23H1546.69V68.2299C1546.59 67.4825 1546.24 66.7911 1545.7 66.2721C1545.15 65.7531 1544.44 65.438 1543.69 65.3799Z" fill="#212833" fill-opacity="0.1" stroke="#F4F6F8" stroke-opacity="0.2" stroke-width="0.75" stroke-miterlimit="10"/>
<path d="M1541.34 71.3701C1541.1 71.3701 1540.91 71.4901 1540.91 71.6401C1540.91 71.7901 1541.1 71.9001 1541.34 71.9001C1541.58 71.9001 1541.76 71.7801 1541.76 71.6401C1541.76 71.5001 1541.57 71.3701 1541.34 71.3701Z" fill="#212833" fill-opacity="0.1" stroke="#F4F6F8" stroke-opacity="0.2" stroke-width="0.75" stroke-miterlimit="10"/>
<path d="M1543.96 71.3701C1543.72 71.3701 1543.53 71.4901 1543.53 71.6401C1543.53 71.7901 1543.72 71.9001 1543.96 71.9001C1544.2 71.9001 1544.38 71.7801 1544.38 71.6401C1544.38 71.5001 1544.19 71.3701 1543.96 71.3701Z" fill="#212833" fill-opacity="0.1" stroke="#F4F6F8" stroke-opacity="0.2" stroke-width="0.75" stroke-miterlimit="10"/>
<path d="M1541.34 97.8701C1541.1 97.8701 1540.91 97.9901 1540.91 98.1401C1540.91 98.2901 1541.1 98.4001 1541.34 98.4001C1541.58 98.4001 1541.76 98.2801 1541.76 98.1401C1541.76 98.0001 1541.57 97.8701 1541.34 97.8701Z" fill="#212833" fill-opacity="0.1" stroke="#F4F6F8" stroke-opacity="0.2" stroke-width="0.75" stroke-miterlimit="10"/>
<path d="M1543.96 97.8701C1543.72 97.8701 1543.53 97.9901 1543.53 98.1401C1543.53 98.2901 1543.72 98.4001 1543.96 98.4001C1544.2 98.4001 1544.38 98.2801 1544.38 98.1401C1544.38 98.0001 1544.19 97.8701 1543.96 97.8701Z" fill="#212833" fill-opacity="0.1" stroke="#F4F6F8" stroke-opacity="0.2" stroke-width="0.75" stroke-miterlimit="10"/>
<path d="M1554.37 65.3799H1552.28C1551.53 65.4469 1550.83 65.765 1550.28 66.2823C1549.74 66.7997 1549.39 67.4861 1549.28 68.2299V102.23H1557.35V68.2299C1557.25 67.4856 1556.91 66.7967 1556.36 66.278C1555.82 65.7594 1555.12 65.4424 1554.37 65.3799Z" fill="#212833" fill-opacity="0.1" stroke="#F4F6F8" stroke-opacity="0.2" stroke-width="0.75" stroke-miterlimit="10"/>
<path d="M1552 71.3701C1551.76 71.3701 1551.57 71.4901 1551.57 71.6401C1551.57 71.7901 1551.76 71.9001 1552 71.9001C1552.24 71.9001 1552.42 71.7801 1552.42 71.6401C1552.42 71.5001 1552.23 71.3701 1552 71.3701Z" fill="#212833" fill-opacity="0.1" stroke="#F4F6F8" stroke-opacity="0.2" stroke-width="0.75" stroke-miterlimit="10"/>
<path d="M1554.61 71.3701C1554.38 71.3701 1554.19 71.4901 1554.19 71.6401C1554.19 71.7901 1554.38 71.9001 1554.61 71.9001C1554.84 71.9001 1555.04 71.7801 1555.04 71.6401C1555.04 71.5001 1554.85 71.3701 1554.61 71.3701Z" fill="#212833" fill-opacity="0.1" stroke="#F4F6F8" stroke-opacity="0.2" stroke-width="0.75" stroke-miterlimit="10"/>
<path d="M1552 97.8701C1551.76 97.8701 1551.57 97.9901 1551.57 98.1401C1551.57 98.2901 1551.76 98.4001 1552 98.4001C1552.24 98.4001 1552.42 98.2801 1552.42 98.1401C1552.42 98.0001 1552.23 97.8701 1552 97.8701Z" fill="#212833" fill-opacity="0.1" stroke="#F4F6F8" stroke-opacity="0.2" stroke-width="0.75" stroke-miterlimit="10"/>
<path d="M1554.61 97.8701C1554.38 97.8701 1554.19 97.9901 1554.19 98.1401C1554.19 98.2901 1554.38 98.4001 1554.61 98.4001C1554.84 98.4001 1555.04 98.2801 1555.04 98.1401C1555.04 98.0001 1554.85 97.8701 1554.61 97.8701Z" fill="#212833" fill-opacity="0.1" stroke="#F4F6F8" stroke-opacity="0.2" stroke-width="0.75" stroke-miterlimit="10"/>
<path d="M1565.02 65.3799H1562.94C1562.19 65.4469 1561.49 65.765 1560.94 66.2823C1560.4 66.7997 1560.05 67.4861 1559.94 68.2299V102.23H1568V68.2299C1567.91 67.4849 1567.56 66.795 1567.02 66.276C1566.47 65.757 1565.77 65.4406 1565.02 65.3799Z" fill="#212833" fill-opacity="0.1" stroke="#F4F6F8" stroke-opacity="0.2" stroke-width="0.75" stroke-miterlimit="10"/>
<path d="M1562.69 71.3701C1562.46 71.3701 1562.27 71.4901 1562.27 71.6401C1562.27 71.7901 1562.46 71.9001 1562.69 71.9001C1562.92 71.9001 1563.12 71.7801 1563.12 71.6401C1563.12 71.5001 1562.89 71.3701 1562.69 71.3701Z" fill="#212833" fill-opacity="0.1" stroke="#F4F6F8" stroke-opacity="0.2" stroke-width="0.75" stroke-miterlimit="10"/>
<path d="M1565.27 71.3701C1565.04 71.3701 1564.85 71.4901 1564.85 71.6401C1564.85 71.7901 1565.04 71.9001 1565.27 71.9001C1565.5 71.9001 1565.7 71.7801 1565.7 71.6401C1565.7 71.5001 1565.51 71.3701 1565.27 71.3701Z" fill="#212833" fill-opacity="0.1" stroke="#F4F6F8" stroke-opacity="0.2" stroke-width="0.75" stroke-miterlimit="10"/>
<path d="M1562.69 97.8701C1562.46 97.8701 1562.27 97.9901 1562.27 98.1401C1562.27 98.2901 1562.46 98.4001 1562.69 98.4001C1562.92 98.4001 1563.12 98.2801 1563.12 98.1401C1563.12 98.0001 1562.89 97.8701 1562.69 97.8701Z" fill="#212833" fill-opacity="0.1" stroke="#F4F6F8" stroke-opacity="0.2" stroke-width="0.75" stroke-miterlimit="10"/>
<path d="M1565.27 97.8701C1565.04 97.8701 1564.85 97.9901 1564.85 98.1401C1564.85 98.2901 1565.04 98.4001 1565.27 98.4001C1565.5 98.4001 1565.7 98.2801 1565.7 98.1401C1565.7 98.0001 1565.51 97.8701 1565.27 97.8701Z" fill="#212833" fill-opacity="0.1" stroke="#F4F6F8" stroke-opacity="0.2" stroke-width="0.75" stroke-miterlimit="10"/>
<path d="M1323.89 70.6396H1322.9V72.6197H1323.89V70.6396Z" fill="#212833" fill-opacity="0.1" stroke="#F4F6F8" stroke-opacity="0.2" stroke-width="0.75" stroke-miterlimit="10"/>
<path d="M1323.89 97.1602H1322.9V99.1502H1323.89V97.1602Z" fill="#212833" fill-opacity="0.1" stroke="#F4F6F8" stroke-opacity="0.2" stroke-width="0.75" stroke-miterlimit="10"/>
<path d="M1334.55 70.6396H1333.56V72.6197H1334.55V70.6396Z" fill="#212833" fill-opacity="0.1" stroke="#F4F6F8" stroke-opacity="0.2" stroke-width="0.75" stroke-miterlimit="10"/>
<path d="M1334.55 97.1602H1333.56V99.1502H1334.55V97.1602Z" fill="#212833" fill-opacity="0.1" stroke="#F4F6F8" stroke-opacity="0.2" stroke-width="0.75" stroke-miterlimit="10"/>
<path d="M1345.2 70.6396H1344.21V72.6197H1345.2V70.6396Z" fill="#212833" fill-opacity="0.1" stroke="#F4F6F8" stroke-opacity="0.2" stroke-width="0.75" stroke-miterlimit="10"/>
<path d="M1345.2 97.1602H1344.21V99.1502H1345.2V97.1602Z" fill="#212833" fill-opacity="0.1" stroke="#F4F6F8" stroke-opacity="0.2" stroke-width="0.75" stroke-miterlimit="10"/>
<path d="M1355.86 70.6396H1354.87V72.6197H1355.86V70.6396Z" fill="#212833" fill-opacity="0.1" stroke="#F4F6F8" stroke-opacity="0.2" stroke-width="0.75" stroke-miterlimit="10"/>
<path d="M1355.86 97.1602H1354.87V99.1502H1355.86V97.1602Z" fill="#212833" fill-opacity="0.1" stroke="#F4F6F8" stroke-opacity="0.2" stroke-width="0.75" stroke-miterlimit="10"/>
<path d="M1366.51 70.6396H1365.52V72.6197H1366.51V70.6396Z" fill="#212833" fill-opacity="0.1" stroke="#F4F6F8" stroke-opacity="0.2" stroke-width="0.75" stroke-miterlimit="10"/>
<path d="M1366.51 97.1602H1365.52V99.1502H1366.51V97.1602Z" fill="#212833" fill-opacity="0.1" stroke="#F4F6F8" stroke-opacity="0.2" stroke-width="0.75" stroke-miterlimit="10"/>
<path d="M1377.17 70.6396H1376.18V72.6197H1377.17V70.6396Z" fill="#212833" fill-opacity="0.1" stroke="#F4F6F8" stroke-opacity="0.2" stroke-width="0.75" stroke-miterlimit="10"/>
<path d="M1377.17 97.1602H1376.18V99.1502H1377.17V97.1602Z" fill="#212833" fill-opacity="0.1" stroke="#F4F6F8" stroke-opacity="0.2" stroke-width="0.75" stroke-miterlimit="10"/>
<path d="M1387.82 70.6396H1386.83V72.6197H1387.82V70.6396Z" fill="#212833" fill-opacity="0.1" stroke="#F4F6F8" stroke-opacity="0.2" stroke-width="0.75" stroke-miterlimit="10"/>
<path d="M1387.82 97.1602H1386.83V99.1502H1387.82V97.1602Z" fill="#212833" fill-opacity="0.1" stroke="#F4F6F8" stroke-opacity="0.2" stroke-width="0.75" stroke-miterlimit="10"/>
<path d="M1398.48 70.6396H1397.49V72.6197H1398.48V70.6396Z" fill="#212833" fill-opacity="0.1" stroke="#F4F6F8" stroke-opacity="0.2" stroke-width="0.75" stroke-miterlimit="10"/>
<path d="M1398.48 97.1602H1397.49V99.1502H1398.48V97.1602Z" fill="#212833" fill-opacity="0.1" stroke="#F4F6F8" stroke-opacity="0.2" stroke-width="0.75" stroke-miterlimit="10"/>
<path d="M1409.14 70.6396H1408.15V72.6197H1409.14V70.6396Z" fill="#212833" fill-opacity="0.1" stroke="#F4F6F8" stroke-opacity="0.2" stroke-width="0.75" stroke-miterlimit="10"/>
<path d="M1409.14 97.1602H1408.15V99.1502H1409.14V97.1602Z" fill="#212833" fill-opacity="0.1" stroke="#F4F6F8" stroke-opacity="0.2" stroke-width="0.75" stroke-miterlimit="10"/>
<path d="M1419.8 70.6396H1418.81V72.6197H1419.8V70.6396Z" fill="#212833" fill-opacity="0.1" stroke="#F4F6F8" stroke-opacity="0.2" stroke-width="0.75" stroke-miterlimit="10"/>
<path d="M1419.8 97.1602H1418.81V99.1502H1419.8V97.1602Z" fill="#212833" fill-opacity="0.1" stroke="#F4F6F8" stroke-opacity="0.2" stroke-width="0.75" stroke-miterlimit="10"/>
<path d="M1430.45 70.6396H1429.46V72.6197H1430.45V70.6396Z" fill="#212833" fill-opacity="0.1" stroke="#F4F6F8" stroke-opacity="0.2" stroke-width="0.75" stroke-miterlimit="10"/>
<path d="M1430.45 97.1602H1429.46V99.1502H1430.45V97.1602Z" fill="#212833" fill-opacity="0.1" stroke="#F4F6F8" stroke-opacity="0.2" stroke-width="0.75" stroke-miterlimit="10"/>
<path d="M1441.11 70.6396H1440.12V72.6197H1441.11V70.6396Z" fill="#212833" fill-opacity="0.1" stroke="#F4F6F8" stroke-opacity="0.2" stroke-width="0.75" stroke-miterlimit="10"/>
<path d="M1441.11 97.1602H1440.12V99.1502H1441.11V97.1602Z" fill="#212833" fill-opacity="0.1" stroke="#F4F6F8" stroke-opacity="0.2" stroke-width="0.75" stroke-miterlimit="10"/>
<path d="M1451.76 70.6396H1450.77V72.6197H1451.76V70.6396Z" fill="#212833" fill-opacity="0.1" stroke="#F4F6F8" stroke-opacity="0.2" stroke-width="0.75" stroke-miterlimit="10"/>
<path d="M1451.76 97.1602H1450.77V99.1502H1451.76V97.1602Z" fill="#212833" fill-opacity="0.1" stroke="#F4F6F8" stroke-opacity="0.2" stroke-width="0.75" stroke-miterlimit="10"/>
<path d="M1462.42 70.6396H1461.43V72.6197H1462.42V70.6396Z" fill="#212833" fill-opacity="0.1" stroke="#F4F6F8" stroke-opacity="0.2" stroke-width="0.75" stroke-miterlimit="10"/>
<path d="M1462.42 97.1602H1461.43V99.1502H1462.42V97.1602Z" fill="#212833" fill-opacity="0.1" stroke="#F4F6F8" stroke-opacity="0.2" stroke-width="0.75" stroke-miterlimit="10"/>
<path d="M1473.07 70.6396H1472.08V72.6197H1473.07V70.6396Z" fill="#212833" fill-opacity="0.1" stroke="#F4F6F8" stroke-opacity="0.2" stroke-width="0.75" stroke-miterlimit="10"/>
<path d="M1473.07 97.1602H1472.08V99.1502H1473.07V97.1602Z" fill="#212833" fill-opacity="0.1" stroke="#F4F6F8" stroke-opacity="0.2" stroke-width="0.75" stroke-miterlimit="10"/>
<path d="M1483.73 70.6396H1482.74V72.6197H1483.73V70.6396Z" fill="#212833" fill-opacity="0.1" stroke="#F4F6F8" stroke-opacity="0.2" stroke-width="0.75" stroke-miterlimit="10"/>
<path d="M1483.73 97.1602H1482.74V99.1502H1483.73V97.1602Z" fill="#212833" fill-opacity="0.1" stroke="#F4F6F8" stroke-opacity="0.2" stroke-width="0.75" stroke-miterlimit="10"/>
<path d="M1494.39 70.6396H1493.4V72.6197H1494.39V70.6396Z" fill="#212833" fill-opacity="0.1" stroke="#F4F6F8" stroke-opacity="0.2" stroke-width="0.75" stroke-miterlimit="10"/>
<path d="M1494.39 97.1602H1493.4V99.1502H1494.39V97.1602Z" fill="#212833" fill-opacity="0.1" stroke="#F4F6F8" stroke-opacity="0.2" stroke-width="0.75" stroke-miterlimit="10"/>
<path d="M1505.04 70.6396H1504.05V72.6197H1505.04V70.6396Z" fill="#212833" fill-opacity="0.1" stroke="#F4F6F8" stroke-opacity="0.2" stroke-width="0.75" stroke-miterlimit="10"/>
<path d="M1505.04 97.1602H1504.05V99.1502H1505.04V97.1602Z" fill="#212833" fill-opacity="0.1" stroke="#F4F6F8" stroke-opacity="0.2" stroke-width="0.75" stroke-miterlimit="10"/>
<path d="M1515.7 70.6396H1514.71V72.6197H1515.7V70.6396Z" fill="#212833" fill-opacity="0.1" stroke="#F4F6F8" stroke-opacity="0.2" stroke-width="0.75" stroke-miterlimit="10"/>
<path d="M1515.7 97.1602H1514.71V99.1502H1515.7V97.1602Z" fill="#212833" fill-opacity="0.1" stroke="#F4F6F8" stroke-opacity="0.2" stroke-width="0.75" stroke-miterlimit="10"/>
<path d="M1526.36 70.6396H1525.37V72.6197H1526.36V70.6396Z" fill="#212833" fill-opacity="0.1" stroke="#F4F6F8" stroke-opacity="0.2" stroke-width="0.75" stroke-miterlimit="10"/>
<path d="M1526.36 97.1602H1525.37V99.1502H1526.36V97.1602Z" fill="#212833" fill-opacity="0.1" stroke="#F4F6F8" stroke-opacity="0.2" stroke-width="0.75" stroke-miterlimit="10"/>
<path d="M1537.01 70.6396H1536.02V72.6197H1537.01V70.6396Z" fill="#212833" fill-opacity="0.1" stroke="#F4F6F8" stroke-opacity="0.2" stroke-width="0.75" stroke-miterlimit="10"/>
<path d="M1537.01 97.1602H1536.02V99.1502H1537.01V97.1602Z" fill="#212833" fill-opacity="0.1" stroke="#F4F6F8" stroke-opacity="0.2" stroke-width="0.75" stroke-miterlimit="10"/>
<path d="M1547.67 70.6396H1546.68V72.6197H1547.67V70.6396Z" fill="#212833" fill-opacity="0.1" stroke="#F4F6F8" stroke-opacity="0.2" stroke-width="0.75" stroke-miterlimit="10"/>
<path d="M1547.67 97.1602H1546.68V99.1502H1547.67V97.1602Z" fill="#212833" fill-opacity="0.1" stroke="#F4F6F8" stroke-opacity="0.2" stroke-width="0.75" stroke-miterlimit="10"/>
<path d="M1558.32 70.6396H1557.33V72.6197H1558.32V70.6396Z" fill="#212833" fill-opacity="0.1" stroke="#F4F6F8" stroke-opacity="0.2" stroke-width="0.75" stroke-miterlimit="10"/>
<path d="M1558.32 97.1602H1557.33V99.1502H1558.32V97.1602Z" fill="#212833" fill-opacity="0.1" stroke="#F4F6F8" stroke-opacity="0.2" stroke-width="0.75" stroke-miterlimit="10"/>
<path d="M1182.86 43.3199C1183.07 43.2856 1183.26 43.1929 1183.42 43.0527C1183.57 42.9126 1183.68 42.7308 1183.74 42.5287C1183.8 42.3267 1183.79 42.1128 1183.73 41.9124C1183.67 41.7119 1183.55 41.5332 1183.39 41.3973C1183.23 41.2614 1183.04 41.1739 1182.83 41.1451C1182.62 41.1164 1182.41 41.1476 1182.22 41.2351C1182.03 41.3226 1181.87 41.4628 1181.76 41.639C1181.64 41.8153 1181.58 42.0203 1181.58 42.2299C1181.61 42.5441 1181.75 42.8353 1181.99 43.0397C1182.23 43.244 1182.55 43.3448 1182.86 43.3199Z" fill="#212833" fill-opacity="0.1" stroke="#F4F6F8" stroke-opacity="0.2" stroke-width="0.75" stroke-miterlimit="10"/>
<path d="M1213.32 59.32C1213.07 59.362 1212.83 59.4759 1212.64 59.6482C1212.45 59.8205 1212.31 60.0441 1212.24 60.2924C1212.17 60.5408 1212.17 60.8036 1212.25 61.0499C1212.33 61.2961 1212.47 61.5155 1212.67 61.682C1212.86 61.8486 1213.1 61.9554 1213.36 61.9898C1213.61 62.0243 1213.87 61.9849 1214.11 61.8764C1214.34 61.7679 1214.54 61.5947 1214.68 61.3774C1214.82 61.1601 1214.89 60.9077 1214.89 60.65C1214.86 60.266 1214.67 59.9106 1214.38 59.6614C1214.08 59.4123 1213.7 59.2895 1213.32 59.32Z" fill="#212833" fill-opacity="0.1" stroke="#F4F6F8" stroke-opacity="0.2" stroke-width="0.75" stroke-miterlimit="10"/>
<path d="M1150.59 75.5401C1150.64 75.1968 1150.59 74.8455 1150.44 74.5335C1150.28 74.2214 1150.04 73.9636 1149.74 73.7946C1149.43 73.6257 1149.09 73.5538 1148.74 73.5886C1148.39 73.6234 1148.07 73.7633 1147.8 73.9893C1147.54 74.2154 1147.35 74.5168 1147.26 74.853C1147.18 75.1892 1147.2 75.5441 1147.32 75.8699C1147.44 76.1957 1147.65 76.4767 1147.94 76.6752C1148.22 76.8737 1148.56 76.9801 1148.91 76.9801C1149.32 77.0078 1149.73 76.8725 1150.04 76.6033C1150.36 76.334 1150.55 75.9523 1150.59 75.5401Z" fill="#212833" fill-opacity="0.1" stroke="#F4F6F8" stroke-opacity="0.2" stroke-width="0.75" stroke-miterlimit="10"/>
<path d="M1207.99 41.7294C1207.71 41.7752 1207.46 41.8986 1207.25 42.0851C1207.05 42.2716 1206.9 42.5133 1206.82 42.7818C1206.75 43.0503 1206.75 43.3344 1206.83 43.6005C1206.92 43.8666 1207.07 44.1036 1207.29 44.2836C1207.5 44.4636 1207.76 44.5791 1208.03 44.6164C1208.31 44.6537 1208.59 44.6113 1208.84 44.4942C1209.1 44.3771 1209.31 44.1901 1209.46 43.9554C1209.61 43.7207 1209.69 43.448 1209.69 43.1694C1209.67 42.963 1209.62 42.7619 1209.52 42.5776C1209.43 42.3933 1209.3 42.2295 1209.14 42.0957C1208.98 41.9618 1208.8 41.8605 1208.6 41.7977C1208.4 41.7348 1208.2 41.7116 1207.99 41.7294Z" fill="#212833" fill-opacity="0.1" stroke="#F4F6F8" stroke-opacity="0.2" stroke-width="0.75" stroke-miterlimit="10"/>
<path d="M1163.57 29.4699C1163.73 29.4414 1163.88 29.3681 1164 29.2587C1164.11 29.1493 1164.2 29.0083 1164.24 28.8522C1164.28 28.6961 1164.28 28.5314 1164.23 28.3773C1164.18 28.2233 1164.09 28.0863 1163.97 27.9824C1163.84 27.8784 1163.69 27.8119 1163.53 27.7906C1163.37 27.7693 1163.21 27.7941 1163.06 27.862C1162.92 27.93 1162.79 28.0383 1162.7 28.1743C1162.62 28.3103 1162.57 28.4683 1162.57 28.6299C1162.58 28.7508 1162.61 28.8686 1162.67 28.9765C1162.73 29.0843 1162.8 29.18 1162.89 29.2581C1162.99 29.3362 1163.1 29.3951 1163.21 29.4314C1163.33 29.4678 1163.45 29.4808 1163.57 29.4699Z" fill="#212833" fill-opacity="0.1" stroke="#F4F6F8" stroke-opacity="0.2" stroke-width="0.75" stroke-miterlimit="10"/>
<path d="M1205.56 78.8699C1205.24 78.9251 1204.94 79.0708 1204.7 79.2898C1204.46 79.5089 1204.29 79.7921 1204.2 80.1063C1204.11 80.4205 1204.12 80.7526 1204.22 81.0634C1204.31 81.3743 1204.5 81.6511 1204.75 81.8613C1204.99 82.0714 1205.3 82.2062 1205.62 82.2498C1205.94 82.2933 1206.27 82.2439 1206.57 82.1072C1206.86 81.9705 1207.11 81.7523 1207.29 81.4782C1207.46 81.2041 1207.56 80.8855 1207.56 80.5599C1207.54 80.3175 1207.47 80.0815 1207.36 79.8654C1207.25 79.6492 1207.1 79.4572 1206.91 79.3002C1206.72 79.1432 1206.51 79.0244 1206.28 78.9506C1206.05 78.8768 1205.8 78.8493 1205.56 78.8699Z" fill="#212833" fill-opacity="0.1" stroke="#F4F6F8" stroke-opacity="0.2" stroke-width="0.75" stroke-miterlimit="10"/>
<path d="M1135.53 42.98C1135.33 43.0128 1135.14 43.1023 1135 43.2379C1134.85 43.3735 1134.74 43.5493 1134.69 43.7444C1134.63 43.9394 1134.64 44.1454 1134.7 44.3376C1134.76 44.5298 1134.88 44.7001 1135.03 44.8281C1135.19 44.9561 1135.38 45.0363 1135.58 45.0593C1135.78 45.0822 1135.98 45.0467 1136.17 44.9572C1136.35 44.8677 1136.5 44.7279 1136.6 44.5546C1136.71 44.3813 1136.76 44.1818 1136.75 43.98C1136.71 43.6882 1136.57 43.4212 1136.34 43.2349C1136.11 43.0486 1135.82 42.9572 1135.53 42.98Z" fill="#212833" fill-opacity="0.1" stroke="#F4F6F8" stroke-opacity="0.2" stroke-width="0.75" stroke-miterlimit="10"/>
<path d="M1178.58 80.6694C1177.97 78.3339 1177.73 75.9184 1177.87 73.5094C1178 71.306 1178.38 69.1247 1179.01 67.0094C1179.73 66.4082 1180.54 65.9286 1181.42 65.5894C1182.46 65.175 1183.59 65.0272 1184.7 65.1594C1185.76 65.2904 1186.75 65.7245 1187.57 66.4094C1188 66.762 1188.37 67.1727 1188.68 67.6294L1188.79 67.7994C1188.79 67.7994 1188.86 67.9194 1188.9 67.9694C1188.94 68.0194 1189.03 68.2194 1189.09 68.3494C1189.2 68.613 1189.29 68.8878 1189.35 69.1694C1189.59 70.4546 1189.4 71.7819 1188.81 72.9494C1188.51 73.5622 1188.12 74.1254 1187.65 74.6194C1187.44 74.8557 1187.19 75.061 1186.92 75.2294C1186.67 75.3851 1186.4 75.4967 1186.11 75.5594C1185.84 75.617 1185.57 75.6154 1185.3 75.555C1185.03 75.4945 1184.79 75.3766 1184.57 75.2094C1184.46 75.1291 1184.37 75.0349 1184.29 74.9294C1184.2 74.8206 1184.12 74.7034 1184.06 74.5794C1183.95 74.3074 1183.91 74.0098 1183.96 73.7194H1183.76C1183.69 74.0531 1183.72 74.3981 1183.83 74.7194C1183.89 74.8742 1183.97 75.0192 1184.07 75.1494C1184.16 75.2719 1184.26 75.3857 1184.37 75.4894C1184.6 75.6954 1184.87 75.8479 1185.17 75.9361C1185.46 76.0243 1185.77 76.0459 1186.08 75.9994C1186.43 75.9524 1186.77 75.844 1187.08 75.6794C1187.23 75.5894 1187.39 75.4894 1187.54 75.3794C1187.69 75.2694 1187.83 75.1294 1187.96 75.0094C1188.51 74.4785 1188.98 73.8644 1189.34 73.1894C1190.08 71.8449 1190.37 70.3003 1190.17 68.7794C1190.11 68.4381 1190.02 68.1032 1189.9 67.7794C1189.84 67.6186 1189.78 67.4616 1189.7 67.3094L1189.59 67.0894L1189.47 66.8794C1189.15 66.3466 1188.76 65.8562 1188.31 65.4194C1187.43 64.5741 1186.33 63.998 1185.14 63.7594C1183.86 63.5207 1182.55 63.6067 1181.31 64.0094C1180.81 64.1784 1180.31 64.3822 1179.84 64.6194C1180 64.2394 1180.15 63.8594 1180.32 63.4794C1181.72 60.229 1183.68 57.2501 1186.11 54.6794C1187.29 53.437 1188.58 52.3087 1189.97 51.3094C1190.32 51.0594 1190.64 50.8494 1190.97 50.6394C1191.29 50.433 1191.63 50.2428 1191.97 50.0694C1192.65 49.7331 1193.37 49.4684 1194.11 49.2794C1195.5 48.9096 1196.95 48.8719 1198.36 49.1694C1199.71 49.4589 1200.97 50.0926 1202.01 51.0094C1203.1 51.9802 1203.95 53.197 1204.48 54.5594C1204.78 55.2766 1204.96 56.0415 1205 56.8194C1205.05 57.6601 1204.97 58.5031 1204.76 59.3194C1204.33 61.0423 1203.45 62.6158 1202.19 63.8694C1201.88 64.1712 1201.54 64.4487 1201.19 64.6994C1200.88 64.937 1200.55 65.1321 1200.19 65.2794C1199.51 65.5399 1198.77 65.5399 1198.09 65.2794C1197.42 65.0047 1196.89 64.476 1196.61 63.8094C1196.44 63.4499 1196.37 63.055 1196.39 62.6594C1196.41 62.4321 1196.45 62.2074 1196.52 61.9894H1196.31C1196.08 62.6365 1196.08 63.3424 1196.31 63.9894C1196.59 64.7323 1197.15 65.3401 1197.86 65.6894C1198.6 66.0245 1199.45 66.0603 1200.22 65.7894C1200.65 65.6485 1201.05 65.4464 1201.42 65.1894C1201.8 64.9299 1202.17 64.646 1202.51 64.3394C1203.94 62.973 1204.98 61.2456 1205.51 59.3394C1205.77 58.4088 1205.89 57.4456 1205.88 56.4794C1205.87 55.5749 1205.7 54.6792 1205.39 53.8294C1204.86 52.2955 1203.99 50.9031 1202.84 49.7594C1201.73 48.6691 1200.35 47.8869 1198.84 47.4894C1197.28 47.0645 1195.64 47.0199 1194.06 47.3594C1193.21 47.5425 1192.38 47.8105 1191.59 48.1594C1191.18 48.3394 1190.77 48.5294 1190.37 48.7494C1189.97 48.9694 1189.57 49.2294 1189.2 49.4694C1187.65 50.5005 1186.2 51.6757 1184.87 52.9794C1182.08 55.7333 1179.8 58.9597 1178.13 62.5094C1177.26 64.3385 1176.55 66.2388 1176.01 68.1894C1175.2 63.2655 1173.8 58.4573 1171.84 53.8694C1169.92 49.31 1167.28 45.0868 1164.03 41.3594C1162.61 39.7754 1161.03 38.3473 1159.31 37.0994C1158.91 36.8042 1158.49 36.5305 1158.06 36.2794C1157.65 36.0332 1157.22 35.816 1156.78 35.6294C1155.97 35.2761 1155.11 35.0436 1154.23 34.9394C1152.58 34.7308 1150.9 35.0829 1149.47 35.9394C1147.91 36.9258 1146.63 38.3051 1145.77 39.9394C1144.72 41.9066 1144.02 44.0419 1143.7 46.2494C1143.48 47.5341 1143.42 48.8398 1143.51 50.1394C1143.61 51.4932 1143.84 52.8335 1144.21 54.1394C1144.85 56.5912 1146.07 58.8538 1147.77 60.7394C1148.14 61.1023 1148.54 61.4365 1148.96 61.7394C1149.34 62.0334 1149.76 62.2539 1150.22 62.3894C1150.63 62.506 1151.05 62.5147 1151.47 62.4147C1151.88 62.3148 1152.25 62.1096 1152.56 61.8194C1153.29 61.0772 1153.76 60.1204 1153.91 59.0894C1154.03 58.4479 1154.03 57.7909 1153.91 57.1494C1153.86 56.8106 1153.78 56.4763 1153.68 56.1494L1153.46 56.2094C1153.55 56.5167 1153.62 56.8311 1153.66 57.1494C1153.74 57.713 1153.71 58.2856 1153.58 58.8394C1153.43 59.7594 1152.97 60.5995 1152.27 61.2194C1151.98 61.455 1151.63 61.6112 1151.27 61.6726C1150.9 61.734 1150.52 61.6984 1150.17 61.5694C1149.77 61.4253 1149.39 61.2084 1149.07 60.9294C1148.69 60.6227 1148.33 60.2885 1148 59.9294C1146.52 58.1614 1145.47 56.0731 1144.93 53.8294C1144.64 52.663 1144.46 51.4704 1144.41 50.2694C1144.36 49.1534 1144.44 48.0353 1144.66 46.9394C1145.01 44.9768 1145.71 43.0934 1146.73 41.3794C1147.55 39.9862 1148.74 38.8447 1150.16 38.0794C1151.47 37.4207 1152.97 37.2134 1154.41 37.4894C1155.18 37.6334 1155.93 37.8859 1156.63 38.2394C1157.01 38.4283 1157.38 38.6386 1157.73 38.8694C1158.11 39.1129 1158.47 39.3766 1158.82 39.6594C1160.37 40.9032 1161.79 42.2966 1163.06 43.8194C1165.9 47.3187 1168.19 51.2388 1169.83 55.4394C1170.04 55.9594 1170.24 56.4394 1170.43 57.0094C1169.94 56.7457 1169.42 56.5378 1168.89 56.3894C1167.62 56.0237 1166.25 56.1376 1165.06 56.7094C1163.77 57.375 1162.73 58.4232 1162.06 59.7094C1161.65 60.4391 1161.31 61.2099 1161.06 62.0094L1160.97 62.3294C1160.97 62.4394 1160.91 62.5594 1160.87 62.6694C1160.83 62.7794 1160.77 63.1394 1160.73 63.3794C1160.65 63.8791 1160.6 64.3834 1160.58 64.8894C1160.53 67.0284 1160.99 69.1486 1161.91 71.0794C1162.31 71.9425 1162.84 72.7411 1163.48 73.4494C1163.63 73.6094 1163.79 73.7694 1163.95 73.9094C1164.1 74.0418 1164.27 74.1559 1164.45 74.2494C1164.75 74.4362 1165.1 74.5397 1165.45 74.5494C1165.79 74.5432 1166.12 74.4474 1166.41 74.2717C1166.7 74.0961 1166.94 73.8469 1167.1 73.5494C1167.2 73.3727 1167.28 73.1888 1167.35 72.9994C1167.44 72.7913 1167.5 72.5731 1167.54 72.3494C1167.63 71.8571 1167.63 71.3517 1167.54 70.8594H1167.34C1167.43 71.2682 1167.43 71.6906 1167.34 72.0994C1167.3 72.2894 1167.24 72.4741 1167.16 72.6494C1167.09 72.8081 1167 72.9617 1166.91 73.1094C1166.76 73.3628 1166.54 73.5684 1166.27 73.7028C1166.01 73.8371 1165.71 73.8949 1165.42 73.8694C1165.11 73.8419 1164.82 73.7351 1164.57 73.5594C1164.27 73.3506 1164 73.0978 1163.77 72.8094C1163.22 72.1382 1162.77 71.3946 1162.42 70.5994C1161.67 68.9221 1161.33 67.0931 1161.42 65.2594C1161.45 64.8463 1161.5 64.4354 1161.58 64.0294L1161.73 63.4594C1161.76 63.3717 1161.79 63.2814 1161.81 63.1894L1161.91 62.9294C1162.17 62.227 1162.5 61.556 1162.91 60.9294C1163.54 59.8802 1164.49 59.0654 1165.63 58.6094C1166.7 58.2101 1167.88 58.2101 1168.95 58.6094C1169.9 58.9667 1170.77 59.5145 1171.51 60.2194C1172.39 63.2114 1173.02 66.2721 1173.39 69.3694C1173.81 73.0242 1173.81 76.7147 1173.39 80.3694C1159.85 81.1494 1148.91 89.2194 1147.08 99.5694C1149 100.909 1161.01 101.939 1175.53 101.939C1190.05 101.939 1202.05 100.939 1203.98 99.5694C1202.3 89.6694 1191.76 81.7094 1178.58 80.6694Z" fill="#212833" fill-opacity="0.1" stroke="#F4F6F8" stroke-opacity="0.2" stroke-width="0.75" stroke-miterlimit="10"/>
</svg>
