<svg width="502" height="362" viewBox="0 0 502 362" fill="none" xmlns="http://www.w3.org/2000/svg">
<g opacity="0.7">
<path opacity="0.7" d="M463.994 272.1L464.459 271.704L461.2 272.693L460.502 272.298L458.407 273.485L458.64 270.121L457.941 269.132L455.381 267.153L454.683 267.945L455.148 269.132L454.45 269.923L453.984 278.234L457.709 280.806L464.226 277.442L463.761 274.672L465.623 273.881L463.994 272.1Z" stroke="#F4F6F8" stroke-miterlimit="10"/>
<path opacity="0.7" d="M499.608 240.443L498.91 236.287L496.116 235.496L495.651 238.068L494.72 239.255L493.556 238.464L493.789 236.09L493.323 235.1L493.789 233.913L492.858 233.32L491.694 234.309V239.453L492.392 240.245L491.927 240.047L489.599 238.86L490.064 237.87L489.366 237.079H487.271L487.038 236.881L488.9 234.903V234.309L489.599 233.715L489.133 230.352L488.202 230.154V231.143L487.038 232.33L487.271 233.715L485.176 234.507L485.409 233.122L484.478 232.33L482.616 232.528L481.917 231.935L482.616 228.769L481.917 228.175L480.055 227.977L475.167 229.956V230.945L473.072 233.518L471.442 231.935L470.977 232.924L469.347 233.913L465.623 233.122L466.554 231.737L467.252 230.352L466.787 229.362L465.623 230.154L463.761 230.748L463.295 230.55L461.899 230.748L462.597 232.726L461.666 233.913L462.364 236.287L460.269 233.715L459.804 227.582L457.709 225.405L458.64 225.01L459.338 225.603L458.873 222.24L458.407 221.25L457.01 222.635L456.545 221.646L458.407 219.865L458.174 218.085H456.312L456.079 218.876H455.148L453.286 224.02L453.053 229.362L453.519 232.132L455.846 239.651L455.381 242.421L457.243 244.202L458.174 244.598L456.778 245.191V248.555L457.243 249.94H455.381L453.984 251.523L455.381 252.116L457.01 251.127L457.243 250.731L458.407 249.94L459.105 250.731L458.407 251.127V254.491L457.01 256.865L458.64 257.854L458.407 258.843H460.036L461.666 258.25L464.459 255.678L466.554 254.293L467.718 254.095L470.279 252.512L471.908 252.71L474.003 251.72L474.934 250.138L477.494 247.961L478.193 246.972L478.891 246.378L479.822 246.972L480.055 248.555L482.616 247.565L482.15 245.983L484.012 244.4L485.642 245.191L484.478 246.576L484.012 249.742L482.616 252.314L483.779 253.303L487.271 250.731L487.504 249.94L487.038 246.378L488.668 244.795L487.504 240.64L488.202 240.245H489.366L491.461 242.223L493.09 244.795L492.858 245.983L494.254 247.17L495.185 246.774L495.651 243.41L496.582 243.015V244.598L499.143 246.576L499.608 245.191L500.772 244.202V243.213L499.608 240.443Z" stroke="#F4F6F8" stroke-miterlimit="10"/>
<path opacity="0.7" d="M437.923 283.378L443.044 283.18L443.742 284.367H444.44L444.673 283.18L448.398 282.784L449.096 281.795L447.699 279.816V279.025L448.863 277.64L448.63 276.453L446.07 278.036L444.906 278.629L444.44 277.64L443.277 278.036L442.811 279.223L440.949 279.619L440.716 280.212L437.923 280.41L437.224 281.201L436.293 280.608L435.362 280.41L432.802 278.234L432.336 280.806L431.871 281.597L436.061 283.378H437.923Z" stroke="#F4F6F8" stroke-miterlimit="10"/>
<path opacity="0.7" d="M445.837 265.175L443.509 267.945L443.975 270.517L444.906 270.715L446.07 270.121L444.906 268.934L444.673 267.747L446.07 266.164L445.837 265.175Z" stroke="#F4F6F8" stroke-miterlimit="10"/>
<path opacity="0.7" d="M436.992 256.469L437.224 255.084L435.828 254.293L432.104 254.095L428.379 253.699L426.517 254.491L424.189 254.095L416.508 256.469L421.163 257.063L423.491 258.448L429.31 258.25L432.336 257.063L436.992 256.469Z" stroke="#F4F6F8" stroke-miterlimit="10"/>
<path opacity="0.7" d="M457.941 282.388L455.846 281.201L454.217 282.388L453.286 281.597H452.355L449.562 284.762L446.768 284.565L445.372 285.158L445.139 286.148L443.044 285.752L441.647 285.95L440.018 285.554L439.929 285.752L439.524 286.223L439.417 286.203L439.552 286.148L439.785 284.762H434.664L433.267 285.158L430.241 282.586L429.077 282.784L427.914 280.607L426.284 280.41L425.819 281.003L424.888 280.805L425.819 279.223V278.233L425.353 275.463L424.655 274.078L422.094 275.265L420.93 277.244L419.534 277.442L418.37 276.057L413.714 276.255L413.687 276.267L413.463 276.528L413.342 276.453L413.249 276.65L412.895 275.894L413.714 275.661L416.508 273.683L417.439 274.078H419.999L422.327 270.913L423.956 268.538L423.724 265.373L421.861 263.592L416.508 263.196L412.55 263.987L403.938 271.308L398.677 277.541L396.256 280.41L394.394 283.773L391.833 293.271L390.67 295.249L387.876 297.426L386.014 300.196L384.617 300.591L380.66 303.757L376.703 309.693L375.772 314.046L373.91 316.024L372.43 316.922L372.42 316.883L374.608 314.837L375.307 311.671L375.539 309.495L377.867 306.131L380.376 303.555L383.454 300.393L388.109 296.04L389.506 293.864L389.273 291.292L390.67 290.105L392.532 280.41L395.092 274.474L397.42 270.319L400.679 268.934V263.79L402.076 260.228L406.265 257.26L420.465 251.127H421.163L430.009 247.367H431.638L435.362 244.795L440.716 242.025L440.949 241.432V239.255L441.88 236.485L442.811 233.913L442.113 233.121V232.33L443.044 231.539L442.811 229.956L446.07 227.977L445.837 226.988L446.768 225.009L449.562 224.218L448.859 224.032L448.863 224.02L449.464 224.103L449.557 223.988L449.562 224.131L451.075 223.031L452.471 218.48L452.937 214.918L451.773 213.336L450.842 211.753L449.273 212.133L449.175 212.105L445.488 207.598L441.764 206.411L438.738 206.213L437.108 207.598V209.774L435.944 209.181L435.479 207.202L432.685 205.224L428.495 207.994L429.194 208.785L426.401 211.951V214.523L425.469 214.919L422.56 219.865L422.429 219.758L422.211 214.919L425.702 210.17V208.587L429.892 203.839L429.659 202.058L426.633 202.256L425.469 201.266L424.538 201.86V203.443L422.676 204.036L418.486 202.849L417.09 204.036L415.227 203.245L413.598 205.026L411.037 205.421L411.503 203.641L409.641 201.662L406.149 202.651L404.054 201.86L402.89 202.651V201.464L401.261 200.871L399.864 201.662L397.536 200.079L396.605 197.507L397.071 194.539L396.373 193.946L394.045 194.143L393.579 193.352L390.553 192.758L391.717 191.373L390.465 189.814H390.451C390.227 190.135 388.081 190.186 387.76 190.186L387.527 188.801L384.967 188.01L384.501 187.021L381.21 188.14L381.098 188.057L381.941 186.625L381.009 184.646L379.846 184.844L376.82 182.866L375.423 182.668L374.492 182.074L372.802 181.445L367.714 177.25L368.244 177.844L368.091 177.721L367.448 177.927L365.297 176.93L365.53 182.866L366.228 184.448L367.159 191.373H365.297L365.763 194.341L362.038 198.694L359.478 196.913L358.081 196.716L354.822 195.133L350.865 197.705L349.701 199.288L349.003 199.09L347.839 197.309L349.236 197.705L349.701 197.111L349.236 196.32L350.632 195.133L348.77 193.154L347.839 193.748L347.141 192.758V191.967L345.279 188.603H344.813L344.58 187.812L345.046 187.614L342.951 185.24L341.787 183.063L342.253 182.47L342.951 181.283L341.321 180.096L340.623 180.689L341.787 181.876H339.692L339.226 180.887L337.131 181.283V182.272L331.079 182.074L329.915 180.096L330.148 179.106L329.683 178.513L328.984 178.908L324.562 177.325L323.165 175.941L317.578 174.555L313.156 178.908L311.759 178.117L310.362 178.71L300.819 178.513L298.491 181.085L299.189 183.459L302.448 187.021L303.146 190.582L302.215 192.956L302.914 194.143L303.845 193.55L306.172 197.903L308.733 200.871L307.569 202.058L307.336 205.817L306.405 208.587L304.543 209.576L305.94 211.753L307.802 213.336L310.362 213.929L315.251 216.501L320.139 220.854L322.234 225.405L322.932 231.539L321.768 235.1L316.88 242.421L314.552 243.806L312.457 245.982L308.733 246.576L309.198 247.565L310.828 247.961L312.457 249.94L314.087 250.929L315.251 251.918L315.018 253.105L316.414 256.667L318.509 259.041L319.673 261.02L320.837 264.185L322.001 264.383L322.932 266.56L321.535 268.934L321.303 270.715L323.165 272.297V273.682L322.001 274.276L321.303 272.693L319.208 271.704L318.044 272.891L318.36 274.13L318.509 276.057L315.716 276.452L311.992 274.474L307.802 270.913L306.871 271.11L304.078 268.34L299.422 264.383H298.025L298.258 260.624L296.861 256.865L294.767 252.314V249.148L295.698 248.752L294.068 245.389L293.137 246.18H291.042L288.249 245.587L288.016 245.785L276.843 246.576L271.489 244.004L270.325 244.202L266.368 242.619H263.575L261.247 242.025L261.014 241.234L257.988 237.87L253.761 235.622L253.756 235.46L253.579 235.262L253.435 235.448L253.389 235.333L253.333 235.298L253.17 235.484H253.156L253.23 235.409L253.072 235.484L253.025 235.48L248.444 235.298L245.185 233.319L240.996 232.726L236.34 235.298L233.081 234.309L233.78 233.121L231.685 225.009L229.822 223.031L230.521 220.656L228.426 220.063L227.262 220.854L222.141 220.656V219.469L220.511 217.886L220.977 215.71L220.758 209.774H220.874L220.884 209.66L220.977 209.774L222.141 207.004L221.908 205.619L223.537 204.63L225.865 197.705L225.4 196.913L228.193 194.935L226.796 193.946L233.081 188.999L232.15 188.208L234.711 187.614L232.616 186.031L233.314 185.24L237.038 185.438L239.366 183.261L239.832 181.48L234.245 178.315L232.848 178.908L227.262 176.138L225.4 176.534L227.262 174.951L232.383 177.523L235.176 177.325L239.133 178.908L241.927 177.919L242.625 174.753L244.254 174.357L247.048 174.753L251.005 172.379L251.47 169.609L252.634 168.422L254.031 163.475L245.884 163.08L241.461 159.914L237.969 158.925V158.133L242.625 158.529L247.746 161.497L252.634 161.892L256.591 157.737L256.359 157.144L257.522 154.967L256.591 153.978L253.798 152.989L253.565 151.208L258.221 151.802L259.618 153.187L262.178 153.582L262.876 152.395L265.204 153.385L266.368 153.187L264.971 151.604V150.219L266.601 151.406L269.627 149.823L272.187 144.877H273.351L273.118 140.326L270.325 138.545L266.135 133.203V132.412L268.23 132.609L270.325 129.839L268.463 127.861L269.161 126.476L267.299 125.684H265.204L264.04 124.497L263.575 122.914L258.454 123.112L255.893 122.519L253.333 123.112L254.031 127.663L256.824 129.444L256.359 131.62L257.057 132.016L256.126 132.609L254.962 132.016L254.031 132.609L254.962 138.545L253.333 140.524L253.1 144.679H251.005L251.47 145.866L249.608 146.855L249.841 145.866L244.953 139.93V135.973L246.117 137.358H247.746L246.815 134.786L242.858 130.433L241.461 129.246L238.901 131.026L239.599 134.588L238.901 135.182L239.366 138.149L237.737 138.347L236.34 132.807L234.245 129.839L236.107 127.663L235.176 127.069L232.383 126.674L230.986 127.861L228.891 125.882L230.521 123.112L229.124 121.925L230.986 122.914L232.15 121.925L230.055 120.342L230.288 119.353L227.727 117.176L226.796 112.23L222.839 108.075L221.908 108.866L220.977 107.086L219.58 107.283L219.348 108.668L217.253 109.856L218.882 110.845L217.951 112.428L216.787 111.439L215.158 112.823L215.856 113.615V115.791L214.925 116.979L217.02 118.364L216.089 119.155L214.692 120.342L214.925 122.914L220.046 127.465L221.21 127.069L223.072 129.048L224.469 128.257L225.167 129.839L223.305 129.246L222.606 131.026L221.21 133.796L222.839 134.984L223.77 134.192L224.236 132.609H224.934L225.167 136.764L224.236 136.567L221.675 140.524L218.882 141.117L217.951 142.107L218.882 144.877V148.24H218.184L216.787 146.855L215.39 147.647L215.856 146.064L215.158 145.074L215.856 143.294L215.623 139.732L216.554 138.941H215.158L211.433 137.556L209.338 135.973V137.358L206.545 137.754L207.476 139.337L207.709 140.919L210.037 141.513H210.735L212.132 143.294L210.735 143.887L206.545 140.919L205.847 142.7L203.286 142.304L201.424 141.315H199.096L197.932 142.502L192.811 142.304L187.457 137.951L186.526 138.743L184.431 137.754L184.199 137.16L181.638 135.182L181.68 135.015L182.104 133.401L180.474 130.235L179.31 130.037L175.819 131.422H170.93L169.068 133.994L171.163 135.182L172.56 134.192L174.189 134.786L178.146 134.192L179.078 133.005L180.241 133.401L180.474 134.786L171.861 137.358L170.232 138.545L171.163 141.117L171.861 144.877L172.327 146.855H171.629L170.465 145.668L169.534 147.251L168.137 146.262L169.068 143.294L166.74 139.337L163.016 135.38L160.223 136.567L159.292 135.973L153.472 135.577L143.928 132.214L143.463 130.829L146.024 129.246L146.722 129.839L149.282 130.433L150.213 128.652L149.049 124.893L145.791 122.123H142.532L137.178 119.155V117.77L132.094 113.089L131.824 112.626L131.745 112.768L131.722 112.748V112.812L131.619 112.998L131.54 112.788L131.619 112.626L131.391 112.412L126.703 108.075L124.608 107.679L123.677 108.668L121.815 109.856L119.953 109.658L119.022 108.866L120.418 106.492L120.185 104.909L122.513 102.535L121.815 101.941L118.556 104.316L116.927 105.305L115.297 107.086L113.901 106.294L113.668 102.931L114.133 97.1927L113.435 95.0163L111.806 95.412L112.271 97.7862L109.012 97.9841L109.478 99.3691L107.383 99.9627L107.616 98.7756L102.029 97.7862L99.9342 98.7756H98.7702V97.9841L95.7442 97.7862L91.0886 98.7756L89.692 100.161L88.2953 98.9734L88.7609 97.7862L97.1408 96.797L98.0719 97.1927L107.15 96.5991L105.754 95.2141L104.124 95.0162L102.727 94.0269L99.2358 95.0162L93.4164 93.6312L92.0198 95.412L89.4593 94.4227L87.5971 95.412L83.6399 95.8077L82.476 95.0163L80.8465 96.0056L80.6139 94.6206L79.9154 93.4334L79.2172 93.0377L78.9938 93.3938L78.9844 92.8398L76.6567 90.8612L75.9583 89.2784V86.904L75.26 86.5084L75.4928 84.134L74.4267 82.8479L71.2703 78.1982L69.2403 80.5688L8.45361 139.534L10.0831 141.117L11.0142 140.919L11.9452 142.898H14.0402L16.2608 144.473L15.7859 145.039L14.273 145.272V147.029L14.0402 146.855L14.9713 155.759L13.5746 158.331L17.2991 158.529L18.2302 158.925L19.6268 159.122L20.7906 157.54L22.42 156.946L26.6099 157.935L26.8428 161.101H25.9117L26.3773 162.882L27.3084 165.058L26.3773 166.047L27.5412 172.379L27.0756 172.973L26.3773 183.855L24.7478 184.844L25.6789 185.833L24.2823 187.02L24.7478 188.405L24.2823 189.79L25.4461 190.384L28.2395 194.737L28.7049 196.716L30.3345 197.705L29.8689 199.485L28.0067 200.277L26.1445 204.036L24.7478 205.026V206.213L17.9974 210.17L19.1613 212.544L18.4629 213.534L19.1613 219.667L19.8596 219.865L21.2561 218.084L25.6789 218.678L21.2562 221.646L21.7217 224.614L21.4891 227.186L22.1873 227.977L20.7906 229.362L19.6268 229.956L20.7906 232.726L26.1445 232.33V234.309L19.1613 235.694L18.2302 238.464L19.8596 238.859L16.1352 241.827L18.2302 245.982L19.6268 245.191L23.3512 248.555L21.2562 250.533L25.2134 252.71H26.1445L28.9378 255.677V257.26L27.7739 257.656L28.9378 261.02L31.2655 261.415L31.4984 262.998L30.5672 263.196L31.0328 265.57L32.6622 266.362L32.8949 268.538L31.9639 269.923L34.7572 270.715L35.8464 270.37L35.8139 270.861L35.7442 271.011L46.1632 275.265L63.3885 281.201L77.1222 285.554L91.7869 289.709L101.564 292.083L118.323 295.843L118.374 295.657L128.565 297.623L141.833 299.8L154.403 301.581L164.413 302.768L176.75 303.955L176.866 303.967L176.982 304.153L177.057 303.978L193.509 305.142L213.295 305.736H218.649V302.408L218.882 302.447H218.896L218.882 302.546V302.57L218.938 302.562L221.386 303.195L222.141 307.516L223.537 308.308L227.029 308.506L228.193 309.297L229.589 309.495L231.917 308.506L235.409 308.901L238.435 311.474L238.202 312.067L240.53 310.88L243.789 313.056L246.116 313.254L248.91 311.276H249.608L250.539 312.463H254.962L255.893 313.056L257.83 312.93L258.672 313.009L258.644 312.874V312.871L258.919 312.859L259.617 311.671L259.85 310.286L261.48 308.901L262.411 309.891L263.342 309.297L264.506 305.933L265.437 306.131L264.506 308.703L266.833 305.736L266.135 304.548L266.601 303.955L270.325 305.34L276.843 304.944L279.636 306.131L279.869 307.319L284.059 311.276H287.55L290.577 310.682V313.056L293.835 316.024L292.904 318.399L295.465 319.19L295.232 321.169L294.767 322.356L297.793 322.158L301.983 323.939L304.078 323.345H309.431L316.647 322.949L317.578 323.741H320.837L322.699 322.356L327.588 326.709L329.683 327.698L329.915 328.489L333.407 331.853L332.243 334.821L329.915 335.019L327.355 333.634H325.26L323.863 331.853L321.303 329.874L318.742 330.468L322.234 333.832L322.699 336.404L320.604 338.58L322.001 347.682L318.277 350.65L318.044 353.815L318.277 356.783L314.087 358.564L315.251 360.74H319.44L319.673 359.355L322.932 357.179L323.863 356.981L325.493 354.211L327.122 352.43L334.804 352.035L336.433 351.243L334.571 350.847V350.056L336.666 349.462L342.718 347.286H344.58L344.645 347.116L344.813 347.484L344.999 346.217L345.046 346.099L345.018 346.075L345.046 345.901L344.347 345.505L342.951 343.329L343.137 343.744L341.321 344.516L338.063 345.109L336.666 344.318L338.994 341.152L341.321 338.778L349.468 335.217L351.563 334.821L351.796 335.217L355.055 334.623L356.684 333.634L354.589 332.842L355.055 332.249H356.219L357.848 330.864L358.821 330.195L359.841 330.108L360.162 329.989L360.101 329.981L360.162 329.985L362.038 329.281L363.435 327.104L363.668 325.917L364.832 324.73L367.392 321.366L369.31 320.698L371.089 320.389L371.116 320.377L371.056 320.175L371.116 320.354L371.363 320.029L392.066 313.65L391.833 310.88H393.463L394.394 309.693L395.325 310.484L395.558 308.703L396.954 308.506L395.558 307.516L397.187 304.944L396.722 304.153L397.187 303.559L396.954 302.174L395.558 300.393L396.256 298.613L395.558 296.238L396.987 289.859L397.895 287.928H398.817L399.049 289.116L399.543 288.399L399.692 288.633L401.377 287.335L400.823 287.865L403.198 286.46L399.72 289.143L400.912 289.313L404.171 287.335L406.033 287.137L408.826 288.72L409.524 289.511L413.482 296.832L414.878 299.008L417.672 299.206L418.37 300.987L419.767 302.174L421.861 302.372L423.025 301.383H424.189L427.681 299.8L428.146 298.217L429.776 298.019L431.172 296.238L433.035 293.666L433.966 292.875L434.897 291.885L435.595 289.511L436.875 288.89L437.266 288.866L437.225 288.918L437.439 288.854L437.779 288.835L437.923 288.918L436.061 293.864L436.759 293.666L440.018 291.688L443.277 290.105L444.906 290.303V290.698L443.509 291.292L441.647 293.073L440.949 294.26H440.251L439.785 292.875H439.32L436.061 296.634L435.595 298.019L431.172 304.351L432.802 304.746L432.104 307.121L435.362 309.891L436.526 309.297L438.389 310.089L438.621 311.276L441.182 309.891V308.703L442.578 307.516L445.372 300.591L444.906 299.998L443.975 298.811L445.372 297.426L447.001 298.019L448.863 296.634L448.398 295.447L450.493 294.062L452.588 292.083L457.476 285.95L459.571 284.169L461.433 282.982V282.586L458.174 282.982L457.941 282.388Z" stroke="#F4F6F8" stroke-miterlimit="10"/>
<path opacity="0.7" d="M361.805 169.016L360.409 167.037L359.012 166.641L357.15 168.224L360.409 169.807L361.805 169.016Z" stroke="#F4F6F8" stroke-miterlimit="10"/>
<path opacity="0.7" d="M349.701 182.866L348.77 184.251L350.4 185.24L352.029 183.459V181.085L350.4 180.887L349.701 182.866Z" stroke="#F4F6F8" stroke-miterlimit="10"/>
<path opacity="0.7" d="M332.476 169.411V168.422L327.82 167.433L330.846 169.807L332.476 169.411Z" stroke="#F4F6F8" stroke-miterlimit="10"/>
<path opacity="0.7" d="M317.578 267.945L316.182 269.33L316.414 270.319L319.44 268.341L317.578 267.945Z" stroke="#F4F6F8" stroke-miterlimit="10"/>
<path opacity="0.7" d="M317.811 350.254L317.578 354.409L318.044 351.639L317.811 350.254Z" stroke="#F4F6F8" stroke-miterlimit="10"/>
<path opacity="0.7" d="M317.578 327.105L317.346 324.73L316.182 325.126L315.251 324.335L314.087 324.928L311.526 325.126L310.595 325.917H306.638L306.871 326.907H310.828L316.414 328.094L317.578 327.105Z" stroke="#F4F6F8" stroke-miterlimit="10"/>
<path opacity="0.7" d="M312.69 244.202L311.992 243.213L308.733 245.191L309.897 245.785L312.69 244.202Z" stroke="#F4F6F8" stroke-miterlimit="10"/>
<path opacity="0.7" d="M309.198 229.362L308.5 229.758V230.748L307.569 231.935L307.104 230.945L306.638 233.32L305.474 235.892L307.336 234.507L308.267 235.496L311.061 232.924L309.664 231.143L309.198 229.362Z" stroke="#F4F6F8" stroke-miterlimit="10"/>
<path opacity="0.7" d="M299.655 262.009L298.724 263.394L299.887 264.186L304.543 264.383L308.035 265.175L309.198 264.779L305.94 261.02H302.215L299.655 262.009Z" stroke="#F4F6F8" stroke-miterlimit="10"/>
<path opacity="0.7" d="M305.474 232.726L305.94 231.539L304.077 232.924L305.474 232.726Z" stroke="#F4F6F8" stroke-miterlimit="10"/>
<path opacity="0.7" d="M302.681 170.401V169.411L298.258 169.214L301.284 170.796L302.681 170.401Z" stroke="#F4F6F8" stroke-miterlimit="10"/>
<path opacity="0.7" d="M299.655 131.62L301.517 130.829L300.819 129.642H298.258L296.861 128.455L295.93 130.631L296.861 131.818L299.655 131.62Z" stroke="#F4F6F8" stroke-miterlimit="10"/>
<path opacity="0.7" d="M293.835 172.181L294.301 173.171L295.232 173.566L296.861 174.753L298.491 173.369L298.724 171.786L294.999 170.994L293.835 172.181Z" stroke="#F4F6F8" stroke-miterlimit="10"/>
<path opacity="0.7" d="M270.325 95.2143V100.952H269.627L269.161 97.5893L266.833 98.3803L267.066 96.9953L265.67 97.7873L264.971 101.942H263.807L264.506 97.9843L264.04 95.4123L262.876 92.4443L261.712 91.8513L260.549 91.6533L260.316 90.0703L258.454 87.6963L252.867 88.8833L251.47 90.8623L250.074 92.4443L249.375 95.4123L248.677 97.1933L248.91 100.754L251.005 101.546L248.91 104.909L251.005 107.086L253.565 107.482V111.439L251.703 111.043L252.634 110.054L247.513 105.107L245.651 97.1933L246.116 93.8293L248.91 89.8723L247.048 88.6853L242.858 89.0813L237.737 94.4233L237.038 97.3913L235.874 102.931L237.038 111.439L238.668 112.032L243.323 112.23L245.418 113.813L243.09 114.407L240.53 113.022L238.9 114.011L239.133 116.583L239.832 116.385L243.09 118.957V119.947L247.048 120.145L247.513 118.166L252.634 122.915L255.66 120.145L256.824 121.134L262.178 120.343L264.739 121.727L266.833 120.343L268.23 121.53L269.627 120.54L267.997 118.76L271.954 118.364L273.118 119.551L276.377 118.364L274.049 115.198H272.42V114.011L278.239 115.594L280.334 118.562L283.128 117.572L283.826 118.957L282.895 119.749L285.223 119.947L289.413 122.123L288.714 123.904L286.852 124.695L287.085 127.268L290.344 125.289L290.809 123.31L295.465 125.289H297.56V126.872L302.215 128.85L307.336 134.786L306.638 135.38L306.405 140.92L302.681 145.47L303.845 146.658L307.802 148.241L308.035 150.417L306.172 150.219L305.707 152.198H303.612L302.215 153.978L298.491 154.572L298.025 153.978L294.068 154.176L293.37 155.166L293.603 156.155L294.766 157.342L291.74 158.925L292.671 161.299L293.835 162.684L296.629 164.267L298.724 164.663L299.655 163.476L303.146 161.299L302.215 159.914L303.379 159.123L307.336 160.112L307.569 159.321L309.431 156.748L310.362 159.716L311.061 158.331L319.906 162.684L322.001 162.288L323.63 162.486L323.863 165.652L326.424 167.037L327.355 166.443L333.174 167.037L334.105 166.246H335.502L336.433 167.631L340.39 168.818L345.046 167.828H351.331L352.96 168.224L354.124 166.048L352.029 164.663L348.537 162.882L342.252 161.101L339.925 160.706L334.338 157.342L336.2 155.759L339.925 158.331L342.02 157.936L346.21 159.716L350.4 158.727L352.96 159.321L354.357 160.112L354.589 159.123L353.891 157.936L353.658 156.353L352.029 155.166L350.167 152.989L352.96 154.176V152.396L349.701 150.615V149.428L345.046 148.241L346.442 147.647L345.279 145.866L343.649 146.855L341.089 144.085L340.157 144.877L337.131 144.283L332.01 140.524L329.915 141.315L329.45 140.524L327.355 138.941L327.82 137.556L329.217 138.941L331.312 137.754L330.614 136.963L328.752 136.567L327.355 134.984L329.45 135.182L328.053 133.401L330.381 132.412L332.941 134.39L336.899 135.578L338.761 133.797L337.83 136.171L340.39 136.963L342.02 138.743L344.347 140.524L346.675 138.941L349.003 139.93V137.754L346.908 133.401L348.305 133.599L349.934 131.225L349.236 128.059H347.141V126.278L349.003 126.08L349.236 125.487L348.072 124.102L349.468 122.915L344.115 121.727L341.089 124.3L340.623 120.738L337.83 123.31L336.666 122.717L335.036 119.947L332.01 119.353L330.614 120.54L331.312 118.364L330.614 117.572L327.122 120.738L323.398 120.343L321.303 117.572L319.906 117.968L312.923 118.364V117.375L315.251 117.177L316.414 116.385L315.251 113.615L313.854 113.22L317.113 112.626L318.509 111.241L318.044 110.252L313.388 110.845L311.293 111.043L311.526 109.856L314.552 107.68L310.828 104.712L309.664 104.909L309.897 106.888L308.5 107.482L307.336 106.69L305.009 108.471L304.31 107.877L308.733 104.118L308.267 103.327L303.612 102.535L302.215 104.316L301.284 104.712L302.215 102.931L299.422 104.909L299.189 101.744L297.792 101.348L297.094 103.722L296.396 102.733L294.534 103.92L295.465 104.909L297.094 103.92L296.163 105.503L294.534 105.107L294.068 102.931L296.163 101.348L295.93 100.359L292.439 98.1823L291.042 99.3693L290.344 102.337L286.387 98.3803L283.593 101.348L283.128 100.952L285.223 98.3803L284.059 96.0063L281.731 96.4023L281.498 95.0173L278.705 93.8293L277.541 94.6213L274.748 93.2363L270.325 95.2143Z" stroke="#F4F6F8" stroke-miterlimit="10"/>
<path opacity="0.7" d="M287.318 130.235L287.55 136.963L289.413 138.348L292.206 137.754L294.999 137.952L296.163 135.182L295.465 133.005L293.603 131.027L294.301 129.048L290.344 128.85L287.318 130.235Z" stroke="#F4F6F8" stroke-miterlimit="10"/>
<path opacity="0.7" d="M294.301 127.861L291.275 125.289L292.439 127.663L294.068 128.455L294.301 127.861Z" stroke="#F4F6F8" stroke-miterlimit="10"/>
<path opacity="0.7" d="M293.835 188.406L293.603 184.251L292.206 181.085L289.18 182.668L288.947 185.438L292.206 189.395L293.835 188.406Z" stroke="#F4F6F8" stroke-miterlimit="10"/>
<path opacity="0.7" d="M284.059 120.738L282.197 122.123L283.593 123.706L285.223 121.727L284.059 120.738Z" stroke="#F4F6F8" stroke-miterlimit="10"/>
<path opacity="0.7" d="M284.757 171.984L284.99 170.598L282.429 168.62L281.731 170.005L279.403 169.807L278.239 170.994L277.541 170.796L278.938 169.016L276.144 165.256L273.118 164.267L268.928 161.893H267.066L264.739 159.914L263.807 160.112L263.575 162.091L262.644 162.288L259.385 156.748L257.29 157.738L257.522 161.695L258.454 162.684L257.755 172.379L254.496 176.732L255.195 177.919L261.014 175.743L262.178 176.139V177.919L263.342 180.491L266.368 178.909L268.23 175.545L268.928 175.149L270.791 173.962L269.859 172.379L271.489 170.598L273.351 171.588L275.213 171.984L276.61 173.369L278.705 173.764L281.498 174.951L284.757 171.984Z" stroke="#F4F6F8" stroke-miterlimit="10"/>
<path opacity="0.7" d="M280.102 178.909L277.076 179.502L275.213 180.887L273.584 179.898L273.118 182.074L271.023 184.844L272.886 186.625L273.817 186.823H275.679L278.007 186.031L277.541 185.24L280.567 181.481L280.102 178.909Z" stroke="#F4F6F8" stroke-miterlimit="10"/>
<path opacity="0.7" d="M277.541 120.145L276.61 122.123L279.869 119.749L277.541 120.145Z" stroke="#F4F6F8" stroke-miterlimit="10"/>
<path opacity="0.7" d="M278.938 126.08V122.915L277.774 122.717L277.076 127.663L278.938 126.08Z" stroke="#F4F6F8" stroke-miterlimit="10"/>
<path opacity="0.7" d="M264.739 87.2995L261.014 86.9035L260.781 87.8935L261.945 90.8615L263.425 91.8425L264.04 92.2465L265.204 95.6095L267.532 95.2135L267.997 93.4335L270.092 92.4435L274.659 92.1665L276.61 92.0485L275.912 90.6635L270.092 86.3105L267.066 86.5085L264.739 87.2995Z" stroke="#F4F6F8" stroke-miterlimit="10"/>
<path opacity="0.7" d="M271.256 120.54L270.092 121.727L272.187 122.717L274.748 120.936V119.947L272.42 120.54H271.256Z" stroke="#F4F6F8" stroke-miterlimit="10"/>
<path opacity="0.7" d="M268.928 157.936L269.161 157.144L267.299 155.957L263.807 154.77L266.135 157.936H268.928Z" stroke="#F4F6F8" stroke-miterlimit="10"/>
<path opacity="0.7" d="M227.494 20.4239L228.193 20.6219L227.029 22.2049L229.124 23.7869L227.96 24.7769L228.426 25.9639L233.547 24.7769L236.107 22.7979L234.478 25.5679L230.055 26.3599V27.1509L233.779 28.7339L234.711 26.7549L235.176 29.3279L239.599 28.7339L239.832 27.7449L240.995 27.5469L241.461 28.7339L245.884 25.9639L246.815 24.3809L249.143 24.5789L246.349 28.3379L241.927 30.7129L242.159 31.7019L245.185 33.4829L244.72 34.4719L246.582 36.2529L245.185 36.0549L243.789 34.2739H242.858L240.297 31.8999H235.176V33.0869L235.874 34.2739L236.34 36.0549L239.133 37.6379L240.097 39.1849L241.228 41.0009L241.461 43.1779L245.185 43.5729L245.884 42.9799L247.048 43.5729L244.72 45.5519L243.323 44.3649L238.9 44.5629L237.038 45.9479L236.805 47.3329L235.874 48.5199L235.884 48.6579L236.107 51.8829H237.271L238.435 50.8939L239.366 51.6859H240.064L241.228 51.0919L240.763 52.8729L241.461 54.6529L244.254 56.2359L245.418 55.2469L245.884 53.8619L246.582 55.2469L246.349 56.2359L244.487 57.0279L241.461 57.2259L240.53 56.0379L238.9 53.8619H235.642V55.2469L236.107 56.0379L236.573 58.2149L237.969 58.6109L238.202 59.2039L236.805 60.5889L235.874 60.3909L233.314 63.3589L233.779 66.1289L233.547 66.9209L236.34 67.1189L237.271 67.5139L240.064 65.7339L241.461 66.5249L245.651 67.7119L245.185 66.3269L245.651 65.3379L248.91 64.7439L249.375 65.9309L251.005 64.9419L250.772 63.7549H253.798L254.031 66.5249L254.729 66.9209L260.083 62.3699L260.781 59.9959L259.385 57.8189L258.454 58.4129V59.4019L257.988 59.7979L256.359 58.6109L257.057 57.6209L256.359 56.6319L254.962 57.4229L250.306 57.6209L249.841 54.2579L251.47 55.8409L254.962 56.2359L258.221 53.8619L256.591 50.4979L258.221 49.7069L258.919 50.1029L261.712 47.9259L259.617 46.9369L261.712 46.3429L261.247 44.7609L259.385 43.5729H261.48L261.014 41.1989L259.152 40.4079L258.454 39.6159L256.126 40.0119L257.057 38.4289L261.014 38.0329L259.617 36.6479L254.031 38.0329L256.824 36.2529L258.221 36.0549L261.247 33.4829L260.549 31.8999L262.178 32.6909L264.04 30.3169L264.273 27.7449L261.247 28.9319L263.575 26.3599L263.342 25.1729L264.506 24.7769L266.368 18.6429L266.833 16.0709L267.997 13.1029L266.833 12.1139L265.204 12.9049L262.411 17.4559L261.014 17.6539L263.342 13.4989L261.014 14.4879L260.316 14.0929L264.04 12.7069L267.066 8.35494L266.601 3.80394L265.67 2.61694L263.575 3.01194L261.48 0.835938L259.385 1.03394L257.755 4.19994H256.359L257.522 2.61694L257.057 1.23194L255.195 2.02294L251.703 1.82494L251.238 2.81394H249.608L248.444 4.39694L244.022 4.00194L243.789 5.58494L244.953 6.57394V6.96994L240.763 6.57394L238.9 8.55194L239.832 9.93694L238.202 9.34394L237.969 12.3119L238.668 13.3009L237.038 13.8949L233.779 11.5199V13.4989L232.15 14.2899L235.176 16.2689L232.848 16.4669L231.917 15.8729H230.521L229.357 18.0499L228.658 17.4559L224.701 20.0279L226.098 21.4129L227.494 20.4239Z" stroke="#F4F6F8" stroke-miterlimit="10"/>
<path opacity="0.7" d="M261.014 155.561L262.178 158.925L263.807 158.529L261.014 155.561Z" stroke="#F4F6F8" stroke-miterlimit="10"/>
<path opacity="0.7" d="M236.805 81.5616L238.202 82.1556L237.504 83.7386H244.72L246.815 83.1446L248.211 82.1556H251.005L252.634 80.3746L256.359 81.9576L257.988 80.3746H259.385L260.083 77.6046L261.247 77.2086V75.8236H259.617V74.8346L260.549 72.8556L259.152 72.0646H257.29L257.522 70.6796L255.195 70.4816L254.031 69.2946L248.444 70.6796L246.815 72.8556L244.254 73.2516L243.09 74.2406L243.323 76.0216L240.995 74.0436L237.504 74.6366V73.4496H236.107L235.874 75.2306L235.176 75.0326L235.409 73.2516L233.779 71.4706H230.986L230.055 70.8776L231.917 69.2946L233.779 68.7006L230.521 67.5136V66.5246L228.426 65.1396L226.796 64.9416L225.4 66.5246L224.701 65.9306L223.072 63.5566H221.675L217.485 61.9736L215.623 63.1606L215.39 64.7436L218.649 68.3056L219.115 67.7116L218.649 69.4926L223.305 68.8986L224.934 68.5026L225.4 71.0756L227.262 72.6586L227.727 75.2306L226.331 78.1986L228.193 79.1876L227.96 81.9576H228.891L230.521 83.5406L232.15 83.3426L234.711 84.1336L236.805 81.5616Z" stroke="#F4F6F8" stroke-miterlimit="10"/>
<path opacity="0.7" d="M251.238 141.118L252.169 140.524L251.703 137.16L249.608 138.15L251.238 141.118Z" stroke="#F4F6F8" stroke-miterlimit="10"/>
<path opacity="0.7" d="M249.143 122.519L249.375 121.925L247.979 120.936L246.349 122.321L249.143 122.519Z" stroke="#F4F6F8" stroke-miterlimit="10"/>
<path opacity="0.7" d="M226.796 100.359L228.426 100.557L231.219 97.1928V95.4118L233.547 91.8508L232.15 88.4868L227.96 89.4768L224.468 87.2998L220.977 88.0918L219.58 89.8718L220.511 91.2568L217.951 91.0588L218.416 92.4438L217.951 99.7648L219.813 103.129L220.279 106.097L222.606 106.492L224.934 102.139L224.003 100.161L224.934 99.3688L226.796 100.359Z" stroke="#F4F6F8" stroke-miterlimit="10"/>
<path opacity="0.7" d="M218.882 40.6053L220.046 42.3863L224.701 41.3973L221.442 44.1673L224.003 48.3223L225.865 48.5203L224.701 49.9053L227.96 52.0813L229.589 51.8833L230.055 51.0923L232.15 50.1033L232.616 51.2903L233.547 51.4883L233.779 49.1133L234.711 48.7183L234.478 47.5313L236.34 43.9693L239.366 42.5843L239.133 39.6163L235.642 38.0333L234.478 35.0653L233.314 34.0763V31.3063L231.219 30.9103L232.15 31.9003V33.8783H231.452L229.822 30.5153H228.426L227.96 28.9323L224.003 23.3923L221.21 23.1943L220.744 24.1833L222.839 25.1733L221.442 26.7553L220.511 25.9643H219.347L219.115 27.9433L220.744 29.3283L220.977 30.1193L218.649 30.3173L217.718 33.6803L218.649 33.4833L220.511 36.0553L217.718 34.2743V37.8353L219.115 39.0233L218.882 40.6053Z" stroke="#F4F6F8" stroke-miterlimit="10"/>
<path opacity="0.7" d="M231.917 67.5141H233.081L232.383 64.7441L230.986 63.1611L231.917 67.5141Z" stroke="#F4F6F8" stroke-miterlimit="10"/>
<path opacity="0.7" d="M229.357 55.8408L228.426 57.0278L228.658 58.6108L230.521 60.3908H232.383L232.15 58.2148L229.357 55.8408Z" stroke="#F4F6F8" stroke-miterlimit="10"/>
<path opacity="0.7" d="M224.236 83.1445V77.6045L220.744 74.4385L218.649 75.2305L217.718 77.2085L215.623 79.9785L220.744 83.5405L224.236 83.1445Z" stroke="#F4F6F8" stroke-miterlimit="10"/>
<path opacity="0.7" d="M223.305 58.4131L224.236 55.8411L220.744 55.4451L220.279 55.8411L218.416 55.2471L216.787 57.4231L221.908 57.8191L223.305 58.4131Z" stroke="#F4F6F8" stroke-miterlimit="10"/>
<path opacity="0.7" d="M222.839 73.2519L220.977 71.6689L219.813 72.0649L221.21 73.6479L222.839 73.2519Z" stroke="#F4F6F8" stroke-miterlimit="10"/>
<path opacity="0.7" d="M213.761 47.9258L213.295 50.4978L215.623 52.6748L213.994 52.4768L215.157 55.0488L217.485 54.8508L220.744 53.0708L219.347 50.3008L219.813 49.3108L218.416 48.9158L217.718 47.9258L213.994 46.3428H213.063L213.761 47.9258Z" stroke="#F4F6F8" stroke-miterlimit="10"/>
<path opacity="0.7" d="M219.347 128.455L217.485 127.07L216.321 128.257L218.184 129.642L219.347 128.455Z" stroke="#F4F6F8" stroke-miterlimit="10"/>
<path opacity="0.7" d="M213.994 127.268L210.036 124.498L207.476 126.872L207.01 129.642L206.312 130.631L204.45 130.235L203.519 131.818L204.915 133.203L214.925 137.16L219.347 133.995L218.649 133.005L217.02 132.808L217.252 131.225L214.226 128.455L213.994 127.268Z" stroke="#F4F6F8" stroke-miterlimit="10"/>
<path opacity="0.7" d="M218.184 75.2305L216.787 74.4385L214.459 75.6255L215.39 77.0105L218.184 75.2305Z" stroke="#F4F6F8" stroke-miterlimit="10"/>
<path opacity="0.7" d="M214.459 95.8076L213.528 97.3906L214.925 98.3796L216.321 97.1926L214.459 95.8076Z" stroke="#F4F6F8" stroke-miterlimit="10"/>
<path opacity="0.7" d="M213.528 99.7648V98.7758L213.063 97.1928L210.502 97.5888V96.4018L213.063 94.2248L213.528 92.4438L214.692 92.2468L213.063 89.6738L207.941 91.2568L207.243 91.0588L206.545 88.8828L203.286 89.4768L203.519 91.8508L201.657 92.4438L201.424 94.8188L203.984 96.4018L203.053 99.7648L201.889 98.9738L199.329 95.6098L197.234 98.3798L199.096 101.546L199.562 102.535L203.519 106.097L205.148 109.064V110.45L208.407 112.428L209.804 111.241L210.036 109.064H210.735L211.433 109.658L215.39 107.482L215.157 106.294L214.925 103.722L215.856 102.139L213.528 99.7648Z" stroke="#F4F6F8" stroke-miterlimit="10"/>
<path opacity="0.7" d="M200.027 74.4389L208.407 73.8459L208.174 74.6369L205.148 77.0109L206.778 80.3749L208.873 79.5839L210.502 80.1769L213.063 78.5939L213.761 76.4179L214.226 75.0329L213.761 73.0539L214.226 72.0649V68.8989L213.295 67.3159L211.433 65.3379L210.269 67.3159H209.338L208.873 65.3379L205.614 67.3159L207.243 68.3059V69.6909L208.407 72.2629L206.778 71.0759L204.683 67.1189L203.286 67.5139L203.053 70.2839L204.683 72.8559L202.82 71.6689L200.027 74.4389Z" stroke="#F4F6F8" stroke-miterlimit="10"/>
<path opacity="0.7" d="M213.295 38.0332L213.063 34.6702L210.968 34.0762L210.269 35.8572L211.899 38.0332H213.295Z" stroke="#F4F6F8" stroke-miterlimit="10"/>
<path opacity="0.7" d="M208.174 88.8828L208.64 90.0698L212.83 88.6848L212.364 88.0918H210.502L208.174 88.8828Z" stroke="#F4F6F8" stroke-miterlimit="10"/>
<path opacity="0.7" d="M200.725 47.1345L199.096 47.9255L200.26 49.9045L202.588 49.7065L206.545 50.8935L207.01 51.4875L207.243 53.8615L209.804 55.6425L211.433 54.8505L210.502 50.1025L210.968 46.9365L208.174 45.5515L207.01 42.9795L205.148 44.1665L204.683 42.1875L202.588 39.8135L199.562 41.0005V42.7815L202.82 46.9365L202.588 47.9255L200.725 47.1345Z" stroke="#F4F6F8" stroke-miterlimit="10"/>
<path opacity="0.7" d="M205.381 66.5254L208.174 64.5464L207.01 63.3594L204.45 65.5364L205.381 66.5254Z" stroke="#F4F6F8" stroke-miterlimit="10"/>
<path opacity="0.7" d="M203.286 54.2578L204.45 55.6428L207.01 55.8408L206.778 55.0488L203.286 54.2578Z" stroke="#F4F6F8" stroke-miterlimit="10"/>
<path opacity="0.7" d="M198.63 72.2634L200.725 72.4614L202.588 70.6804L200.493 70.4824L198.63 72.2634Z" stroke="#F4F6F8" stroke-miterlimit="10"/>
<path opacity="0.7" d="M201.657 133.005L200.958 131.62L199.329 132.016L200.493 133.995L201.657 133.005Z" stroke="#F4F6F8" stroke-miterlimit="10"/>
<path opacity="0.7" d="M201.191 69.0974V68.1084L197.001 68.3064L197.699 69.8894L201.191 69.0974Z" stroke="#F4F6F8" stroke-miterlimit="10"/>
<path opacity="0.7" d="M200.027 67.3157L200.26 66.3267L198.165 64.3477L196.303 65.1397L197.467 66.3267V67.3157H200.027Z" stroke="#F4F6F8" stroke-miterlimit="10"/>
<path opacity="0.7" d="M196.07 58.8086L197.932 59.7976L198.63 59.2036L197.001 54.4556L195.604 54.0596L195.837 56.6316L196.07 58.8086Z" stroke="#F4F6F8" stroke-miterlimit="10"/>
<path opacity="0.7" d="M195.372 78.3957L197.699 78.1987L196.768 76.6157L196.535 74.6367H194.906L194.673 76.0217L193.742 77.4067L195.372 78.3957Z" stroke="#F4F6F8" stroke-miterlimit="10"/>
<path opacity="0.7" d="M193.509 133.599L194.906 134.984L196.07 133.995L194.673 132.61L193.509 133.599Z" stroke="#F4F6F8" stroke-miterlimit="10"/>
<path opacity="0.7" d="M193.044 91.4548L190.483 88.8828H187.69L185.362 90.4658L189.319 96.4018L193.044 91.4548Z" stroke="#F4F6F8" stroke-miterlimit="10"/>
<path opacity="0.7" d="M188.156 47.9262L189.552 48.5202L190.716 47.7282L191.182 46.3432L189.524 44.0562L189.319 43.7712L188.156 43.5732L185.362 44.7612L182.104 44.9582L181.405 45.7502L183.966 46.7392L185.362 47.5312L186.061 46.9372L186.526 47.1352V47.5312L188.156 47.7282V47.9262Z" stroke="#F4F6F8" stroke-miterlimit="10"/>
<path opacity="0.7" d="M181.172 55.0486H185.828V51.2896L187.457 50.6955L188.156 49.5086L182.569 49.3105L180.241 50.3006L180.009 51.6855L179.077 53.0705L181.172 55.0486Z" stroke="#F4F6F8" stroke-miterlimit="10"/>
<path opacity="0.7" d="M183.035 134.588L184.664 135.578L185.362 134.984L184.198 133.401L183.035 134.588Z" stroke="#F4F6F8" stroke-miterlimit="10"/>
<path opacity="0.7" d="M180.097 77.4309L183.5 76.6159L184.897 78.1989L186.759 78.0009L187.923 78.5939L190.716 77.8029L192.578 76.0219L192.811 75.0329L194.208 72.4609V70.2839L192.346 68.5029H190.716L189.552 69.2949L187.69 67.7119L186.992 67.3159L188.388 66.5249L187.69 64.5459L188.156 62.5679L187.923 60.9849L186.759 60.5889L185.129 62.7659L182.336 64.1509L184.198 66.5249L184.664 67.7119L183.267 67.5139L182.336 68.5029L185.595 72.0649L184.431 72.2629L181.638 71.0759L181.159 70.9329L179.077 70.6799V68.5029L177.681 67.7119L178.379 66.9209L177.215 65.9309V64.7439L174.655 63.3589V62.3699L173.491 60.9849L169.999 60.7869L169.068 61.7759H168.835L166.275 64.3479L168.137 65.7339L166.042 65.1399L163.947 66.5249L166.74 68.1079L162.783 67.7119L161.619 68.5029L164.645 71.2739L165.344 72.2629L169.301 73.4499L170.232 72.0649L171.396 72.2629L170.93 73.6479H177.448V75.0329L173.956 74.2409L170.698 75.4289L168.835 75.6259L168.37 77.4069L171.396 79.5839H173.258L179.911 77.8699L180.097 77.4309Z" stroke="#F4F6F8" stroke-miterlimit="10"/>
<path opacity="0.7" d="M177.215 50.894L179.543 49.905L178.146 47.333L176.75 48.124L177.448 49.707L177.215 50.894Z" stroke="#F4F6F8" stroke-miterlimit="10"/>
<path opacity="0.7" d="M176.982 58.6113L173.491 57.8193L174.189 59.4023H176.517L176.982 58.6113Z" stroke="#F4F6F8" stroke-miterlimit="10"/>
<path opacity="0.7" d="M157.197 59.7983L156.964 61.3813L159.292 61.9743L160.688 61.3813V60.3913H162.318L166.74 55.8413L166.973 56.2363L165.111 58.6113L166.508 60.9853L168.137 59.4023L170.93 58.8093L171.163 56.6323H171.861V55.4453L171.629 54.0603L172.792 54.4563L173.724 53.8623L172.56 50.6963H171.396L170.698 51.8833L169.999 52.0813L168.37 50.6963L166.275 50.8943L160.688 54.4563H157.895L157.662 56.0383L156.033 55.6433L153.007 56.8303V59.2043L155.8 59.9963L157.197 59.7983Z" stroke="#F4F6F8" stroke-miterlimit="10"/>
<path opacity="0.7" d="M165.111 61.7764L161.387 63.3594L158.36 64.3484L159.757 66.5254L165.111 62.3704V61.7764Z" stroke="#F4F6F8" stroke-miterlimit="10"/>
<path opacity="0.7" d="M130.893 92.8399L130.66 93.8289L129.496 95.8079L129.962 96.9949H133.919L135.549 96.0059L136.014 96.7969L139.506 97.3909L143.23 92.2469L146.256 91.4549L148.118 89.6739L156.731 86.1129L159.292 86.3109L161.387 84.5299L159.292 78.7919L157.197 77.2089L154.403 77.0109L152.541 76.2199L150.679 74.4389L149.981 71.0759L146.256 71.2739L144.394 70.4819L140.902 70.0859V71.8669L139.506 72.8559L140.204 75.8239L126.936 86.5089L130.893 92.8399Z" stroke="#F4F6F8" stroke-miterlimit="10"/>
<path opacity="0.7" d="M82.243 94.2251L82.941 94.8191H84.804L90.856 92.8401L89.459 90.6641L87.364 91.6531L86.2 91.0591L84.338 91.6531H81.312L81.778 92.2471L82.243 94.2251Z" stroke="#F4F6F8" stroke-miterlimit="10"/>
<path opacity="0.7" d="M27.0759 261.811L29.4029 264.779L30.1019 263.196L27.5409 260.031L27.0759 261.811Z" stroke="#F4F6F8" stroke-miterlimit="10"/>
<path opacity="0.7" d="M24.9809 262.207L24.7479 253.897L20.9719 250.779L16.6009 247.17L15.4369 244.795L12.1779 242.421L10.5489 242.619L9.84985 244.202L11.2469 246.18H14.0399L13.8069 247.17L11.7119 247.368L10.3159 249.148L13.5749 251.523L12.8759 251.918L13.8069 253.501L15.6699 253.897L15.9019 256.865H14.9709L14.7389 257.656L15.4369 259.041H17.0659L17.7639 262.207L17.0659 262.998L18.6959 265.175L20.7909 264.779L21.0229 265.768L20.0919 266.956L24.0489 271.506L27.3079 273.089L28.7049 270.913L29.1699 266.362L28.3509 265.547L24.9809 262.207Z" stroke="#F4F6F8" stroke-miterlimit="10"/>
<path opacity="0.7" d="M24.748 233.122L19.394 233.715V234.705L24.981 234.111L24.748 233.122Z" stroke="#F4F6F8" stroke-miterlimit="10"/>
<path opacity="0.7" d="M21.7219 218.876L21.0229 220.063L23.5839 219.074L21.7219 218.876Z" stroke="#F4F6F8" stroke-miterlimit="10"/>
<path opacity="0.7" d="M17.0659 224.812L17.2989 226.197L18.9279 228.769L21.2559 225.405L20.0919 222.042L17.0659 224.812Z" stroke="#F4F6F8" stroke-miterlimit="10"/>
<path opacity="0.7" d="M16.6011 214.523L17.5321 220.657L18.2301 219.272L17.2991 214.127L16.6011 214.523Z" stroke="#F4F6F8" stroke-miterlimit="10"/>
<path opacity="0.7" d="M14.2729 212.347L15.9019 214.127L17.2989 213.336L16.1349 212.347H14.2729Z" stroke="#F4F6F8" stroke-miterlimit="10"/>
<path opacity="0.7" d="M14.739 227.582H16.601L16.833 225.603L15.437 225.405L14.739 227.582Z" stroke="#F4F6F8" stroke-miterlimit="10"/>
<path opacity="0.7" d="M14.971 220.261L16.135 219.272L15.204 216.502L14.739 215.512L13.342 216.7L14.971 220.261Z" stroke="#F4F6F8" stroke-miterlimit="10"/>
<path opacity="0.7" d="M14.506 254.095L12.876 255.48L14.971 256.667L14.506 254.095Z" stroke="#F4F6F8" stroke-miterlimit="10"/>
<path opacity="0.7" d="M8.68597 207.796L6.82397 210.368L4.26397 209.775L4.49597 209.379L7.05697 209.181L7.98797 207.994L7.28997 206.609L6.12597 206.213L5.89297 204.828L4.96197 204.037L2.63397 206.609L1.93597 208.192L0.771973 209.181L1.93597 210.17L1.46997 213.534L4.72897 213.732L6.82397 211.357L11.48 208.389L8.68597 207.796Z" stroke="#F4F6F8" stroke-miterlimit="10"/>
<path opacity="0.7" d="M6.35888 215.512L5.19488 214.127L1.00488 214.325L1.23788 214.919V217.491L2.40088 224.416L4.03088 224.614V223.625L3.33288 223.229V220.261L2.63388 218.282L3.79788 215.71L6.35888 215.512Z" stroke="#F4F6F8" stroke-miterlimit="10"/>
<path opacity="0.7" d="M198.398 121.727L196.535 120.343L193.742 117.572L192.578 117.77L190.483 114.407L189.087 111.439L190.716 109.856L189.319 106.888L188.854 96.2043L185.129 92.4443L183.966 93.0383L182.802 91.2573L181.871 91.6533L180.241 102.337L181.172 104.712L179.077 106.69L178.845 103.92L178.146 103.327L178.845 101.942L178.146 99.7653L178.612 97.7873L178.146 96.9953L175.586 92.8403L175.12 93.0383L173.724 92.8403V93.8293L174.655 94.6213L175.12 94.4233L175.353 95.2143L173.956 96.5993L173.97 96.6713L173.891 96.6983L171.163 97.5893L169.301 97.7873L169.068 97.1933L170.698 96.7973L170.93 95.2143L168.137 91.8513L166.508 91.0593L163.947 93.8293L161.387 93.6323L165.111 91.0593L163.714 86.9043L157.895 88.6853L156.731 88.2893L153.938 88.6853L149.282 91.6533L149.049 94.0273L148.118 93.6323L146.256 95.2143H145.325L144.161 96.4023L144.859 97.1933L146.023 97.7873L146.722 98.5783L145.791 99.3693L146.954 100.557L150.679 100.952L155.102 101.348L154.869 102.139H145.558L143.696 104.316L144.859 106.69L147.653 107.482L150.516 109.045L150.343 109.133L153.007 109.856H157.895L157.429 110.647L161.154 112.428L163.714 115.198L160.455 115.396L155.8 112.824L149.981 111.637L143.463 111.835V112.428L143.733 112.495L143.724 112.499L143.961 112.606L143.928 112.626V115.396L145.558 118.364L147.886 120.343L152.774 122.321L152.308 124.102L153.705 128.257L158.36 129.84L166.275 130.631L171.629 128.653L175.353 128.85L178.612 126.674L178.845 125.685L179.543 125.882V127.268L183.5 129.444L184.431 129.048L182.802 130.631L184.198 131.423H187.923L189.319 132.412L193.044 132.214L195.139 131.027L195.372 128.455L194.906 127.465L193.509 126.872L191.647 128.257L190.716 125.289L193.277 126.476L193.742 125.289L195.372 124.3L196.07 123.508L196.303 125.487L198.863 124.3L198.398 126.08L200.027 124.893L200.26 121.53L198.398 121.727Z" stroke="#F4F6F8" stroke-miterlimit="10"/>
</g>
</svg>
