<svg width="280" height="78" viewBox="0 0 280 78" fill="none" xmlns="http://www.w3.org/2000/svg">
<path d="M278.278 67.7136C278.242 66.2821 277.785 64.8929 276.963 63.7198C276.142 62.5468 274.993 61.6421 273.66 61.1189C272.327 60.5957 270.869 60.4773 269.469 60.7784C268.069 61.0795 266.789 61.7868 265.789 62.8118C264.789 63.8368 264.114 65.134 263.847 66.541C263.581 67.948 263.735 69.4023 264.291 70.722C264.847 72.0416 265.78 73.168 266.973 73.9602C268.166 74.7524 269.566 75.1752 270.998 75.1756C271.974 75.1937 272.944 75.0117 273.848 74.6407C274.751 74.2698 275.569 73.7177 276.251 73.0187C276.933 72.3196 277.465 71.4882 277.814 70.5758C278.162 69.6635 278.32 68.6894 278.278 67.7136ZM269.094 68.0916V72.9776H267.512V62.2116H271.432C273.728 62.2116 274.778 63.2196 274.778 65.1796C274.799 65.7232 274.622 66.2559 274.279 66.6784C273.937 67.1009 273.452 67.3842 272.916 67.4756C273.826 67.6156 274.162 68.4276 274.316 69.9116C274.375 70.9493 274.602 71.9705 274.988 72.9356H273.126C272.817 71.7364 272.574 70.5213 272.398 69.2956C272.316 68.8947 272.083 68.541 271.746 68.3086C271.409 68.0763 270.996 67.9835 270.592 68.0496L269.094 68.0916ZM271.04 66.6916C272.58 66.6916 273.014 65.8796 273.014 65.1516C273.014 64.4236 272.58 63.6396 271.04 63.6396H269.094V66.6916H271.04ZM261.996 67.6996C261.976 65.9151 262.488 64.1652 263.465 62.672C264.442 61.1787 265.841 60.0097 267.485 59.3133C269.128 58.6169 270.941 58.4246 272.693 58.7608C274.446 59.097 276.059 59.9465 277.328 61.2015C278.597 62.4565 279.464 64.0602 279.819 65.8091C280.174 67.5579 280.002 69.3729 279.324 71.0235C278.645 72.6741 277.492 74.0859 276.009 75.0794C274.527 76.073 272.782 76.6035 270.998 76.6036C269.819 76.628 268.646 76.4155 267.55 75.9788C266.455 75.5421 265.457 74.89 264.618 74.0611C263.779 73.2322 263.114 72.2433 262.664 71.1531C262.213 70.0628 261.986 68.8932 261.996 67.7136V67.6996Z" fill="#FF5A00"/>
<path d="M230.818 75.064L220.444 63.4301L210.168 75.064H188.538L209.678 51.264L188.538 27.4641H210.84L221.312 39.014L231.406 27.4641H252.924L231.924 51.1241L253.246 74.924L230.818 75.064ZM146.986 75.064V0.206055H188.538V16.8941H164.584V27.5481H188.538V43.6061H164.584V58.3341H188.538V75.064H146.986Z" fill="#FF5A00"/>
<path d="M129.458 0.206055V30.8521H129.262C125.384 26.3861 120.54 24.8321 114.912 24.8321C103.39 24.8321 94.71 32.6721 91.672 43.0321C88.2 31.6081 79.226 24.6221 65.94 24.6221C55.16 24.6221 46.634 29.4661 42.14 37.3481V27.5481H19.88V16.8941H44.226V0.220055H0V75.064H19.88V43.6061H39.704C39.0873 46.0213 38.7815 48.5054 38.794 50.9981C38.794 66.6081 50.722 77.5981 65.94 77.5981C78.736 77.5981 87.178 71.592 91.644 60.6441H74.606C72.296 63.9341 70.546 64.914 65.94 64.914C63.2795 64.8376 60.7534 63.7276 58.8977 61.8196C57.0419 59.9116 56.0025 57.3557 56 54.694H90.692C92.19 67.0981 101.892 77.7941 115.108 77.7941C117.91 77.8004 120.669 77.1119 123.139 75.7901C125.609 74.4683 127.713 72.5545 129.262 70.2201H129.458V75.0781H147V0.220055H129.458V0.206055ZM56.546 43.8301C56.9503 41.6298 58.1101 39.6397 59.8252 38.2032C61.5402 36.7668 63.7029 35.9741 65.94 35.9621C68.2193 35.8496 70.4581 36.595 72.2151 38.0514C73.972 39.5077 75.1198 41.5694 75.432 43.8301H56.546ZM118.818 63.6681C112.364 63.6681 108.346 57.6481 108.346 51.3621C108.346 44.6421 111.846 38.188 118.818 38.188C126.07 38.188 128.954 44.6561 128.954 51.3621C128.954 57.7321 125.902 63.6681 118.818 63.6681Z" fill="#29007C"/>
</svg>
