<svg width="40" height="40" viewBox="0 0 40 40" fill="none" xmlns="http://www.w3.org/2000/svg">
<path d="M1.2002 26.7969C1.4002 27.3448 1.6002 27.8848 1.8642 28.4207C2.1042 28.9487 2.3722 29.4646 2.6642 29.9766V30.0046C2.8762 30.3725 3.1002 30.7285 3.3322 31.0764C3.4202 31.2084 3.5162 31.3364 3.6082 31.4764C3.7522 31.6804 3.8922 31.8764 4.0402 32.0803C4.1882 32.2843 4.3042 32.4123 4.4402 32.5763C4.5762 32.7403 4.6762 32.8763 4.8002 33.0203C4.9242 33.1642 5.1242 33.3802 5.2882 33.5562L5.3882 33.6602L5.6002 33.8882C5.7882 34.0801 6.0002 34.2881 6.1722 34.4561L6.3402 34.6161L6.4282 34.6961C6.6442 34.8961 6.8642 35.096 7.0882 35.276L7.2522 35.412L7.2882 35.44C7.5322 35.64 7.7802 35.84 8.0362 36.024C8.04544 36.0258 8.05495 36.0258 8.0642 36.024L8.1642 36.0959C8.4402 36.2999 8.7202 36.4959 9.0082 36.6839L9.0802 36.7279C9.3082 36.8759 9.5362 37.0239 9.7682 37.1598C10.1682 37.3878 10.5402 37.5998 10.9402 37.7998C11.0202 37.8438 11.1082 37.8758 11.1922 37.9198C11.5082 38.0717 11.8282 38.2237 12.1522 38.3637L12.3082 38.4237H12.3602C12.7042 38.5677 13.0522 38.7037 13.4042 38.8237L13.4682 38.8477H13.5442C13.9202 38.9757 14.3002 39.0956 14.6802 39.1996H14.7082H14.8002C15.2002 39.3116 15.6322 39.4116 16.0522 39.4956C16.5762 39.6036 17.1042 39.6836 17.6522 39.7476L17.8802 39.7756H17.9282H18.0442H18.2722C18.6002 39.8036 18.9322 39.8236 19.2602 39.8356H19.4122C19.5242 39.8356 19.6362 39.8356 19.7522 39.8356C19.8682 39.8356 19.9682 39.8356 20.0762 39.8356H20.1482C20.4962 39.8356 20.8442 39.8356 21.1882 39.8036L21.5642 39.7756C21.8322 39.7756 22.1042 39.7276 22.3642 39.6996L22.7282 39.6556C23.0682 39.6076 23.4082 39.5556 23.7442 39.4916H23.8442H23.9162C24.3162 39.4156 24.7162 39.3236 25.1162 39.2196L25.2922 39.1676C25.6482 39.0716 26.0042 38.9677 26.3522 38.8517C26.5042 38.8037 26.6522 38.7437 26.8002 38.6877C27.0642 38.5957 27.3282 38.4997 27.6002 38.3957C27.8722 38.2917 28.1322 38.1597 28.4002 38.0397C28.5442 37.9758 28.6882 37.9158 28.8282 37.8478C29.2282 37.6478 29.6282 37.4478 30.0282 37.2038L30.2322 37.0798C30.7162 36.7919 31.1762 36.4839 31.6242 36.1639H31.6562L31.7762 36.0799C32.1762 35.776 32.5762 35.46 32.9762 35.128L33.1562 34.9761C33.5429 34.6374 33.9149 34.2855 34.2722 33.9202L34.4002 33.8762C34.7682 33.4762 35.1202 33.1002 35.4522 32.6763L35.5122 32.6043C36.9231 30.8645 38.0343 28.9018 38.8002 26.7969H1.2002Z" fill="#E10E00"/>
<path d="M38.8 26.7528C39.5721 24.6164 39.9778 22.365 40 20.0935C40.0141 17.7587 39.6174 15.4396 38.828 13.2422H1.2C0.407661 15.4341 0.00164035 17.7468 0 20.0775H0C0.00891985 22.3409 0.403918 24.5862 1.168 26.7168L38.8 26.7528Z" fill="url(#paint0_linear_259_1823)"/>
<path fill-rule="evenodd" clip-rule="evenodd" d="M38.8282 13.2427C38.428 12.1187 37.9273 11.0331 37.3322 9.999C37.1202 9.63104 36.8962 9.27507 36.6602 8.92711C36.5722 8.79112 36.4802 8.66313 36.3882 8.52715C36.2402 8.31917 36.0962 8.12719 35.9442 7.91121C35.7922 7.69523 35.6922 7.59124 35.5442 7.43126C35.3962 7.27127 35.2962 7.12329 35.1682 6.9753C35.0402 6.82732 34.8402 6.60334 34.6722 6.42336L34.3722 6.10339C34.1762 5.90341 33.9722 5.70343 33.7802 5.52345L33.5282 5.28347C33.3069 5.08349 33.0829 4.88751 32.8562 4.69553L32.6722 4.54355C32.4202 4.33957 32.1642 4.14359 31.9042 3.94761L31.7642 3.84762C31.5322 3.67963 31.3002 3.51565 31.0642 3.35566C30.8282 3.19568 30.5082 2.9757 30.2122 2.79972C30.1122 2.73973 30.0042 2.68773 29.9042 2.62774C29.6562 2.49175 29.4082 2.34777 29.1562 2.22778L28.9042 2.10379L28.5242 1.92781C28.3482 1.84382 28.1762 1.75982 27.9962 1.68383H27.9682L27.7722 1.59584L27.6002 1.51585C27.2682 1.37986 26.9282 1.24788 26.5882 1.11589L26.5042 1.08789C26.1362 0.963904 25.7682 0.847915 25.3922 0.743926L25.2602 0.711929C24.4744 0.498995 23.6771 0.330742 22.8722 0.207979C22.0096 0.0826133 21.1398 0.0131421 20.2682 0C20.1922 0 20.1162 0 20.0442 0H20.0002C19.6002 0 19.2362 0 18.8562 0.0319968L18.5642 0.0519948C18.2522 0.0706596 17.9402 0.0986568 17.6282 0.135986L17.3642 0.167983C17.0242 0.211979 16.6882 0.263974 16.3522 0.327967L16.1882 0.351965H16.1642L15.8762 0.415958C15.6442 0.463954 15.4162 0.515948 15.1882 0.571943C15.1042 0.591941 15.0162 0.607939 14.9322 0.631937L14.7922 0.671933H14.7602C14.4242 0.763924 14.0882 0.859914 13.7562 0.967903C13.7303 0.978271 13.7035 0.986302 13.6762 0.991901H13.6482L13.5842 1.0159L13.3882 1.08789C13.0802 1.19588 12.7722 1.30787 12.4642 1.43186H12.4162L11.9082 1.65583C11.6882 1.75582 11.4682 1.84382 11.2522 1.9518C10.8522 2.15178 10.4522 2.35176 10.0522 2.59574L9.8522 2.71973L9.8122 2.74373C9.4722 2.94771 9.1482 3.17168 8.8202 3.39566C8.4922 3.61964 8.1562 3.86361 7.8362 4.11159C7.6002 4.29157 7.3642 4.47155 7.1362 4.66353L6.8802 4.87951C6.5122 5.20348 6.1602 5.53945 5.8202 5.88341L5.6162 6.09139C5.2642 6.46335 4.9242 6.84332 4.6042 7.23928L4.5242 7.33527C3.09124 9.10308 1.96741 11.1003 1.2002 13.2427H38.8282Z" fill="#F1F1F1"/>
<defs>
<linearGradient id="paint0_linear_259_1823" x1="-9.312" y1="13.7661" x2="49.8395" y2="26.3433" gradientUnits="userSpaceOnUse">
<stop stop-color="#0B4EAB"/>
<stop offset="1" stop-color="#0B4EAB"/>
</linearGradient>
</defs>
</svg>
