<svg width="280" height="98" viewBox="0 0 280 98" fill="none" xmlns="http://www.w3.org/2000/svg">
<g clip-path="url(#clip0_601_3117)">
<path d="M140 94.3457C140.812 93.9397 161.91 84.8117 168.602 79.3377C175.504 73.6537 179.158 65.5477 179.158 55.8037V10.1637L178.542 9.95374C161.7 0.825742 140.812 1.39974 139.804 1.39974C138.796 1.39974 118.09 0.825742 101.248 9.95374L100.8 10.1637V55.9997C100.8 65.7997 104.454 73.8497 111.356 79.5197C118.258 85.1897 139.188 94.1497 140 94.3457Z" fill="#341B14"/>
<path d="M140 95.3676C140 95.3676 117.684 85.5676 110.782 80.1496C103.488 74.0596 100.03 65.7996 100.03 56.2096V8.73562C117.684 -0.798377 140 -0.000377065 140 -0.000377065C140 -0.000377065 162.316 -0.812377 179.97 8.72162V55.9996C179.97 65.5336 176.512 73.8496 169.218 79.9256C162.316 85.6096 140 95.3256 140 95.3256V95.3676ZM103.278 56.1256C103.278 65.0576 106.526 72.3516 112.812 77.4196C118.496 82.0956 135.338 89.5996 140 91.6296C144.662 89.5996 161.7 81.8296 167.188 77.4196C173.474 72.3516 176.722 64.8196 176.722 56.1256V9.54762C153.188 7.32162 125.188 8.53963 103.278 28.8256V56.2096V56.1256Z" fill="#FFB406"/>
<path d="M162.512 49.5173C165.564 51.3373 166.712 52.5553 166.978 54.7953C167.244 57.0353 165.354 58.6453 162.778 58.6453C160.294 58.4985 157.934 57.511 156.086 55.8453V62.2993C158.426 63.6741 161.074 64.4395 163.786 64.5253C170.688 64.5253 173.936 59.6533 173.936 55.2013C174.132 51.1413 172.914 47.8933 167.034 44.4493C164.402 42.8253 162.372 41.8033 162.372 39.3673C162.4 38.8699 162.528 38.3833 162.75 37.9371C162.972 37.491 163.282 37.0948 163.662 36.7725C164.042 36.4502 164.483 36.2087 164.959 36.0627C165.436 35.9167 165.937 35.8693 166.432 35.9233C168.803 36.0428 171.044 37.0411 172.718 38.7233V32.6753C170.51 31.0055 167.762 30.2125 165.004 30.4493C160.342 30.6453 155.47 33.8933 155.47 39.5773C155.68 43.4273 156.87 46.2693 162.568 49.5173H162.512ZM138.6 64.1193C139.649 64.4292 140.741 64.5663 141.834 64.5253C149.758 64.5253 154.21 57.4273 154.21 47.2773C154.21 37.1273 149.548 30.6453 141.232 30.6453C137.887 30.5295 134.578 31.3748 131.698 33.0813V78.9313H138.6V64.1193ZM138.6 36.5253C139.374 36.2086 140.19 36.0058 141.022 35.9233C145.082 35.9233 146.706 39.1713 146.706 47.1233C146.706 55.0753 144.676 58.4773 140.616 58.4773C139.854 58.5036 139.094 58.3651 138.39 58.0713V36.5253H138.6ZM117.292 64.5253C121.012 64.675 124.691 63.6991 127.848 61.7253V31.0513H120.722V57.6513C119.766 58.278 118.627 58.564 117.488 58.4633C114.24 58.4633 113.834 55.4253 113.834 53.6053V31.0513H106.736V53.1993C106.736 60.7033 110.376 64.5533 117.278 64.5533L117.292 64.5253ZM164.542 91.9373V96.5993H165.354V94.7513H165.564L166.782 96.5853H167.79C167.79 96.5853 166.572 94.7513 166.39 94.5553C166.668 94.491 166.918 94.3369 167.1 94.1168C167.282 93.8967 167.387 93.6228 167.398 93.3373C167.401 93.133 167.359 92.9306 167.275 92.7443C167.191 92.5579 167.067 92.3923 166.912 92.2589C166.758 92.1254 166.575 92.0275 166.379 91.972C166.182 91.9164 165.976 91.9046 165.774 91.9373H164.542ZM165.76 92.5533C166.376 92.5533 166.572 92.9593 166.572 93.1553C166.572 93.5613 166.376 93.9673 165.564 93.9673H165.354V92.5673L165.76 92.5533Z" fill="#FFB406"/>
<path d="M169.008 94.1492C169.008 94.7534 168.828 95.344 168.492 95.8462C168.156 96.3484 167.679 96.7396 167.12 96.9702C166.562 97.2008 165.948 97.2604 165.355 97.1415C164.763 97.0226 164.219 96.7305 163.793 96.3023C163.366 95.874 163.077 95.3289 162.961 94.736C162.845 94.143 162.907 93.5289 163.14 92.9715C163.373 92.4141 163.767 91.9384 164.27 91.6047C164.774 91.2711 165.366 91.0944 165.97 91.0972C166.372 91.0915 166.77 91.1666 167.142 91.3182C167.514 91.4697 167.852 91.6945 168.136 91.9793C168.419 92.264 168.642 92.6028 168.792 92.9756C168.942 93.3484 169.015 93.7475 169.008 94.1492ZM165.97 90.2852C165.205 90.2824 164.457 90.5067 163.819 90.9296C163.182 91.3525 162.685 91.955 162.39 92.6608C162.095 93.3666 162.017 94.1439 162.164 94.8944C162.312 95.6449 162.679 96.3347 163.219 96.8765C163.758 97.4182 164.447 97.7877 165.197 97.9379C165.947 98.0881 166.724 98.0124 167.431 97.7204C168.138 97.4283 168.742 96.9331 169.168 96.2974C169.593 95.6616 169.82 94.914 169.82 94.1492C169.788 93.1367 169.373 92.1741 168.658 91.4566C167.943 90.739 166.982 90.3202 165.97 90.2852Z" fill="#FFB406"/>
</g>
<defs>
<clipPath id="clip0_601_3117">
<rect width="280" height="98" fill="white"/>
</clipPath>
</defs>
</svg>
